SplineFontDB: 3.2
FontName: CourierFzrAPL-Regular
FullName: Courier FZR APL Regular
FamilyName: Courier FZR APL
Weight: Regular
Copyright: 
Version: 3.018
ItalicAngle: 0
UnderlinePosition: -250
UnderlineWidth: 130
Ascent: 1638
Descent: 410
InvalidEm: 0
sfntRevision: 0x0003049b
LayerCount: 2
Layer: 0 1 "Back" 1
Layer: 1 1 "Fore" 0
StyleMap: 0x0040
FSType: 0
OS2Version: 4
OS2_WeightWidthSlopeOnly: 0
OS2_UseTypoMetrics: 1
CreationTime: 1568068449
ModificationTime: 1722005223
PfmFamily: 81
TTFWeight: 400
TTFWidth: 5
LineGap: 0
VLineGap: 0
Panose: 0 0 5 9 0 0 0 0 0 0
OS2TypoAscent: 1600
OS2TypoAOffset: 0
OS2TypoDescent: -700
OS2TypoDOffset: 0
OS2TypoLinegap: 0
OS2WinAscent: 1900
OS2WinAOffset: 0
OS2WinDescent: 800
OS2WinDOffset: 0
HheadAscent: 1600
HheadAOffset: 0
HheadDescent: -700
HheadDOffset: 0
OS2SubXSize: 1331
OS2SubYSize: 1228
OS2SubXOff: 0
OS2SubYOff: 153
OS2SupXSize: 1331
OS2SupYSize: 1228
OS2SupXOff: 0
OS2SupYOff: 716
OS2StrikeYSize: 130
OS2StrikeYPos: 554
OS2CapHeight: 1187
OS2XHeight: 924
OS2Vendor: '    '
OS2CodePages: 20000093.00000000
OS2UnicodeRanges: 00000007.00000000.00000000.00000000
Lookup: 1 0 0 "'rtla' Right to Left Alternates lookup 0" { "'rtla' Right to Left Alternates lookup 0 subtable"  } ['rtla' ('DFLT' <'dflt' > ) ]
Lookup: 1 0 0 "<10,1> Superiors lookup 1" { "<10,1> Superiors lookup 1 subtable" ("superior") } [<10,1> ('DFLT' <'dflt' > ) 'sups' ('DFLT' <'dflt' > ) ]
Lookup: 4 0 0 "<11,2> Diagonal Fractions lookup 2" { "<11,2> Diagonal Fractions lookup 2 subtable"  } [<11,2> ('DFLT' <'dflt' > ) 'frac' ('DFLT' <'dflt' > ) ]
MarkAttachClasses: 1
DEI: 91125
MacFeat: 0 0 0
MacName: 0 0 24 "All Typographic Features"
MacName: 0 1 24 "Fonctions typographiques"
MacName: 0 2 32 "Alle typografischen Mglichkeiten"
MacName: 0 3 21 "Funzioni Tipografiche"
MacName: 0 4 28 "Alle typografische kenmerken"
MacSetting: 0
MacName: 0 0 17 "All Type Features"
MacName: 0 1 31 "Toutes fonctions typographiques"
MacName: 0 2 23 "Alle Auszeichnungsarten"

StartChar: .notdef
Encoding: 65536 -1 0
Width: 1228
GlyphClass: 1
Flags: W
LayerCount: 2
Fore
SplineSet
1084.5 1306.5 m 128,-1,1
 1099 1291 1099 1291 1099 1254 c 2,2,-1
 1096 -215 l 2,3,4
 1096 -252 1096 -252 1081.5 -267.5 c 128,-1,5
 1067 -283 1067 -283 1033 -283 c 2,6,-1
 212 -283 l 2,7,8
 178 -283 178 -283 163.5 -267.5 c 128,-1,9
 149 -252 149 -252 149 -215 c 2,10,-1
 152 1254 l 2,11,12
 152 1291 152 1291 166.5 1306.5 c 128,-1,13
 181 1322 181 1322 215 1322 c 2,14,-1
 1036 1322 l 2,15,0
 1070 1322 1070 1322 1084.5 1306.5 c 128,-1,1
991 -181 m 1,16,-1
 993 1220 l 1,17,-1
 257 1220 l 1,18,-1
 255 -181 l 1,19,-1
 991 -181 l 1,16,-1
384 73.5 m 128,-1,21
 366 82 366 82 366 95 c 0,22,23
 366 99 366 99 369 105 c 2,24,-1
 583 515 l 1,25,-1
 369 923 l 2,26,27
 367 926 367 926 367 933 c 0,28,29
 367 947 367 947 384 956 c 128,-1,30
 401 965 401 965 422 965 c 0,31,32
 440 965 440 965 452.5 959.5 c 128,-1,33
 465 954 465 954 470 944 c 2,34,-1
 632 611 l 1,35,-1
 794 944 l 2,36,37
 799 954 799 954 811.5 959.5 c 128,-1,38
 824 965 824 965 842 965 c 0,39,40
 863 965 863 965 880 956 c 128,-1,41
 897 947 897 947 897 933 c 0,42,43
 897 926 897 926 895 923 c 2,44,-1
 681 515 l 1,45,-1
 895 105 l 2,46,47
 898 99 898 99 898 95 c 0,48,49
 898 82 898 82 880 73.5 c 128,-1,50
 862 65 862 65 841 65 c 0,51,52
 803 65 803 65 794 84 c 2,53,-1
 632 417 l 1,54,-1
 470 84 l 2,55,56
 461 65 461 65 423 65 c 0,57,20
 402 65 402 65 384 73.5 c 128,-1,21
EndSplineSet
Validated: 1
EndChar

StartChar: exclam
Encoding: 33 33 4
Width: 1228
GlyphClass: 1
Flags: W
LayerCount: 2
Fore
SplineSet
712 1257 m 128,-1,1
 722 1245 722 1245 720 1219 c 2,2,-1
 671 512 l 2,3,4
 669 489 669 489 654.5 476.5 c 128,-1,5
 640 464 640 464 614 464 c 256,6,7
 588 464 588 464 572.5 476.5 c 128,-1,8
 557 489 557 489 556 512 c 2,9,-1
 508 1219 l 2,10,11
 506 1245 506 1245 516 1257 c 128,-1,12
 526 1269 526 1269 549 1269 c 2,13,-1
 679 1269 l 2,14,0
 702 1269 702 1269 712 1257 c 128,-1,1
709.5 255.5 m 128,-1,16
 739 241 739 241 739 207 c 2,17,-1
 739 53 l 2,18,19
 739 19 739 19 709.5 4.5 c 128,-1,20
 680 -10 680 -10 614 -10 c 256,21,22
 548 -10 548 -10 518.5 4.5 c 128,-1,23
 489 19 489 19 489 53 c 2,24,-1
 489 207 l 2,25,26
 489 241 489 241 518.5 255.5 c 128,-1,27
 548 270 548 270 614 270 c 256,28,15
 680 270 680 270 709.5 255.5 c 128,-1,16
EndSplineSet
Validated: 1
EndChar

StartChar: numbersign
Encoding: 35 35 6
Width: 1228
GlyphClass: 1
Flags: W
LayerCount: 2
Fore
SplineSet
1153.5 848.5 m 128,-1,1
 1168 832 1168 832 1168 793 c 256,2,3
 1168 754 1168 754 1153.5 737.5 c 128,-1,4
 1139 721 1139 721 1105 721 c 2,5,-1
 911 721 l 1,6,-1
 847 476 l 1,7,-1
 1035 476 l 2,8,9
 1069 476 1069 476 1083.5 459.5 c 128,-1,10
 1098 443 1098 443 1098 404 c 256,11,12
 1098 365 1098 365 1083.5 348.5 c 128,-1,13
 1069 332 1069 332 1035 332 c 2,14,-1
 809 332 l 1,15,-1
 726 11 l 2,16,17
 722 -5 722 -5 706.5 -13.5 c 128,-1,18
 691 -22 691 -22 672 -22 c 0,19,20
 644 -22 644 -22 622 -7 c 128,-1,21
 600 8 600 8 600 32 c 0,22,23
 600 35 600 35 602 45 c 2,24,-1
 677 332 l 1,25,-1
 415 332 l 1,26,-1
 332 11 l 2,27,28
 328 -5 328 -5 312.5 -13.5 c 128,-1,29
 297 -22 297 -22 278 -22 c 0,30,31
 250 -22 250 -22 228 -7 c 128,-1,32
 206 8 206 8 206 32 c 0,33,34
 206 35 206 35 208 45 c 2,35,-1
 283 332 l 1,36,-1
 123 332 l 2,37,38
 89 332 89 332 74.5 348.5 c 128,-1,39
 60 365 60 365 60 404 c 256,40,41
 60 443 60 443 74.5 459.5 c 128,-1,42
 89 476 89 476 123 476 c 2,43,-1
 320 476 l 1,44,-1
 384 721 l 1,45,-1
 193 721 l 2,46,47
 159 721 159 721 144.5 737.5 c 128,-1,48
 130 754 130 754 130 793 c 256,49,50
 130 832 130 832 144.5 848.5 c 128,-1,51
 159 865 159 865 193 865 c 2,52,-1
 421 865 l 1,53,-1
 502 1176 l 2,54,55
 506 1192 506 1192 521.5 1200.5 c 128,-1,56
 537 1209 537 1209 556 1209 c 0,57,58
 584 1209 584 1209 606 1194 c 128,-1,59
 628 1179 628 1179 628 1155 c 0,60,61
 628 1152 628 1152 626 1142 c 2,62,-1
 554 865 l 1,63,-1
 815 865 l 1,64,-1
 896 1176 l 2,65,66
 900 1192 900 1192 915.5 1200.5 c 128,-1,67
 931 1209 931 1209 950 1209 c 0,68,69
 978 1209 978 1209 1000 1194 c 128,-1,70
 1022 1179 1022 1179 1022 1155 c 0,71,72
 1022 1152 1022 1152 1020 1142 c 2,73,-1
 948 865 l 1,74,-1
 1105 865 l 2,75,0
 1139 865 1139 865 1153.5 848.5 c 128,-1,1
714 476 m 1,76,-1
 778 721 l 1,77,-1
 517 721 l 1,78,-1
 453 476 l 1,79,-1
 714 476 l 1,76,-1
EndSplineSet
Validated: 1
EndChar

StartChar: dollar
Encoding: 36 36 7
Width: 1228
GlyphClass: 1
Flags: W
LayerCount: 2
Fore
SplineSet
661.5 1296.5 m 128,-1,1
 678 1281 678 1281 678 1247 c 2,2,-1
 678 1073 l 1,3,4
 773 1049 773 1049 854 976 c 1,5,-1
 854 1021 l 2,6,7
 854 1056 854 1056 871 1071 c 128,-1,8
 888 1086 888 1086 929 1086 c 256,9,10
 970 1086 970 1086 987 1071 c 128,-1,11
 1004 1056 1004 1056 1004 1021 c 2,12,-1
 1004 831 l 2,13,14
 1004 796 1004 796 987 781 c 128,-1,15
 970 766 970 766 929 766 c 0,16,17
 895 766 895 766 881 792 c 0,18,19
 821 908 821 908 678 935 c 1,20,-1
 678 688 l 1,21,22
 805 674 805 674 881 646 c 0,23,24
 961 617 961 617 1005.5 562 c 128,-1,25
 1050 507 1050 507 1050 417 c 0,26,27
 1050 329 1050 329 1006.5 262.5 c 128,-1,28
 963 196 963 196 879.5 158 c 128,-1,29
 796 120 796 120 678 118 c 1,30,-1
 678 -60 l 2,31,32
 678 -94 678 -94 661.5 -109.5 c 128,-1,33
 645 -125 645 -125 608 -125 c 256,34,35
 571 -125 571 -125 554.5 -109.5 c 128,-1,36
 538 -94 538 -94 538 -60 c 2,37,-1
 538 129 l 1,38,39
 414 154 414 154 329 239 c 1,40,-1
 329 183 l 2,41,42
 329 148 329 148 312 133 c 128,-1,43
 295 118 295 118 254 118 c 256,44,45
 213 118 213 118 196 133 c 128,-1,46
 179 148 179 148 179 183 c 2,47,-1
 179 423 l 2,48,49
 179 458 179 458 196 473 c 128,-1,50
 213 488 213 488 254 488 c 0,51,52
 275 488 275 488 287 478.5 c 128,-1,53
 299 469 299 469 308 447 c 0,54,55
 336 372 336 372 392.5 329 c 128,-1,56
 449 286 449 286 538 271 c 1,57,-1
 538 550 l 1,58,59
 408 566 408 566 338 595 c 0,60,61
 265 624 265 624 224.5 675.5 c 128,-1,62
 184 727 184 727 184 810 c 0,63,64
 184 897 184 897 229.5 959.5 c 128,-1,65
 275 1022 275 1022 355.5 1054 c 128,-1,66
 436 1086 436 1086 538 1086 c 1,67,-1
 538 1247 l 2,68,69
 538 1281 538 1281 554.5 1296.5 c 128,-1,70
 571 1312 571 1312 608 1312 c 256,71,0
 645 1312 645 1312 661.5 1296.5 c 128,-1,1
393.5 904.5 m 128,-1,73
 342 870 342 870 342 810 c 0,74,75
 342 778 342 778 362.5 758 c 128,-1,76
 383 738 383 738 423 725 c 0,77,78
 458 713 458 713 538 702 c 1,79,-1
 538 941 l 1,80,72
 445 939 445 939 393.5 904.5 c 128,-1,73
837 309.5 m 128,-1,82
 892 351 892 351 892 417 c 0,83,84
 892 451 892 451 870 473 c 128,-1,85
 848 495 848 495 807 509 c 0,86,87
 763 524 763 524 678 534 c 1,88,-1
 678 263 l 1,89,81
 782 268 782 268 837 309.5 c 128,-1,82
EndSplineSet
Validated: 1
EndChar

StartChar: percent
Encoding: 37 37 8
Width: 1228
GlyphClass: 1
Flags: W
LayerCount: 2
Fore
SplineSet
461 1172 m 128,-1,1
 524 1135 524 1135 561 1072 c 128,-1,2
 598 1009 598 1009 598 935 c 256,3,4
 598 861 598 861 561 798 c 128,-1,5
 524 735 524 735 461 698 c 128,-1,6
 398 661 398 661 324 661 c 256,7,8
 250 661 250 661 187 698 c 128,-1,9
 124 735 124 735 87 798 c 128,-1,10
 50 861 50 861 50 935 c 256,11,12
 50 1009 50 1009 87 1072 c 128,-1,13
 124 1135 124 1135 187 1172 c 128,-1,14
 250 1209 250 1209 324 1209 c 256,15,0
 398 1209 398 1209 461 1172 c 128,-1,1
1048 1081 m 0,17,18
 1074 1081 1074 1081 1098 1054 c 0,19,20
 1123 1027 1123 1027 1123 1005 c 0,21,22
 1123 982 1123 982 1099 959 c 2,23,-1
 225 129 l 2,24,25
 203 107 203 107 180 107 c 0,26,27
 154 107 154 107 130 134 c 0,28,29
 105 161 105 161 105 183 c 0,30,31
 105 207 105 207 129 229 c 2,32,-1
 1003 1059 l 2,33,16
 1025 1081 1025 1081 1048 1081 c 0,17,18
252 1059.5 m 128,-1,35
 219 1040 219 1040 199.5 1007 c 128,-1,36
 180 974 180 974 180 935 c 256,37,38
 180 896 180 896 199.5 863 c 128,-1,39
 219 830 219 830 252 810.5 c 128,-1,40
 285 791 285 791 324 791 c 256,41,42
 363 791 363 791 396 810.5 c 128,-1,43
 429 830 429 830 448.5 863 c 128,-1,44
 468 896 468 896 468 935 c 256,45,46
 468 974 468 974 448.5 1007 c 128,-1,47
 429 1040 429 1040 396 1059.5 c 128,-1,48
 363 1079 363 1079 324 1079 c 256,49,34
 285 1079 285 1079 252 1059.5 c 128,-1,35
1041 489 m 128,-1,51
 1104 452 1104 452 1141 389 c 128,-1,52
 1178 326 1178 326 1178 252 c 256,53,54
 1178 178 1178 178 1141 115 c 128,-1,55
 1104 52 1104 52 1041 15 c 128,-1,56
 978 -22 978 -22 904 -22 c 256,57,58
 830 -22 830 -22 767 15 c 128,-1,59
 704 52 704 52 667 115 c 128,-1,60
 630 178 630 178 630 252 c 256,61,62
 630 326 630 326 667 389 c 128,-1,63
 704 452 704 452 767 489 c 128,-1,64
 830 526 830 526 904 526 c 256,65,50
 978 526 978 526 1041 489 c 128,-1,51
832 376.5 m 128,-1,67
 799 357 799 357 779.5 324 c 128,-1,68
 760 291 760 291 760 252 c 256,69,70
 760 213 760 213 779.5 180 c 128,-1,71
 799 147 799 147 832 127.5 c 128,-1,72
 865 108 865 108 904 108 c 256,73,74
 943 108 943 108 976 127.5 c 128,-1,75
 1009 147 1009 147 1028.5 180 c 128,-1,76
 1048 213 1048 213 1048 252 c 256,77,78
 1048 291 1048 291 1028.5 324 c 128,-1,79
 1009 357 1009 357 976 376.5 c 128,-1,80
 943 396 943 396 904 396 c 256,81,66
 865 396 865 396 832 376.5 c 128,-1,67
EndSplineSet
Validated: 1
EndChar

StartChar: ampersand
Encoding: 38 38 9
Width: 1228
GlyphClass: 1
Flags: W
LayerCount: 2
Fore
SplineSet
891 1105 m 0,1,2
 912 1090 912 1090 912 1051 c 2,3,-1
 912 924 l 2,4,5
 912 889 912 889 895 874 c 128,-1,6
 878 859 878 859 837 859 c 256,7,8
 796 859 796 859 779 874 c 128,-1,9
 762 889 762 889 762 924 c 2,10,-1
 762 1014 l 1,11,12
 686 1061 686 1061 577 1061 c 0,13,14
 522 1061 522 1061 481.5 1038 c 128,-1,15
 441 1015 441 1015 420 976 c 128,-1,16
 399 937 399 937 399 890 c 0,17,18
 399 838 399 838 419.5 793.5 c 128,-1,19
 440 749 440 749 482 702 c 2,20,-1
 775 372 l 1,21,22
 815 460 815 460 847 569 c 0,23,24
 859 611 859 611 899 611 c 2,25,-1
 1056 611 l 2,26,27
 1090 611 1090 611 1104.5 595.5 c 128,-1,28
 1119 580 1119 580 1119 543 c 256,29,30
 1119 506 1119 506 1104.5 490.5 c 128,-1,31
 1090 475 1090 475 1056 475 c 2,32,-1
 963 475 l 1,33,34
 927 353 927 353 877 258 c 1,35,-1
 986 136 l 1,36,-1
 1070 136 l 2,37,38
 1104 136 1104 136 1118.5 120.5 c 128,-1,39
 1133 105 1133 105 1133 68 c 256,40,41
 1133 31 1133 31 1118.5 15.5 c 128,-1,42
 1104 0 1104 0 1070 0 c 2,43,-1
 956 0 l 2,44,45
 908 0 908 0 878 33 c 2,46,-1
 791 130 l 1,47,48
 660 -22 660 -22 486 -22 c 0,49,50
 381 -22 381 -22 304.5 23 c 128,-1,51
 228 68 228 68 187.5 143.5 c 128,-1,52
 147 219 147 219 147 310 c 0,53,54
 147 411 147 411 198 490 c 128,-1,55
 249 569 249 569 342 634 c 1,56,57
 243 750 243 750 243 890 c 0,58,59
 243 979 243 979 284.5 1052 c 128,-1,60
 326 1125 326 1125 402 1167 c 128,-1,61
 478 1209 478 1209 578 1209 c 0,62,0
 740 1209 740 1209 891 1105 c 0,1,2
335.5 430.5 m 128,-1,64
 305 377 305 377 305 310 c 0,65,66
 305 258 305 258 328 216 c 128,-1,67
 351 174 351 174 392 150 c 128,-1,68
 433 126 433 126 486 126 c 0,69,70
 604 126 604 126 695 238 c 1,71,-1
 434 532 l 1,72,63
 366 484 366 484 335.5 430.5 c 128,-1,64
EndSplineSet
Validated: 1
EndChar

StartChar: quotesingle
Encoding: 39 39 10
Width: 1228
GlyphClass: 1
Flags: W
LayerCount: 2
Fore
SplineSet
737 1219 m 6,1,-1
 682 769 l 6,2,3
 679 743 679 743 661.5 729 c 132,-1,4
 644 715 644 715 614 715 c 4,5,6
 585 715 585 715 567 729 c 132,-1,7
 549 743 549 743 546 769 c 6,8,-1
 491 1219 l 6,9,10
 490 1225 490 1225 490 1230 c 4,11,12
 493 1269 493 1269 532 1269 c 6,13,-1
 696 1269 l 6,14,15
 735 1269 735 1269 738 1230 c 4,16,0
 738 1225 738 1225 737 1219 c 6,1,-1
EndSplineSet
Validated: 1
EndChar

StartChar: parenleft
Encoding: 40 40 11
Width: 1228
GlyphClass: 1
Flags: W
LayerCount: 2
Fore
SplineSet
792 1381 m 0,1,2
 808 1381 808 1381 822.5 1370 c 128,-1,3
 837 1359 837 1359 848 1341 c 0,4,5
 865 1312 865 1312 865 1287 c 0,6,7
 865 1267 865 1267 852 1258 c 0,8,9
 679 1144 679 1144 562 958 c 128,-1,10
 445 772 445 772 445 517 c 256,11,12
 445 262 445 262 561.5 78 c 128,-1,13
 678 -106 678 -106 852 -220 c 0,14,15
 865 -229 865 -229 865 -249 c 0,16,17
 865 -274 865 -274 848 -303 c 0,18,19
 837 -321 837 -321 822.5 -332 c 128,-1,20
 808 -343 808 -343 792 -343 c 0,21,22
 782 -343 782 -343 771 -337 c 0,23,24
 649 -264 649 -264 541.5 -142.5 c 128,-1,25
 434 -21 434 -21 365.5 148 c 128,-1,26
 297 317 297 317 297 517 c 256,27,28
 297 717 297 717 365.5 887 c 128,-1,29
 434 1057 434 1057 542 1179.5 c 128,-1,30
 650 1302 650 1302 771 1375 c 0,31,0
 782 1381 782 1381 792 1381 c 0,1,2
EndSplineSet
Validated: 1
Substitution2: "'rtla' Right to Left Alternates lookup 0 subtable" parenright
EndChar

StartChar: parenright
Encoding: 41 41 12
Width: 1228
GlyphClass: 1
Flags: W
LayerCount: 2
Fore
SplineSet
686 1179.5 m 128,-1,1
 794 1057 794 1057 862.5 887 c 128,-1,2
 931 717 931 717 931 517 c 256,3,4
 931 317 931 317 862.5 148 c 128,-1,5
 794 -21 794 -21 686.5 -142.5 c 128,-1,6
 579 -264 579 -264 457 -337 c 0,7,8
 446 -343 446 -343 436 -343 c 0,9,10
 420 -343 420 -343 405.5 -332 c 128,-1,11
 391 -321 391 -321 380 -303 c 0,12,13
 363 -274 363 -274 363 -249 c 0,14,15
 363 -229 363 -229 376 -220 c 0,16,17
 550 -106 550 -106 666.5 78 c 128,-1,18
 783 262 783 262 783 517 c 256,19,20
 783 772 783 772 666 958 c 128,-1,21
 549 1144 549 1144 376 1258 c 0,22,23
 363 1267 363 1267 363 1287 c 0,24,25
 363 1312 363 1312 380 1341 c 0,26,27
 391 1359 391 1359 405.5 1370 c 128,-1,28
 420 1381 420 1381 436 1381 c 0,29,30
 446 1381 446 1381 457 1375 c 0,31,0
 578 1302 578 1302 686 1179.5 c 128,-1,1
EndSplineSet
Validated: 1
Substitution2: "'rtla' Right to Left Alternates lookup 0 subtable" parenleft
EndChar

StartChar: asterisk
Encoding: 42 42 13
Width: 1228
GlyphClass: 1
Flags: W
LayerCount: 2
Fore
SplineSet
682 983 m 0,0,1
 700.375 963.75 700.375 963.75 700.375 927.65625 c 0,2,3
 700.375 922.5 700.375 922.5 700 917 c 2,4,-1
 682 659 l 1,5,-1
 920 758 l 2,6,7
 944 768 944 768 960 768 c 0,8,9
 984 768 984 768 1002.5 751.5 c 128,-1,10
 1021 735 1021 735 1031 704 c 0,11,12
 1037 685 1037 685 1037 667 c 0,13,14
 1037 639 1037 639 1020 620 c 0,15,16
 1005 604 1005 604 971 595 c 2,17,-1
 722 532 l 1,18,-1
 889 334 l 2,19,20
 914 304 914 304 914 280 c 0,21,22
 914 243 914 243 872 213 c 0,23,24
 842 192 842 192 816 192 c 0,25,26
 778 192 778 192 749 238 c 2,27,-1
 613 454 l 1,28,-1
 479 238 l 2,29,30
 450 192 450 192 412 192 c 0,31,32
 386 192 386 192 356 213 c 0,33,34
 314 243 314 243 314 280 c 0,35,36
 314 303 314 303 339 334 c 2,37,-1
 501 532 l 1,38,-1
 257 595 l 2,39,40
 222 604 222 604 208 620 c 0,41,42
 191 639 191 639 191 667 c 0,43,44
 191 685 191 685 197 704 c 0,45,46
 207 735 207 735 225.5 751.5 c 128,-1,47
 244 768 244 768 268 768 c 0,48,49
 284 768 284 768 308 758 c 2,50,-1
 544 659 l 1,51,-1
 528 917 l 2,52,53
 527 928 527 928 527 932 c 0,54,55
 527 967 527 967 549.5 987 c 128,-1,56
 572 1007 572 1007 614 1007 c 0,57,58
 660 1007 660 1007 682 983 c 0,0,1
EndSplineSet
Validated: 524289
EndChar

StartChar: plus
Encoding: 43 43 14
Width: 1228
GlyphClass: 1
Flags: W
LayerCount: 2
Fore
SplineSet
666.5 1011.5 m 128,-1,1
 682 997 682 997 682 963 c 2,2,-1
 682 650 l 1,3,-1
 995 650 l 2,4,5
 1029 650 1029 650 1043.5 634.5 c 128,-1,6
 1058 619 1058 619 1058 582 c 256,7,8
 1058 545 1058 545 1043.5 529.5 c 128,-1,9
 1029 514 1029 514 995 514 c 2,10,-1
 682 514 l 1,11,-1
 682 201 l 2,12,13
 682 167 682 167 666.5 152.5 c 128,-1,14
 651 138 651 138 614 138 c 256,15,16
 577 138 577 138 561.5 152.5 c 128,-1,17
 546 167 546 167 546 201 c 2,18,-1
 546 514 l 1,19,-1
 233 514 l 2,20,21
 199 514 199 514 184.5 529.5 c 128,-1,22
 170 545 170 545 170 582 c 256,23,24
 170 619 170 619 184.5 634.5 c 128,-1,25
 199 650 199 650 233 650 c 2,26,-1
 546 650 l 1,27,-1
 546 963 l 2,28,29
 546 997 546 997 561.5 1011.5 c 128,-1,30
 577 1026 577 1026 614 1026 c 256,31,0
 651 1026 651 1026 666.5 1011.5 c 128,-1,1
EndSplineSet
Validated: 1
EndChar

StartChar: comma
Encoding: 44 44 15
Width: 1228
GlyphClass: 1
Flags: W
LayerCount: 2
Fore
SplineSet
740 284.5 m 128,-1,1
 749 275 749 275 749 260 c 0,2,3
 749 246 749 246 742 231 c 2,4,-1
 530 -253 l 2,5,6
 512 -294 512 -294 444 -294 c 0,7,8
 372 -294 372 -294 372 -244 c 0,9,10
 372 -240 372 -240 374 -228 c 2,11,-1
 468 254 l 2,12,13
 472 273 472 273 485.5 283.5 c 128,-1,14
 499 294 499 294 520 294 c 2,15,-1
 714 294 l 2,16,0
 731 294 731 294 740 284.5 c 128,-1,1
EndSplineSet
Validated: 1
EndChar

StartChar: hyphen
Encoding: 45 45 16
Width: 1228
GlyphClass: 1
Flags: W
LayerCount: 2
Fore
SplineSet
1043.5 634.5 m 132,-1,1
 1058 619 1058 619 1058 582 c 260,2,3
 1058 545 1058 545 1043.5 529.5 c 132,-1,4
 1029 514 1029 514 995 514 c 6,5,-1
 233 514 l 6,6,7
 199 514 199 514 184.5 529.5 c 132,-1,8
 170 545 170 545 170 582 c 260,9,10
 170 619 170 619 184.5 634.5 c 132,-1,11
 199 650 199 650 233 650 c 6,12,-1
 995 650 l 6,13,0
 1029 650 1029 650 1043.5 634.5 c 132,-1,1
EndSplineSet
Validated: 1
EndChar

StartChar: period
Encoding: 46 46 17
Width: 1228
GlyphClass: 1
Flags: W
LayerCount: 2
Fore
SplineSet
717.5 285.5 m 128,-1,1
 749 271 749 271 749 237 c 2,2,-1
 749 53 l 2,3,4
 749 19 749 19 717.5 4.5 c 128,-1,5
 686 -10 686 -10 614 -10 c 256,6,7
 542 -10 542 -10 510.5 4.5 c 128,-1,8
 479 19 479 19 479 53 c 2,9,-1
 479 237 l 2,10,11
 479 271 479 271 510.5 285.5 c 128,-1,12
 542 300 542 300 614 300 c 256,13,0
 686 300 686 300 717.5 285.5 c 128,-1,1
EndSplineSet
Validated: 1
EndChar

StartChar: slash
Encoding: 47 47 18
Width: 1228
GlyphClass: 1
Flags: W
LayerCount: 2
Fore
SplineSet
1004 1379 m 132,-1,1
 1030 1364 1030 1364 1030 1341 c 4,2,3
 1030 1333 1030 1333 1027 1324 c 6,4,-1
 355 -319 l 6,5,6
 348 -335 348 -335 330.5 -345 c 132,-1,7
 313 -355 313 -355 290 -355 c 4,8,9
 250 -355 250 -355 224 -340 c 132,-1,10
 198 -325 198 -325 198 -302 c 4,11,12
 198 -294 198 -294 201 -285 c 6,13,-1
 873 1358 l 6,14,15
 880 1374 880 1374 897.5 1384 c 132,-1,16
 915 1394 915 1394 938 1394 c 4,17,0
 978 1394 978 1394 1004 1379 c 132,-1,1
EndSplineSet
Validated: 1
EndChar

StartChar: zero
Encoding: 48 48 19
Width: 1228
GlyphClass: 1
Flags: W
LayerCount: 2
Fore
SplineSet
838.5 1132.5 m 128,-1,1
 935 1056 935 1056 987.5 916.5 c 128,-1,2
 1040 777 1040 777 1040 593 c 256,3,4
 1040 409 1040 409 987.5 270 c 128,-1,5
 935 131 935 131 839 54.5 c 128,-1,6
 743 -22 743 -22 614 -22 c 256,7,8
 485 -22 485 -22 389 54.5 c 128,-1,9
 293 131 293 131 240.5 270 c 128,-1,10
 188 409 188 409 188 593 c 256,11,12
 188 777 188 777 240.5 916.5 c 128,-1,13
 293 1056 293 1056 389.5 1132.5 c 128,-1,14
 486 1209 486 1209 614 1209 c 256,15,0
 742 1209 742 1209 838.5 1132.5 c 128,-1,1
474.5 1005.5 m 128,-1,17
 414 950 414 950 380 844.5 c 128,-1,18
 346 739 346 739 346 593 c 256,19,20
 346 447 346 447 380 341.5 c 128,-1,21
 414 236 414 236 474.5 181 c 128,-1,22
 535 126 535 126 614 126 c 256,23,24
 693 126 693 126 753.5 181 c 128,-1,25
 814 236 814 236 848 341.5 c 128,-1,26
 882 447 882 447 882 593 c 256,27,28
 882 739 882 739 848 844.5 c 128,-1,29
 814 950 814 950 753.5 1005.5 c 128,-1,30
 693 1061 693 1061 614 1061 c 256,31,16
 535 1061 535 1061 474.5 1005.5 c 128,-1,17
EndSplineSet
Validated: 1
EndChar

StartChar: one
Encoding: 49 49 20
Width: 1228
GlyphClass: 1
Flags: W
LayerCount: 2
Fore
SplineSet
1022.5 120.5 m 128,-1,1
 1037 105 1037 105 1037 68 c 256,2,3
 1037 31 1037 31 1022.5 15.5 c 128,-1,4
 1008 0 1008 0 974 0 c 2,5,-1
 300 0 l 2,6,7
 266 0 266 0 251.5 15.5 c 128,-1,8
 237 31 237 31 237 68 c 256,9,10
 237 105 237 105 251.5 120.5 c 128,-1,11
 266 136 266 136 300 136 c 2,12,-1
 569 136 l 1,13,-1
 569 994 l 1,14,-1
 320 839 l 2,15,16
 303 829 303 829 289 829 c 0,17,18
 257 829 257 829 234 870 c 0,19,20
 220 894 220 894 220 916 c 0,21,22
 220 950 220 950 251 968 c 2,23,-1
 628 1200 l 2,24,25
 648 1212 648 1212 668 1212 c 0,26,27
 690 1212 690 1212 704.5 1197.5 c 128,-1,28
 719 1183 719 1183 719 1157 c 2,29,-1
 719 136 l 1,30,-1
 974 136 l 2,31,0
 1008 136 1008 136 1022.5 120.5 c 128,-1,1
EndSplineSet
Validated: 1
Substitution2: "<10,1> Superiors lookup 1 subtable" uni00B9
EndChar

StartChar: two
Encoding: 50 50 21
Width: 1228
GlyphClass: 1
Flags: W
LayerCount: 2
Fore
SplineSet
783.5 1167.5 m 128,-1,1
 871 1126 871 1126 919 1047 c 128,-1,2
 967 968 967 968 967 859 c 0,3,4
 967 757 967 757 916.5 671.5 c 128,-1,5
 866 586 866 586 759 477 c 2,6,-1
 423 136 l 1,7,-1
 857 136 l 1,8,-1
 857 262 l 2,9,10
 857 297 857 297 874 312 c 128,-1,11
 891 327 891 327 932 327 c 256,12,13
 973 327 973 327 990 312 c 128,-1,14
 1007 297 1007 297 1007 262 c 2,15,-1
 1007 68 l 2,16,17
 1007 31 1007 31 992.5 15.5 c 128,-1,18
 978 0 978 0 944 0 c 2,19,-1
 250 0 l 2,20,21
 216 0 216 0 201.5 15.5 c 128,-1,22
 187 31 187 31 187 68 c 0,23,24
 187 106 187 106 202 122 c 2,25,-1
 642 568 l 2,26,27
 734 662 734 662 771.5 724.5 c 128,-1,28
 809 787 809 787 809 859 c 0,29,30
 809 952 809 952 749.5 1006.5 c 128,-1,31
 690 1061 690 1061 581 1061 c 0,32,33
 471 1061 471 1061 374 1005 c 1,34,-1
 374 895 l 2,35,36
 374 860 374 860 357 845 c 128,-1,37
 340 830 340 830 299 830 c 256,38,39
 258 830 258 830 241 845 c 128,-1,40
 224 860 224 860 224 895 c 2,41,-1
 224 1042 l 2,42,43
 224 1081 224 1081 247 1097 c 0,44,45
 320 1150 320 1150 405 1179.5 c 128,-1,46
 490 1209 490 1209 580 1209 c 0,47,0
 696 1209 696 1209 783.5 1167.5 c 128,-1,1
EndSplineSet
Validated: 1
Substitution2: "<10,1> Superiors lookup 1 subtable" uni00B2
EndChar

StartChar: three
Encoding: 51 51 22
Width: 1228
GlyphClass: 1
Flags: W
LayerCount: 2
Fore
SplineSet
791 1168.5 m 128,-1,1
 877 1128 877 1128 924 1053.5 c 128,-1,2
 971 979 971 979 971 879 c 0,3,4
 971 793 971 793 931 730.5 c 128,-1,5
 891 668 891 668 818 631 c 1,6,7
 909 593 909 593 959.5 520 c 128,-1,8
 1010 447 1010 447 1010 345 c 0,9,10
 1010 236 1010 236 961.5 153 c 128,-1,11
 913 70 913 70 820 24 c 128,-1,12
 727 -22 727 -22 598 -22 c 0,13,14
 500 -22 500 -22 400 12 c 128,-1,15
 300 46 300 46 221 104 c 0,16,17
 191 126 191 126 191 154 c 0,18,19
 191 174 191 174 208 203 c 0,20,21
 234 245 234 245 266 245 c 0,22,23
 282 245 282 245 300 232 c 0,24,25
 366 183 366 183 443 154.5 c 128,-1,26
 520 126 520 126 598 126 c 0,27,28
 722 126 722 126 787 184.5 c 128,-1,29
 852 243 852 243 852 345 c 0,30,31
 852 448 852 448 786.5 501.5 c 128,-1,32
 721 555 721 555 603 555 c 2,33,-1
 530 555 l 2,34,35
 496 555 496 555 481.5 570.5 c 128,-1,36
 467 586 467 586 467 623 c 256,37,38
 467 660 467 660 481.5 675.5 c 128,-1,39
 496 691 496 691 530 691 c 2,40,-1
 585 691 l 2,41,42
 699 691 699 691 758 739 c 128,-1,43
 817 787 817 787 817 879 c 0,44,45
 817 964 817 964 758 1012.5 c 128,-1,46
 699 1061 699 1061 591 1061 c 0,47,48
 475 1061 475 1061 394 1022 c 1,49,-1
 394 955 l 2,50,51
 394 920 394 920 377 905 c 128,-1,52
 360 890 360 890 319 890 c 256,53,54
 278 890 278 890 261 905 c 128,-1,55
 244 920 244 920 244 955 c 2,56,-1
 244 1064 l 2,57,58
 244 1086 244 1086 250.5 1099 c 128,-1,59
 257 1112 257 1112 271 1121 c 0,60,61
 414 1209 414 1209 590 1209 c 0,62,0
 705 1209 705 1209 791 1168.5 c 128,-1,1
EndSplineSet
Validated: 1
Substitution2: "<10,1> Superiors lookup 1 subtable" uni00B3
EndChar

StartChar: four
Encoding: 52 52 23
Width: 1228
GlyphClass: 1
Flags: W
LayerCount: 2
Fore
SplineSet
838 1131 m 2,1,-1
 838 496 l 1,2,-1
 1000 496 l 2,3,4
 1034 496 1034 496 1048.5 480.5 c 128,-1,5
 1063 465 1063 465 1063 428 c 256,6,7
 1063 391 1063 391 1048.5 375.5 c 128,-1,8
 1034 360 1034 360 1000 360 c 2,9,-1
 838 360 l 1,10,-1
 838 136 l 1,11,-1
 970 136 l 2,12,13
 1004 136 1004 136 1018.5 120.5 c 128,-1,14
 1033 105 1033 105 1033 68 c 256,15,16
 1033 31 1033 31 1018.5 15.5 c 128,-1,17
 1004 0 1004 0 970 0 c 2,18,-1
 540 0 l 2,19,20
 506 0 506 0 491.5 15.5 c 128,-1,21
 477 31 477 31 477 68 c 256,22,23
 477 105 477 105 491.5 120.5 c 128,-1,24
 506 136 506 136 540 136 c 2,25,-1
 688 136 l 1,26,-1
 688 360 l 1,27,-1
 210 360 l 2,28,29
 176 360 176 360 161.5 375.5 c 128,-1,30
 147 391 147 391 147 428 c 0,31,32
 147 461 147 461 157 475 c 2,33,-1
 641 1148 l 2,34,35
 663 1179 663 1179 688 1194 c 128,-1,36
 713 1209 713 1209 751 1209 c 0,37,0
 838 1209 838 1209 838 1131 c 2,1,-1
346 496 m 1,38,-1
 688 496 l 1,39,-1
 696 992 l 1,40,-1
 346 496 l 1,38,-1
EndSplineSet
Validated: 1
Substitution2: "<10,1> Superiors lookup 1 subtable" uni2074
EndChar

StartChar: five
Encoding: 53 53 24
Width: 1228
GlyphClass: 1
Flags: W
LayerCount: 2
Fore
SplineSet
933.5 1171.5 m 128,-1,1
 948 1156 948 1156 948 1119 c 256,2,3
 948 1082 948 1082 933.5 1066.5 c 128,-1,4
 919 1051 919 1051 885 1051 c 2,5,-1
 419 1051 l 1,6,-1
 406 730 l 1,7,8
 506 786 506 786 621 786 c 0,9,10
 741 786 741 786 829 735 c 128,-1,11
 917 684 917 684 963.5 593.5 c 128,-1,12
 1010 503 1010 503 1010 386 c 256,13,14
 1010 269 1010 269 958 176.5 c 128,-1,15
 906 84 906 84 810 31 c 128,-1,16
 714 -22 714 -22 588 -22 c 0,17,18
 492 -22 492 -22 395 10 c 128,-1,19
 298 42 298 42 219 97 c 0,20,21
 188 118 188 118 188 148 c 0,22,23
 188 170 188 170 204 196 c 0,24,25
 230 239 230 239 262 239 c 0,26,27
 278 239 278 239 296 226 c 0,28,29
 361 180 361 180 437 153 c 128,-1,30
 513 126 513 126 588 126 c 0,31,32
 669 126 669 126 729 158.5 c 128,-1,33
 789 191 789 191 820.5 249.5 c 128,-1,34
 852 308 852 308 852 386 c 0,35,36
 852 460 852 460 822.5 517 c 128,-1,37
 793 574 793 574 737.5 606 c 128,-1,38
 682 638 682 638 608 638 c 0,39,40
 540 638 540 638 486 620.5 c 128,-1,41
 432 603 432 603 381 567 c 0,42,43
 365 557 365 557 331 557 c 0,44,45
 289 557 289 557 271.5 572 c 128,-1,46
 254 587 254 587 256 622 c 2,47,-1
 276 1122 l 2,48,49
 278 1157 278 1157 294 1172 c 128,-1,50
 310 1187 310 1187 351 1187 c 2,51,-1
 885 1187 l 2,52,0
 919 1187 919 1187 933.5 1171.5 c 128,-1,1
EndSplineSet
Validated: 1
EndChar

StartChar: six
Encoding: 54 54 25
Width: 1228
GlyphClass: 1
Flags: W
LayerCount: 2
Fore
SplineSet
959.5 1191 m 128,-1,1
 975 1172 975 1172 975 1121 c 0,2,3
 975 1090 975 1090 965.5 1076.5 c 128,-1,4
 956 1063 956 1063 938 1062 c 0,5,6
 672 1048 672 1048 529 924.5 c 128,-1,7
 386 801 386 801 358 589 c 1,8,9
 410 657 410 657 486 694 c 128,-1,10
 562 731 562 731 648 731 c 0,11,12
 758 731 758 731 846.5 684 c 128,-1,13
 935 637 935 637 985.5 551 c 128,-1,14
 1036 465 1036 465 1036 353 c 0,15,16
 1036 245 1036 245 985 159.5 c 128,-1,17
 934 74 934 74 840.5 26 c 128,-1,18
 747 -22 747 -22 626 -22 c 0,19,20
 517 -22 517 -22 425.5 28 c 128,-1,21
 334 78 334 78 278 173 c 0,22,23
 201 305 201 305 201 512 c 0,24,25
 201 685 201 685 274.5 839 c 128,-1,26
 348 993 348 993 508.5 1095.5 c 128,-1,27
 669 1198 669 1198 917 1209 c 0,28,0
 944 1210 944 1210 959.5 1191 c 128,-1,1
495 555.5 m 128,-1,30
 437 528 437 528 404.5 479.5 c 128,-1,31
 372 431 372 431 372 368 c 0,32,33
 372 298 372 298 403.5 243 c 128,-1,34
 435 188 435 188 492.5 157 c 128,-1,35
 550 126 550 126 626 126 c 256,36,37
 702 126 702 126 759 154 c 128,-1,38
 816 182 816 182 847 233.5 c 128,-1,39
 878 285 878 285 878 353 c 0,40,41
 878 422 878 422 847.5 474 c 128,-1,42
 817 526 817 526 760.5 554.5 c 128,-1,43
 704 583 704 583 626 583 c 0,44,29
 553 583 553 583 495 555.5 c 128,-1,30
EndSplineSet
Validated: 1
EndChar

StartChar: seven
Encoding: 55 55 26
Width: 1228
GlyphClass: 1
Flags: W
LayerCount: 2
Fore
SplineSet
1014.5 1171.5 m 128,-1,1
 1029 1156 1029 1156 1029 1119 c 0,2,3
 1029 1095 1029 1095 1023 1079 c 2,4,-1
 597 24 l 2,5,6
 588 1 588 1 568.5 -10.5 c 128,-1,7
 549 -22 549 -22 522 -22 c 0,8,9
 486 -22 486 -22 463.5 -7.5 c 128,-1,10
 441 7 441 7 441 31 c 0,11,12
 441 45 441 45 446 56 c 2,13,-1
 853 1051 l 1,14,-1
 379 1051 l 1,15,-1
 379 905 l 2,16,17
 379 870 379 870 362 855 c 128,-1,18
 345 840 345 840 304 840 c 256,19,20
 263 840 263 840 246 855 c 128,-1,21
 229 870 229 870 229 905 c 2,22,-1
 229 1119 l 2,23,24
 229 1156 229 1156 243.5 1171.5 c 128,-1,25
 258 1187 258 1187 292 1187 c 2,26,-1
 966 1187 l 2,27,0
 1000 1187 1000 1187 1014.5 1171.5 c 128,-1,1
EndSplineSet
Validated: 1
EndChar

StartChar: eight
Encoding: 56 56 27
Width: 1228
GlyphClass: 1
Flags: W
LayerCount: 2
Fore
SplineSet
802.5 1165.5 m 128,-1,1
 887 1122 887 1122 935 1046 c 128,-1,2
 983 970 983 970 983 879 c 0,3,4
 983 798 983 798 937 734 c 128,-1,5
 891 670 891 670 817 630 c 1,6,7
 910 588 910 588 966 513 c 128,-1,8
 1022 438 1022 438 1022 340 c 0,9,10
 1022 237 1022 237 969 154.5 c 128,-1,11
 916 72 916 72 823 25 c 128,-1,12
 730 -22 730 -22 614 -22 c 256,13,14
 498 -22 498 -22 405 25 c 128,-1,15
 312 72 312 72 259 154.5 c 128,-1,16
 206 237 206 237 206 340 c 0,17,18
 206 438 206 438 262 513 c 128,-1,19
 318 588 318 588 410 630 c 1,20,21
 336 670 336 670 290.5 734 c 128,-1,22
 245 798 245 798 245 879 c 0,23,24
 245 970 245 970 293 1046 c 128,-1,25
 341 1122 341 1122 425.5 1165.5 c 128,-1,26
 510 1209 510 1209 614 1209 c 256,27,0
 718 1209 718 1209 802.5 1165.5 c 128,-1,1
503.5 1038.5 m 128,-1,29
 455 1016 455 1016 427 974 c 128,-1,30
 399 932 399 932 399 876 c 0,31,32
 399 825 399 825 427 783 c 128,-1,33
 455 741 455 741 504.5 717 c 128,-1,34
 554 693 554 693 614 693 c 256,35,36
 674 693 674 693 723.5 717 c 128,-1,37
 773 741 773 741 801 783 c 128,-1,38
 829 825 829 825 829 876 c 0,39,40
 829 932 829 932 801 974 c 128,-1,41
 773 1016 773 1016 724.5 1038.5 c 128,-1,42
 676 1061 676 1061 614 1061 c 256,43,28
 552 1061 552 1061 503.5 1038.5 c 128,-1,29
485 527 m 128,-1,45
 429 500 429 500 397.5 451.5 c 128,-1,46
 366 403 366 403 366 341 c 256,47,48
 366 279 366 279 397.5 230 c 128,-1,49
 429 181 429 181 485 153.5 c 128,-1,50
 541 126 541 126 614 126 c 256,51,52
 687 126 687 126 743 153.5 c 128,-1,53
 799 181 799 181 830.5 230 c 128,-1,54
 862 279 862 279 862 341 c 256,55,56
 862 403 862 403 830.5 451.5 c 128,-1,57
 799 500 799 500 743 527 c 128,-1,58
 687 554 687 554 614 554 c 256,59,44
 541 554 541 554 485 527 c 128,-1,45
EndSplineSet
Validated: 1
EndChar

StartChar: nine
Encoding: 57 57 28
Width: 1228
GlyphClass: 1
Flags: W
LayerCount: 2
Fore
SplineSet
802.5 1159 m 128,-1,1
 894 1109 894 1109 950 1014 c 0,2,3
 1027 882 1027 882 1027 675 c 0,4,5
 1027 502 1027 502 953.5 348 c 128,-1,6
 880 194 880 194 719.5 91.5 c 128,-1,7
 559 -11 559 -11 311 -22 c 0,8,9
 284 -23 284 -23 268.5 -4 c 128,-1,10
 253 15 253 15 253 66 c 0,11,12
 253 97 253 97 262.5 110.5 c 128,-1,13
 272 124 272 124 290 125 c 0,14,15
 556 139 556 139 699 262.5 c 128,-1,16
 842 386 842 386 870 598 c 1,17,18
 818 530 818 530 742 493 c 128,-1,19
 666 456 666 456 580 456 c 0,20,21
 470 456 470 456 381.5 503 c 128,-1,22
 293 550 293 550 242.5 636 c 128,-1,23
 192 722 192 722 192 834 c 0,24,25
 192 942 192 942 243 1027.5 c 128,-1,26
 294 1113 294 1113 387.5 1161 c 128,-1,27
 481 1209 481 1209 602 1209 c 0,28,0
 711 1209 711 1209 802.5 1159 c 128,-1,1
469 1033 m 128,-1,30
 412 1005 412 1005 381 953.5 c 128,-1,31
 350 902 350 902 350 834 c 0,32,33
 350 765 350 765 380.5 713 c 128,-1,34
 411 661 411 661 467.5 632.5 c 128,-1,35
 524 604 524 604 602 604 c 0,36,37
 675 604 675 604 733 631.5 c 128,-1,38
 791 659 791 659 823.5 707.5 c 128,-1,39
 856 756 856 756 856 819 c 0,40,41
 856 889 856 889 824.5 944 c 128,-1,42
 793 999 793 999 735.5 1030 c 128,-1,43
 678 1061 678 1061 602 1061 c 256,44,29
 526 1061 526 1061 469 1033 c 128,-1,30
EndSplineSet
Validated: 1
EndChar

StartChar: colon
Encoding: 58 58 29
Width: 1228
GlyphClass: 1
Flags: W
LayerCount: 2
Fore
SplineSet
510.5 638.5 m 128,-1,1
 479 653 479 653 479 687 c 2,2,-1
 479 871 l 2,3,4
 479 905 479 905 510.5 919.5 c 128,-1,5
 542 934 542 934 614 934 c 256,6,7
 686 934 686 934 717.5 919.5 c 128,-1,8
 749 905 749 905 749 871 c 2,9,-1
 749 687 l 2,10,11
 749 653 749 653 717.5 638.5 c 128,-1,12
 686 624 686 624 614 624 c 256,13,0
 542 624 542 624 510.5 638.5 c 128,-1,1
510.5 4.5 m 128,-1,15
 479 19 479 19 479 53 c 2,16,-1
 479 237 l 2,17,18
 479 271 479 271 510.5 285.5 c 128,-1,19
 542 300 542 300 614 300 c 256,20,21
 686 300 686 300 717.5 285.5 c 128,-1,22
 749 271 749 271 749 237 c 2,23,-1
 749 53 l 2,24,25
 749 19 749 19 717.5 4.5 c 128,-1,26
 686 -10 686 -10 614 -10 c 256,27,14
 542 -10 542 -10 510.5 4.5 c 128,-1,15
EndSplineSet
Validated: 1
EndChar

StartChar: semicolon
Encoding: 59 59 30
Width: 1228
GlyphClass: 1
Flags: W
LayerCount: 2
Fore
SplineSet
510.5 638.5 m 128,-1,1
 479 653 479 653 479 687 c 2,2,-1
 479 871 l 2,3,4
 479 905 479 905 510.5 919.5 c 128,-1,5
 542 934 542 934 614 934 c 256,6,7
 686 934 686 934 717.5 919.5 c 128,-1,8
 749 905 749 905 749 871 c 2,9,-1
 749 687 l 2,10,11
 749 653 749 653 717.5 638.5 c 128,-1,12
 686 624 686 624 614 624 c 256,13,0
 542 624 542 624 510.5 638.5 c 128,-1,1
760 284.5 m 128,-1,15
 769 275 769 275 769 260 c 0,16,17
 769 246 769 246 762 231 c 2,18,-1
 550 -253 l 2,19,20
 532 -294 532 -294 464 -294 c 0,21,22
 392 -294 392 -294 392 -244 c 0,23,24
 392 -240 392 -240 394 -228 c 2,25,-1
 488 254 l 2,26,27
 492 273 492 273 505.5 283.5 c 128,-1,28
 519 294 519 294 540 294 c 2,29,-1
 734 294 l 2,30,14
 751 294 751 294 760 284.5 c 128,-1,15
EndSplineSet
Validated: 1
EndChar

StartChar: less
Encoding: 60 60 31
Width: 1228
GlyphClass: 1
Flags: W
LayerCount: 2
Fore
SplineSet
986 1043 m 0,1,2
 1019 1043 1019 1043 1041 1000 c 0,3,4
 1053 976 1053 976 1053 958 c 0,5,6
 1053 925 1053 925 1012 905 c 2,7,-1
 340 583 l 1,8,-1
 1012 261 l 2,9,10
 1053 241 1053 241 1053 208 c 0,11,12
 1053 190 1053 190 1041 166 c 0,13,14
 1019 123 1019 123 986 123 c 0,15,16
 969 123 969 123 949 133 c 2,17,-1
 172 514 l 2,18,19
 147 526 147 526 136 542 c 128,-1,20
 125 558 125 558 125 583 c 256,21,22
 125 608 125 608 136 624 c 128,-1,23
 147 640 147 640 172 652 c 2,24,-1
 949 1033 l 2,25,0
 969 1043 969 1043 986 1043 c 0,1,2
EndSplineSet
Validated: 1
Substitution2: "'rtla' Right to Left Alternates lookup 0 subtable" greater
EndChar

StartChar: equal
Encoding: 61 61 32
Width: 1228
GlyphClass: 1
Flags: W
LayerCount: 2
Fore
SplineSet
1043.5 834.5 m 132,-1,1
 1058 819 1058 819 1058 782 c 260,2,3
 1058 745 1058 745 1043.5 729.5 c 132,-1,4
 1029 714 1029 714 995 714 c 6,5,-1
 233 714 l 6,6,7
 199 714 199 714 184.5 729.5 c 132,-1,8
 170 745 170 745 170 782 c 260,9,10
 170 819 170 819 184.5 834.5 c 132,-1,11
 199 850 199 850 233 850 c 6,12,-1
 995 850 l 6,13,0
 1029 850 1029 850 1043.5 834.5 c 132,-1,1
1043.5 434.5 m 132,-1,15
 1058 419 1058 419 1058 382 c 260,16,17
 1058 345 1058 345 1043.5 329.5 c 132,-1,18
 1029 314 1029 314 995 314 c 6,19,-1
 233 314 l 6,20,21
 199 314 199 314 184.5 329.5 c 132,-1,22
 170 345 170 345 170 382 c 260,23,24
 170 419 170 419 184.5 434.5 c 132,-1,25
 199 450 199 450 233 450 c 6,26,-1
 995 450 l 6,27,14
 1029 450 1029 450 1043.5 434.5 c 132,-1,15
EndSplineSet
Validated: 1
EndChar

StartChar: greater
Encoding: 62 62 33
Width: 1228
GlyphClass: 1
Flags: W
LayerCount: 2
Fore
SplineSet
1092 624 m 128,-1,1
 1103 608 1103 608 1103 583 c 256,2,3
 1103 558 1103 558 1092 542 c 128,-1,4
 1081 526 1081 526 1056 514 c 2,5,-1
 279 133 l 2,6,7
 259 123 259 123 242 123 c 0,8,9
 209 123 209 123 187 166 c 0,10,11
 175 190 175 190 175 208 c 0,12,13
 175 241 175 241 216 261 c 2,14,-1
 888 583 l 1,15,-1
 216 905 l 2,16,17
 175 925 175 925 175 958 c 0,18,19
 175 976 175 976 187 1000 c 0,20,21
 209 1043 209 1043 242 1043 c 0,22,23
 259 1043 259 1043 279 1033 c 2,24,-1
 1056 652 l 2,25,0
 1081 640 1081 640 1092 624 c 128,-1,1
EndSplineSet
Validated: 1
Substitution2: "'rtla' Right to Left Alternates lookup 0 subtable" less
EndChar

StartChar: question
Encoding: 63 63 34
Width: 1228
GlyphClass: 1
Flags: W
LayerCount: 2
Fore
SplineSet
804.5 1229.5 m 132,-1,1
 883 1190 883 1190 924.5 1119.5 c 132,-1,2
 966 1049 966 1049 966 956 c 4,3,4
 966 870 966 870 931.5 808.5 c 132,-1,5
 897 747 897 747 829.5 701.5 c 132,-1,6
 762 656 762 656 653 611 c 5,7,-1
 640 467 l 6,8,9
 635 419 635 419 574 419 c 4,10,11
 511 419 511 419 508 467 c 6,12,-1
 495 665 l 6,13,14
 493 685 493 685 500.5 697 c 132,-1,15
 508 709 508 709 525 716 c 6,16,-1
 594 744 l 6,17,18
 674 777 674 777 720.5 806 c 132,-1,19
 767 835 767 835 789.5 871 c 132,-1,20
 812 907 812 907 812 956 c 4,21,22
 812 1031 812 1031 761.5 1076 c 132,-1,23
 711 1121 711 1121 619 1121 c 4,24,25
 492 1121 492 1121 404 1084 c 5,26,-1
 404 995 l 6,27,28
 404 960 404 960 387 945 c 132,-1,29
 370 930 370 930 329 930 c 260,30,31
 288 930 288 930 271 945 c 132,-1,32
 254 960 254 960 254 995 c 6,33,-1
 254 1122 l 6,34,35
 254 1143 254 1143 260 1156.5 c 132,-1,36
 266 1170 266 1170 279 1178 c 4,37,38
 430 1269 430 1269 618 1269 c 4,39,0
 726 1269 726 1269 804.5 1229.5 c 132,-1,1
662 215.5 m 132,-1,41
 689 201 689 201 689 167 c 6,42,-1
 689 53 l 6,43,44
 689 19 689 19 662 4.5 c 132,-1,45
 635 -10 635 -10 574 -10 c 260,46,47
 513 -10 513 -10 486 4.5 c 132,-1,48
 459 19 459 19 459 53 c 6,49,-1
 459 167 l 6,50,51
 459 201 459 201 486 215.5 c 132,-1,52
 513 230 513 230 574 230 c 260,53,40
 635 230 635 230 662 215.5 c 132,-1,41
EndSplineSet
Validated: 1
EndChar

StartChar: at
Encoding: 64 64 35
Width: 1228
GlyphClass: 1
Flags: W
LayerCount: 2
Fore
SplineSet
928.5 1008.5 m 128,-1,1
 1044 939 1044 939 1107 815 c 128,-1,2
 1170 691 1170 691 1170 531 c 0,3,4
 1170 415 1170 415 1135 325.5 c 128,-1,5
 1100 236 1100 236 1036 186.5 c 128,-1,6
 972 137 972 137 889 137 c 0,7,8
 824 137 824 137 777.5 170 c 128,-1,9
 731 203 731 203 708 266 c 1,10,11
 656 199 656 199 609 165.5 c 128,-1,12
 562 132 562 132 499 132 c 0,13,14
 450 132 450 132 409.5 159 c 128,-1,15
 369 186 369 186 346 236.5 c 128,-1,16
 323 287 323 287 323 357 c 0,17,18
 323 448 323 448 366 549 c 128,-1,19
 409 650 409 650 482 717.5 c 128,-1,20
 555 785 555 785 640 785 c 0,21,22
 726 785 726 785 768 685 c 1,23,-1
 799 748 l 2,24,25
 805 759 805 759 824 759 c 0,26,27
 839 759 839 759 858 752 c 0,28,29
 878 745 878 745 889.5 732.5 c 128,-1,30
 901 720 901 720 897 706 c 2,31,-1
 820 404 l 2,32,33
 813 377 813 377 813 352 c 0,34,35
 813 310 813 310 833 286.5 c 128,-1,36
 853 263 853 263 888 263 c 0,37,38
 963 263 963 263 1006 336.5 c 128,-1,39
 1049 410 1049 410 1049 531 c 0,40,41
 1049 661 1049 661 1001 756.5 c 128,-1,42
 953 852 953 852 864.5 903.5 c 128,-1,43
 776 955 776 955 655 955 c 0,44,45
 519 955 519 955 408.5 880.5 c 128,-1,46
 298 806 298 806 235.5 677 c 128,-1,47
 173 548 173 548 173 389 c 0,48,49
 173 261 173 261 218 166.5 c 128,-1,50
 263 72 263 72 350 21 c 128,-1,51
 437 -30 437 -30 560 -30 c 0,52,53
 629 -30 629 -30 695.5 -20 c 128,-1,54
 762 -10 762 -10 815 7 c 0,55,56
 823 9 823 9 826 9 c 0,57,58
 854 9 854 9 867 -36 c 0,59,60
 872 -54 872 -54 872 -64 c 0,61,62
 872 -91 872 -91 848 -101 c 0,63,64
 794 -125 794 -125 718.5 -139 c 128,-1,65
 643 -153 643 -153 562 -153 c 0,66,67
 403 -153 403 -153 288 -87.5 c 128,-1,68
 173 -22 173 -22 111.5 100 c 128,-1,69
 50 222 50 222 50 389 c 0,70,71
 50 583 50 583 129.5 740.5 c 128,-1,72
 209 898 209 898 348 988 c 128,-1,73
 487 1078 487 1078 660 1078 c 0,74,0
 813 1078 813 1078 928.5 1008.5 c 128,-1,1
557.5 613.5 m 128,-1,76
 515 569 515 569 486.5 499.5 c 128,-1,77
 458 430 458 430 458 359 c 0,78,79
 458 312 458 312 476 289 c 128,-1,80
 494 266 494 266 524 266 c 0,81,82
 573 266 573 266 616.5 311.5 c 128,-1,83
 660 357 660 357 686 426 c 128,-1,84
 712 495 712 495 712 561 c 0,85,86
 712 607 712 607 692 632.5 c 128,-1,87
 672 658 672 658 636 658 c 256,88,75
 600 658 600 658 557.5 613.5 c 128,-1,76
EndSplineSet
Validated: 1
EndChar

StartChar: A
Encoding: 65 65 36
Width: 1228
GlyphClass: 1
Flags: W
LayerCount: 2
Fore
SplineSet
704.5 1171.5 m 128,-1,1
 729 1156 729 1156 741 1122 c 2,2,-1
 1094 136 l 1,3,-1
 1155 136 l 2,4,5
 1189 136 1189 136 1203.5 120.5 c 128,-1,6
 1218 105 1218 105 1218 68 c 256,7,8
 1218 31 1218 31 1203.5 15.5 c 128,-1,9
 1189 0 1189 0 1155 0 c 2,10,-1
 801 0 l 2,11,12
 767 0 767 0 752.5 15.5 c 128,-1,13
 738 31 738 31 738 68 c 256,14,15
 738 105 738 105 752.5 120.5 c 128,-1,16
 767 136 767 136 801 136 c 2,17,-1
 936 136 l 1,18,-1
 854 374 l 1,19,-1
 369 374 l 1,20,-1
 286 136 l 1,21,-1
 407 136 l 2,22,23
 441 136 441 136 455.5 120.5 c 128,-1,24
 470 105 470 105 470 68 c 256,25,26
 470 31 470 31 455.5 15.5 c 128,-1,27
 441 0 441 0 407 0 c 2,28,-1
 73 0 l 2,29,30
 39 0 39 0 24.5 15.5 c 128,-1,31
 10 31 10 31 10 68 c 256,32,33
 10 105 10 105 24.5 120.5 c 128,-1,34
 39 136 39 136 73 136 c 2,35,-1
 129 136 l 1,36,-1
 460 1051 l 1,37,-1
 273 1051 l 2,38,39
 239 1051 239 1051 224.5 1066.5 c 128,-1,40
 210 1082 210 1082 210 1119 c 256,41,42
 210 1156 210 1156 224.5 1171.5 c 128,-1,43
 239 1187 239 1187 273 1187 c 2,44,-1
 640 1187 l 2,45,0
 680 1187 680 1187 704.5 1171.5 c 128,-1,1
603 1051 m 1,46,-1
 416 510 l 1,47,-1
 808 510 l 1,48,-1
 622 1051 l 1,49,-1
 603 1051 l 1,46,-1
EndSplineSet
Validated: 1
EndChar

StartChar: B
Encoding: 66 66 37
Width: 1228
GlyphClass: 1
Flags: W
LayerCount: 2
Fore
SplineSet
843 1147 m 128,-1,1
 925 1107 925 1107 966.5 1034.5 c 128,-1,2
 1008 962 1008 962 1008 865 c 0,3,4
 1008 789 1008 789 973.5 730.5 c 128,-1,5
 939 672 939 672 875 635 c 1,6,7
 981 601 981 601 1037.5 525.5 c 128,-1,8
 1094 450 1094 450 1094 339 c 0,9,10
 1094 234 1094 234 1049 158 c 128,-1,11
 1004 82 1004 82 918 41 c 128,-1,12
 832 0 832 0 710 0 c 2,13,-1
 143 0 l 2,14,15
 109 0 109 0 94.5 15.5 c 128,-1,16
 80 31 80 31 80 68 c 256,17,18
 80 105 80 105 94.5 120.5 c 128,-1,19
 109 136 109 136 143 136 c 2,20,-1
 265 136 l 1,21,-1
 265 1051 l 1,22,-1
 143 1051 l 2,23,24
 109 1051 109 1051 94.5 1066.5 c 128,-1,25
 80 1082 80 1082 80 1119 c 256,26,27
 80 1156 80 1156 94.5 1171.5 c 128,-1,28
 109 1187 109 1187 143 1187 c 2,29,-1
 644 1187 l 2,30,0
 761 1187 761 1187 843 1147 c 128,-1,1
415 681 m 1,31,-1
 622 681 l 2,32,33
 737 681 737 681 796 729 c 128,-1,34
 855 777 855 777 855 865 c 0,35,36
 855 957 855 957 797 1004 c 128,-1,37
 739 1051 739 1051 622 1051 c 2,38,-1
 415 1051 l 1,39,-1
 415 681 l 1,31,-1
415 136 m 1,40,-1
 680 136 l 2,41,42
 803 136 803 136 869.5 189 c 128,-1,43
 936 242 936 242 936 339 c 0,44,45
 936 545 936 545 685 545 c 2,46,-1
 415 545 l 1,47,-1
 415 136 l 1,40,-1
EndSplineSet
Validated: 1
EndChar

StartChar: C
Encoding: 67 67 38
Width: 1228
GlyphClass: 1
Flags: W
LayerCount: 2
Fore
SplineSet
1057 1194 m 128,-1,1
 1074 1179 1074 1179 1074 1144 c 2,2,-1
 1074 814 l 2,3,4
 1074 779 1074 779 1057 764 c 128,-1,5
 1040 749 1040 749 999 749 c 256,6,7
 958 749 958 749 941 764 c 128,-1,8
 924 779 924 779 924 814 c 0,9,10
 924 882 924 882 893.5 938 c 128,-1,11
 863 994 863 994 800 1027.5 c 128,-1,12
 737 1061 737 1061 644 1061 c 0,13,14
 536 1061 536 1061 452.5 1004 c 128,-1,15
 369 947 369 947 322.5 841 c 128,-1,16
 276 735 276 735 276 593 c 256,17,18
 276 451 276 451 320 345.5 c 128,-1,19
 364 240 364 240 445 183 c 128,-1,20
 526 126 526 126 634 126 c 0,21,22
 733 126 733 126 823 155 c 128,-1,23
 913 184 913 184 985 239 c 0,24,25
 1002 253 1002 253 1022 253 c 0,26,27
 1052 253 1052 253 1075 214 c 0,28,29
 1093 184 1093 184 1093 161 c 0,30,31
 1093 131 1093 131 1062 109 c 0,32,33
 969 44 969 44 859.5 11 c 128,-1,34
 750 -22 750 -22 634 -22 c 0,35,36
 478 -22 478 -22 361.5 54.5 c 128,-1,37
 245 131 245 131 181.5 270 c 128,-1,38
 118 409 118 409 118 593 c 0,39,40
 118 776 118 776 183 915.5 c 128,-1,41
 248 1055 248 1055 365.5 1132 c 128,-1,42
 483 1209 483 1209 634 1209 c 0,43,44
 728 1209 728 1209 801 1177 c 128,-1,45
 874 1145 874 1145 924 1086 c 1,46,-1
 924 1144 l 2,47,48
 924 1179 924 1179 941 1194 c 128,-1,49
 958 1209 958 1209 999 1209 c 256,50,0
 1040 1209 1040 1209 1057 1194 c 128,-1,1
EndSplineSet
Validated: 1
EndChar

StartChar: D
Encoding: 68 68 39
Width: 1228
GlyphClass: 1
Flags: W
LayerCount: 2
Fore
SplineSet
890 1115.5 m 128,-1,1
 1009 1044 1009 1044 1074.5 909.5 c 128,-1,2
 1140 775 1140 775 1140 593 c 256,3,4
 1140 411 1140 411 1074.5 277 c 128,-1,5
 1009 143 1009 143 890 71.5 c 128,-1,6
 771 0 771 0 614 0 c 2,7,-1
 143 0 l 2,8,9
 109 0 109 0 94.5 15.5 c 128,-1,10
 80 31 80 31 80 68 c 256,11,12
 80 105 80 105 94.5 120.5 c 128,-1,13
 109 136 109 136 143 136 c 2,14,-1
 255 136 l 1,15,-1
 255 1051 l 1,16,-1
 143 1051 l 2,17,18
 109 1051 109 1051 94.5 1066.5 c 128,-1,19
 80 1082 80 1082 80 1119 c 256,20,21
 80 1156 80 1156 94.5 1171.5 c 128,-1,22
 109 1187 109 1187 143 1187 c 2,23,-1
 614 1187 l 2,24,0
 771 1187 771 1187 890 1115.5 c 128,-1,1
405 136 m 1,25,-1
 591 136 l 2,26,27
 710 136 710 136 798 188.5 c 128,-1,28
 886 241 886 241 934 343.5 c 128,-1,29
 982 446 982 446 982 593 c 256,30,31
 982 740 982 740 934 842.5 c 128,-1,32
 886 945 886 945 798 998 c 128,-1,33
 710 1051 710 1051 591 1051 c 2,34,-1
 405 1051 l 1,35,-1
 405 136 l 1,25,-1
EndSplineSet
Validated: 1
EndChar

StartChar: E
Encoding: 69 69 40
Width: 1228
GlyphClass: 1
Flags: W
LayerCount: 2
Fore
SplineSet
1083 415 m 128,-1,1
 1100 400 1100 400 1100 365 c 2,2,-1
 1100 68 l 2,3,4
 1100 31 1100 31 1085.5 15.5 c 128,-1,5
 1071 0 1071 0 1037 0 c 2,6,-1
 143 0 l 2,7,8
 109 0 109 0 94.5 15.5 c 128,-1,9
 80 31 80 31 80 68 c 256,10,11
 80 105 80 105 94.5 120.5 c 128,-1,12
 109 136 109 136 143 136 c 2,13,-1
 245 136 l 1,14,-1
 245 1051 l 1,15,-1
 143 1051 l 2,16,17
 109 1051 109 1051 94.5 1066.5 c 128,-1,18
 80 1082 80 1082 80 1119 c 256,19,20
 80 1156 80 1156 94.5 1171.5 c 128,-1,21
 109 1187 109 1187 143 1187 c 2,22,-1
 1017 1187 l 2,23,24
 1051 1187 1051 1187 1065.5 1171.5 c 128,-1,25
 1080 1156 1080 1156 1080 1119 c 2,26,-1
 1080 865 l 2,27,28
 1080 830 1080 830 1063 815 c 128,-1,29
 1046 800 1046 800 1005 800 c 256,30,31
 964 800 964 800 947 815 c 128,-1,32
 930 830 930 830 930 865 c 2,33,-1
 930 1051 l 1,34,-1
 395 1051 l 1,35,-1
 395 680 l 1,36,-1
 653 680 l 1,37,-1
 653 771 l 2,38,39
 653 806 653 806 668.5 821 c 128,-1,40
 684 836 684 836 724 836 c 256,41,42
 764 836 764 836 779.5 821 c 128,-1,43
 795 806 795 806 795 771 c 2,44,-1
 795 453 l 2,45,46
 795 418 795 418 779.5 403 c 128,-1,47
 764 388 764 388 724 388 c 256,48,49
 684 388 684 388 668.5 403 c 128,-1,50
 653 418 653 418 653 453 c 2,51,-1
 653 544 l 1,52,-1
 395 544 l 1,53,-1
 395 136 l 1,54,-1
 950 136 l 1,55,-1
 950 365 l 2,56,57
 950 400 950 400 967 415 c 128,-1,58
 984 430 984 430 1025 430 c 256,59,0
 1066 430 1066 430 1083 415 c 128,-1,1
EndSplineSet
Validated: 1
EndChar

StartChar: F
Encoding: 70 70 41
Width: 1228
GlyphClass: 1
Flags: W
LayerCount: 2
Fore
SplineSet
1095.5 1171.5 m 128,-1,1
 1110 1156 1110 1156 1110 1119 c 2,2,-1
 1110 855 l 2,3,4
 1110 820 1110 820 1093 805 c 128,-1,5
 1076 790 1076 790 1035 790 c 256,6,7
 994 790 994 790 977 805 c 128,-1,8
 960 820 960 820 960 855 c 2,9,-1
 960 1051 l 1,10,-1
 425 1051 l 1,11,-1
 425 660 l 1,12,-1
 679 660 l 1,13,-1
 679 751 l 2,14,15
 679 786 679 786 694.5 801 c 128,-1,16
 710 816 710 816 750 816 c 256,17,18
 790 816 790 816 805.5 801 c 128,-1,19
 821 786 821 786 821 751 c 2,20,-1
 821 433 l 2,21,22
 821 398 821 398 805.5 383 c 128,-1,23
 790 368 790 368 750 368 c 256,24,25
 710 368 710 368 694.5 383 c 128,-1,26
 679 398 679 398 679 433 c 2,27,-1
 679 524 l 1,28,-1
 425 524 l 1,29,-1
 425 136 l 1,30,-1
 657 136 l 2,31,32
 691 136 691 136 705.5 120.5 c 128,-1,33
 720 105 720 105 720 68 c 256,34,35
 720 31 720 31 705.5 15.5 c 128,-1,36
 691 0 691 0 657 0 c 2,37,-1
 143 0 l 2,38,39
 109 0 109 0 94.5 15.5 c 128,-1,40
 80 31 80 31 80 68 c 256,41,42
 80 105 80 105 94.5 120.5 c 128,-1,43
 109 136 109 136 143 136 c 2,44,-1
 275 136 l 1,45,-1
 275 1051 l 1,46,-1
 143 1051 l 2,47,48
 109 1051 109 1051 94.5 1066.5 c 128,-1,49
 80 1082 80 1082 80 1119 c 256,50,51
 80 1156 80 1156 94.5 1171.5 c 128,-1,52
 109 1187 109 1187 143 1187 c 2,53,-1
 1047 1187 l 2,54,0
 1081 1187 1081 1187 1095.5 1171.5 c 128,-1,1
EndSplineSet
Validated: 1
EndChar

StartChar: G
Encoding: 71 71 42
Width: 1228
GlyphClass: 1
Flags: W
LayerCount: 2
Fore
SplineSet
1045 1194 m 128,-1,1
 1062 1179 1062 1179 1062 1144 c 2,2,-1
 1062 854 l 2,3,4
 1062 819 1062 819 1045 804 c 128,-1,5
 1028 789 1028 789 987 789 c 256,6,7
 946 789 946 789 929 804 c 128,-1,8
 912 819 912 819 912 854 c 0,9,10
 912 914 912 914 879.5 961 c 128,-1,11
 847 1008 847 1008 784 1034.5 c 128,-1,12
 721 1061 721 1061 634 1061 c 0,13,14
 523 1061 523 1061 437.5 1004 c 128,-1,15
 352 947 352 947 304 841 c 128,-1,16
 256 735 256 735 256 593 c 256,17,18
 256 451 256 451 301.5 345.5 c 128,-1,19
 347 240 347 240 430.5 183 c 128,-1,20
 514 126 514 126 624 126 c 0,21,22
 799 126 799 126 923 183 c 1,23,-1
 923 410 l 1,24,-1
 676 410 l 2,25,26
 642 410 642 410 627.5 425.5 c 128,-1,27
 613 441 613 441 613 478 c 256,28,29
 613 515 613 515 627.5 530.5 c 128,-1,30
 642 546 642 546 676 546 c 2,31,-1
 1105 546 l 2,32,33
 1139 546 1139 546 1153.5 530.5 c 128,-1,34
 1168 515 1168 515 1168 478 c 256,35,36
 1168 441 1168 441 1153.5 425.5 c 128,-1,37
 1139 410 1139 410 1105 410 c 2,38,-1
 1073 410 l 1,39,-1
 1073 143 l 2,40,41
 1073 94 1073 94 1037 74 c 0,42,43
 955 27 955 27 848 2.5 c 128,-1,44
 741 -22 741 -22 624 -22 c 0,45,46
 468 -22 468 -22 348.5 54.5 c 128,-1,47
 229 131 229 131 163.5 270.5 c 128,-1,48
 98 410 98 410 98 593 c 0,49,50
 98 775 98 775 165.5 915 c 128,-1,51
 233 1055 233 1055 352.5 1132 c 128,-1,52
 472 1209 472 1209 624 1209 c 0,53,54
 718 1209 718 1209 790.5 1179.5 c 128,-1,55
 863 1150 863 1150 912 1095 c 1,56,-1
 912 1144 l 2,57,58
 912 1179 912 1179 929 1194 c 128,-1,59
 946 1209 946 1209 987 1209 c 256,60,0
 1028 1209 1028 1209 1045 1194 c 128,-1,1
EndSplineSet
Validated: 1
EndChar

StartChar: H
Encoding: 72 72 43
Width: 1228
GlyphClass: 1
Flags: W
LayerCount: 2
Fore
SplineSet
1133.5 1171.5 m 128,-1,1
 1148 1156 1148 1156 1148 1119 c 256,2,3
 1148 1082 1148 1082 1133.5 1066.5 c 128,-1,4
 1119 1051 1119 1051 1085 1051 c 2,5,-1
 1013 1051 l 1,6,-1
 1013 136 l 1,7,-1
 1085 136 l 2,8,9
 1119 136 1119 136 1133.5 120.5 c 128,-1,10
 1148 105 1148 105 1148 68 c 256,11,12
 1148 31 1148 31 1133.5 15.5 c 128,-1,13
 1119 0 1119 0 1085 0 c 2,14,-1
 771 0 l 2,15,16
 737 0 737 0 722.5 15.5 c 128,-1,17
 708 31 708 31 708 68 c 256,18,19
 708 105 708 105 722.5 120.5 c 128,-1,20
 737 136 737 136 771 136 c 2,21,-1
 863 136 l 1,22,-1
 863 544 l 1,23,-1
 365 544 l 1,24,-1
 365 136 l 1,25,-1
 457 136 l 2,26,27
 491 136 491 136 505.5 120.5 c 128,-1,28
 520 105 520 105 520 68 c 256,29,30
 520 31 520 31 505.5 15.5 c 128,-1,31
 491 0 491 0 457 0 c 2,32,-1
 143 0 l 2,33,34
 109 0 109 0 94.5 15.5 c 128,-1,35
 80 31 80 31 80 68 c 256,36,37
 80 105 80 105 94.5 120.5 c 128,-1,38
 109 136 109 136 143 136 c 2,39,-1
 215 136 l 1,40,-1
 215 1051 l 1,41,-1
 143 1051 l 2,42,43
 109 1051 109 1051 94.5 1066.5 c 128,-1,44
 80 1082 80 1082 80 1119 c 256,45,46
 80 1156 80 1156 94.5 1171.5 c 128,-1,47
 109 1187 109 1187 143 1187 c 2,48,-1
 457 1187 l 2,49,50
 491 1187 491 1187 505.5 1171.5 c 128,-1,51
 520 1156 520 1156 520 1119 c 256,52,53
 520 1082 520 1082 505.5 1066.5 c 128,-1,54
 491 1051 491 1051 457 1051 c 2,55,-1
 365 1051 l 1,56,-1
 365 680 l 1,57,-1
 863 680 l 1,58,-1
 863 1051 l 1,59,-1
 771 1051 l 2,60,61
 737 1051 737 1051 722.5 1066.5 c 128,-1,62
 708 1082 708 1082 708 1119 c 256,63,64
 708 1156 708 1156 722.5 1171.5 c 128,-1,65
 737 1187 737 1187 771 1187 c 2,66,-1
 1085 1187 l 2,67,0
 1119 1187 1119 1187 1133.5 1171.5 c 128,-1,1
EndSplineSet
Validated: 1
EndChar

StartChar: I
Encoding: 73 73 44
Width: 1228
GlyphClass: 1
Flags: W
LayerCount: 2
Fore
SplineSet
993.5 1171.5 m 128,-1,1
 1008 1156 1008 1156 1008 1119 c 256,2,3
 1008 1082 1008 1082 993.5 1066.5 c 128,-1,4
 979 1051 979 1051 945 1051 c 2,5,-1
 689 1051 l 1,6,-1
 689 136 l 1,7,-1
 965 136 l 2,8,9
 999 136 999 136 1013.5 120.5 c 128,-1,10
 1028 105 1028 105 1028 68 c 256,11,12
 1028 31 1028 31 1013.5 15.5 c 128,-1,13
 999 0 999 0 965 0 c 2,14,-1
 263 0 l 2,15,16
 229 0 229 0 214.5 15.5 c 128,-1,17
 200 31 200 31 200 68 c 256,18,19
 200 105 200 105 214.5 120.5 c 128,-1,20
 229 136 229 136 263 136 c 2,21,-1
 539 136 l 1,22,-1
 539 1051 l 1,23,-1
 283 1051 l 2,24,25
 249 1051 249 1051 234.5 1066.5 c 128,-1,26
 220 1082 220 1082 220 1119 c 256,27,28
 220 1156 220 1156 234.5 1171.5 c 128,-1,29
 249 1187 249 1187 283 1187 c 2,30,-1
 945 1187 l 2,31,0
 979 1187 979 1187 993.5 1171.5 c 128,-1,1
EndSplineSet
Validated: 1
EndChar

StartChar: J
Encoding: 74 74 45
Width: 1228
GlyphClass: 1
Flags: W
LayerCount: 2
Fore
SplineSet
1143.5 1171.5 m 128,-1,1
 1158 1156 1158 1156 1158 1119 c 256,2,3
 1158 1082 1158 1082 1143.5 1066.5 c 128,-1,4
 1129 1051 1129 1051 1095 1051 c 2,5,-1
 894 1051 l 1,6,-1
 894 333 l 2,7,8
 894 158 894 158 792 68 c 128,-1,9
 690 -22 690 -22 494 -22 c 0,10,11
 380 -22 380 -22 287.5 18.5 c 128,-1,12
 195 59 195 59 131 129 c 0,13,14
 115 148 115 148 115 180 c 2,15,-1
 115 465 l 2,16,17
 115 500 115 500 132 515 c 128,-1,18
 149 530 149 530 190 530 c 256,19,20
 231 530 231 530 248 515 c 128,-1,21
 265 500 265 500 265 465 c 2,22,-1
 265 201 l 1,23,24
 349 126 349 126 495 126 c 0,25,26
 626 126 626 126 685 184 c 128,-1,27
 744 242 744 242 744 363 c 2,28,-1
 744 1051 l 1,29,-1
 403 1051 l 2,30,31
 369 1051 369 1051 354.5 1066.5 c 128,-1,32
 340 1082 340 1082 340 1119 c 256,33,34
 340 1156 340 1156 354.5 1171.5 c 128,-1,35
 369 1187 369 1187 403 1187 c 2,36,-1
 1095 1187 l 2,37,0
 1129 1187 1129 1187 1143.5 1171.5 c 128,-1,1
EndSplineSet
Validated: 1
EndChar

StartChar: K
Encoding: 75 75 46
Width: 1228
GlyphClass: 1
Flags: W
LayerCount: 2
Fore
SplineSet
1143.5 1171.5 m 128,-1,1
 1158 1156 1158 1156 1158 1119 c 256,2,3
 1158 1082 1158 1082 1143.5 1066.5 c 128,-1,4
 1129 1051 1129 1051 1095 1051 c 2,5,-1
 1034 1051 l 1,6,-1
 615 646 l 1,7,8
 623 647 623 647 639 647 c 0,9,10
 770 647 770 647 848 547 c 0,11,12
 879 507 879 507 902.5 457 c 128,-1,13
 926 407 926 407 954 332 c 0,14,15
 958 322 958 322 974.5 279.5 c 128,-1,16
 991 237 991 237 1007 208 c 0,17,18
 1046 136 1046 136 1097 136 c 2,19,-1
 1125 136 l 2,20,21
 1159 136 1159 136 1173.5 120.5 c 128,-1,22
 1188 105 1188 105 1188 68 c 256,23,24
 1188 31 1188 31 1173.5 15.5 c 128,-1,25
 1159 0 1159 0 1125 0 c 2,26,-1
 1043 0 l 2,27,28
 942 0 942 0 871 139 c 0,29,30
 846 189 846 189 812 276 c 0,31,32
 789 337 789 337 770 379 c 128,-1,33
 751 421 751 421 728 454 c 0,34,35
 704 488 704 488 667.5 506 c 128,-1,36
 631 524 631 524 585 524 c 0,37,38
 543 524 543 524 504 509 c 128,-1,39
 465 494 465 494 435 465 c 2,40,-1
 405 436 l 1,41,-1
 405 136 l 1,42,-1
 567 136 l 2,43,44
 601 136 601 136 615.5 120.5 c 128,-1,45
 630 105 630 105 630 68 c 256,46,47
 630 31 630 31 615.5 15.5 c 128,-1,48
 601 0 601 0 567 0 c 2,49,-1
 143 0 l 2,50,51
 109 0 109 0 94.5 15.5 c 128,-1,52
 80 31 80 31 80 68 c 256,53,54
 80 105 80 105 94.5 120.5 c 128,-1,55
 109 136 109 136 143 136 c 2,56,-1
 255 136 l 1,57,-1
 255 1051 l 1,58,-1
 143 1051 l 2,59,60
 109 1051 109 1051 94.5 1066.5 c 128,-1,61
 80 1082 80 1082 80 1119 c 256,62,63
 80 1156 80 1156 94.5 1171.5 c 128,-1,64
 109 1187 109 1187 143 1187 c 2,65,-1
 497 1187 l 2,66,67
 531 1187 531 1187 545.5 1171.5 c 128,-1,68
 560 1156 560 1156 560 1119 c 256,69,70
 560 1082 560 1082 545.5 1066.5 c 128,-1,71
 531 1051 531 1051 497 1051 c 2,72,-1
 405 1051 l 1,73,-1
 405 622 l 1,74,-1
 843 1051 l 1,75,-1
 771 1051 l 2,76,77
 737 1051 737 1051 722.5 1066.5 c 128,-1,78
 708 1082 708 1082 708 1119 c 256,79,80
 708 1156 708 1156 722.5 1171.5 c 128,-1,81
 737 1187 737 1187 771 1187 c 2,82,-1
 1095 1187 l 2,83,0
 1129 1187 1129 1187 1143.5 1171.5 c 128,-1,1
EndSplineSet
Validated: 1
EndChar

StartChar: L
Encoding: 76 76 47
Width: 1228
GlyphClass: 1
Flags: W
LayerCount: 2
Fore
SplineSet
745.5 1171.5 m 128,-1,1
 760 1156 760 1156 760 1119 c 256,2,3
 760 1082 760 1082 745.5 1066.5 c 128,-1,4
 731 1051 731 1051 697 1051 c 2,5,-1
 455 1051 l 1,6,-1
 455 136 l 1,7,-1
 950 136 l 1,8,-1
 950 465 l 2,9,10
 950 500 950 500 967 515 c 128,-1,11
 984 530 984 530 1025 530 c 256,12,13
 1066 530 1066 530 1083 515 c 128,-1,14
 1100 500 1100 500 1100 465 c 2,15,-1
 1100 68 l 2,16,17
 1100 31 1100 31 1085.5 15.5 c 128,-1,18
 1071 0 1071 0 1037 0 c 2,19,-1
 143 0 l 2,20,21
 109 0 109 0 94.5 15.5 c 128,-1,22
 80 31 80 31 80 68 c 256,23,24
 80 105 80 105 94.5 120.5 c 128,-1,25
 109 136 109 136 143 136 c 2,26,-1
 305 136 l 1,27,-1
 305 1051 l 1,28,-1
 143 1051 l 2,29,30
 109 1051 109 1051 94.5 1066.5 c 128,-1,31
 80 1082 80 1082 80 1119 c 256,32,33
 80 1156 80 1156 94.5 1171.5 c 128,-1,34
 109 1187 109 1187 143 1187 c 2,35,-1
 697 1187 l 2,36,0
 731 1187 731 1187 745.5 1171.5 c 128,-1,1
EndSplineSet
Validated: 1
EndChar

StartChar: M
Encoding: 77 77 48
Width: 1228
GlyphClass: 1
Flags: W
LayerCount: 2
Fore
SplineSet
1153.5 1171.5 m 128,-1,1
 1168 1156 1168 1156 1168 1119 c 256,2,3
 1168 1082 1168 1082 1153.5 1066.5 c 128,-1,4
 1139 1051 1139 1051 1105 1051 c 2,5,-1
 1055 1051 l 1,6,-1
 1081 136 l 1,7,-1
 1135 136 l 2,8,9
 1169 136 1169 136 1183.5 120.5 c 128,-1,10
 1198 105 1198 105 1198 68 c 256,11,12
 1198 31 1198 31 1183.5 15.5 c 128,-1,13
 1169 0 1169 0 1135 0 c 2,14,-1
 821 0 l 2,15,16
 787 0 787 0 772.5 15.5 c 128,-1,17
 758 31 758 31 758 68 c 256,18,19
 758 105 758 105 772.5 120.5 c 128,-1,20
 787 136 787 136 821 136 c 2,21,-1
 932 136 l 1,22,-1
 910 955 l 1,23,-1
 706 385 l 2,24,25
 693 350 693 350 671.5 335 c 128,-1,26
 650 320 650 320 614 320 c 256,27,28
 578 320 578 320 556.5 335 c 128,-1,29
 535 350 535 350 522 385 c 2,30,-1
 317 955 l 1,31,-1
 296 136 l 1,32,-1
 407 136 l 2,33,34
 441 136 441 136 455.5 120.5 c 128,-1,35
 470 105 470 105 470 68 c 256,36,37
 470 31 470 31 455.5 15.5 c 128,-1,38
 441 0 441 0 407 0 c 2,39,-1
 93 0 l 2,40,41
 59 0 59 0 44.5 15.5 c 128,-1,42
 30 31 30 31 30 68 c 256,43,44
 30 105 30 105 44.5 120.5 c 128,-1,45
 59 136 59 136 93 136 c 2,46,-1
 147 136 l 1,47,-1
 172 1051 l 1,48,-1
 123 1051 l 2,49,50
 89 1051 89 1051 74.5 1066.5 c 128,-1,51
 60 1082 60 1082 60 1119 c 256,52,53
 60 1156 60 1156 74.5 1171.5 c 128,-1,54
 89 1187 89 1187 123 1187 c 2,55,-1
 334 1187 l 2,56,57
 358 1187 358 1187 372 1179 c 128,-1,58
 386 1171 386 1171 392 1154 c 2,59,-1
 614 545 l 1,60,-1
 835 1154 l 2,61,62
 846 1187 846 1187 894 1187 c 2,63,-1
 1105 1187 l 2,64,0
 1139 1187 1139 1187 1153.5 1171.5 c 128,-1,1
EndSplineSet
Validated: 1
EndChar

StartChar: N
Encoding: 78 78 49
Width: 1228
GlyphClass: 1
Flags: W
LayerCount: 2
Fore
SplineSet
1143.5 1171.5 m 128,-1,1
 1158 1156 1158 1156 1158 1119 c 256,2,3
 1158 1082 1158 1082 1143.5 1066.5 c 128,-1,4
 1129 1051 1129 1051 1095 1051 c 2,5,-1
 1038 1051 l 1,6,-1
 1038 37 l 2,7,8
 1038 10 1038 10 1019.5 -6 c 128,-1,9
 1001 -22 1001 -22 963 -22 c 0,10,11
 910 -22 910 -22 879 33 c 2,12,-1
 360 960 l 1,13,-1
 356 960 l 1,14,-1
 356 136 l 1,15,-1
 497 136 l 2,16,17
 531 136 531 136 545.5 120.5 c 128,-1,18
 560 105 560 105 560 68 c 256,19,20
 560 31 560 31 545.5 15.5 c 128,-1,21
 531 0 531 0 497 0 c 2,22,-1
 143 0 l 2,23,24
 109 0 109 0 94.5 15.5 c 128,-1,25
 80 31 80 31 80 68 c 256,26,27
 80 105 80 105 94.5 120.5 c 128,-1,28
 109 136 109 136 143 136 c 2,29,-1
 210 136 l 1,30,-1
 210 1051 l 1,31,-1
 133 1051 l 2,32,33
 99 1051 99 1051 84.5 1066.5 c 128,-1,34
 70 1082 70 1082 70 1119 c 256,35,36
 70 1156 70 1156 84.5 1171.5 c 128,-1,37
 99 1187 99 1187 133 1187 c 2,38,-1
 357 1187 l 2,39,40
 379 1187 379 1187 392.5 1180 c 128,-1,41
 406 1173 406 1173 414 1159 c 2,42,-1
 888 311 l 1,43,-1
 892 311 l 1,44,-1
 892 1051 l 1,45,-1
 771 1051 l 2,46,47
 737 1051 737 1051 722.5 1066.5 c 128,-1,48
 708 1082 708 1082 708 1119 c 256,49,50
 708 1156 708 1156 722.5 1171.5 c 128,-1,51
 737 1187 737 1187 771 1187 c 2,52,-1
 1095 1187 l 2,53,0
 1129 1187 1129 1187 1143.5 1171.5 c 128,-1,1
EndSplineSet
Validated: 1
EndChar

StartChar: O
Encoding: 79 79 50
Width: 1228
GlyphClass: 1
Flags: W
LayerCount: 2
Fore
SplineSet
889.5 1132 m 128,-1,1
 1009 1055 1009 1055 1074.5 915.5 c 128,-1,2
 1140 776 1140 776 1140 593 c 256,3,4
 1140 410 1140 410 1074.5 270.5 c 128,-1,5
 1009 131 1009 131 889.5 54.5 c 128,-1,6
 770 -22 770 -22 614 -22 c 256,7,8
 458 -22 458 -22 338.5 54.5 c 128,-1,9
 219 131 219 131 153.5 270.5 c 128,-1,10
 88 410 88 410 88 593 c 256,11,12
 88 776 88 776 153.5 915.5 c 128,-1,13
 219 1055 219 1055 338.5 1132 c 128,-1,14
 458 1209 458 1209 614 1209 c 256,15,0
 770 1209 770 1209 889.5 1132 c 128,-1,1
420.5 1004 m 128,-1,17
 337 947 337 947 291.5 841 c 128,-1,18
 246 735 246 735 246 593 c 256,19,20
 246 451 246 451 291.5 345.5 c 128,-1,21
 337 240 337 240 420.5 183 c 128,-1,22
 504 126 504 126 614 126 c 256,23,24
 724 126 724 126 807.5 183 c 128,-1,25
 891 240 891 240 936.5 345.5 c 128,-1,26
 982 451 982 451 982 593 c 256,27,28
 982 735 982 735 936.5 841 c 128,-1,29
 891 947 891 947 807.5 1004 c 128,-1,30
 724 1061 724 1061 614 1061 c 256,31,16
 504 1061 504 1061 420.5 1004 c 128,-1,17
EndSplineSet
Validated: 1
EndChar

StartChar: P
Encoding: 80 80 51
Width: 1228
GlyphClass: 1
Flags: W
LayerCount: 2
Fore
SplineSet
918 1140 m 128,-1,1
 1013 1093 1013 1093 1062.5 1007 c 128,-1,2
 1112 921 1112 921 1112 808 c 256,3,4
 1112 695 1112 695 1062.5 610.5 c 128,-1,5
 1013 526 1013 526 918 479.5 c 128,-1,6
 823 433 823 433 690 433 c 2,7,-1
 455 433 l 1,8,-1
 455 136 l 1,9,-1
 695 136 l 2,10,11
 729 136 729 136 743.5 120.5 c 128,-1,12
 758 105 758 105 758 68 c 256,13,14
 758 31 758 31 743.5 15.5 c 128,-1,15
 729 0 729 0 695 0 c 2,16,-1
 143 0 l 2,17,18
 109 0 109 0 94.5 15.5 c 128,-1,19
 80 31 80 31 80 68 c 256,20,21
 80 105 80 105 94.5 120.5 c 128,-1,22
 109 136 109 136 143 136 c 2,23,-1
 305 136 l 1,24,-1
 305 1051 l 1,25,-1
 143 1051 l 2,26,27
 109 1051 109 1051 94.5 1066.5 c 128,-1,28
 80 1082 80 1082 80 1119 c 256,29,30
 80 1156 80 1156 94.5 1171.5 c 128,-1,31
 109 1187 109 1187 143 1187 c 2,32,-1
 690 1187 l 2,33,0
 823 1187 823 1187 918 1140 c 128,-1,1
455 569 m 1,34,-1
 669 569 l 2,35,36
 808 569 808 569 881 632 c 128,-1,37
 954 695 954 695 954 808 c 0,38,39
 954 923 954 923 880.5 987 c 128,-1,40
 807 1051 807 1051 669 1051 c 2,41,-1
 455 1051 l 1,42,-1
 455 569 l 1,34,-1
EndSplineSet
Validated: 1
EndChar

StartChar: Q
Encoding: 81 81 52
Width: 1228
GlyphClass: 1
Flags: W
LayerCount: 2
Fore
SplineSet
889.5 1136.5 m 128,-1,1
 1009 1064 1009 1064 1074.5 930 c 128,-1,2
 1140 796 1140 796 1140 618 c 256,3,4
 1140 440 1140 440 1074.5 306.5 c 128,-1,5
 1009 173 1009 173 889.5 100.5 c 128,-1,6
 770 28 770 28 614 28 c 0,7,8
 586 28 586 28 562 30 c 1,9,-1
 433 -105 l 1,10,11
 514 -73 514 -73 593 -73 c 0,12,13
 625 -73 625 -73 653.5 -77 c 128,-1,14
 682 -81 682 -81 725 -90 c 0,15,16
 794 -105 794 -105 833 -105 c 0,17,18
 873 -105 873 -105 911.5 -92 c 128,-1,19
 950 -79 950 -79 993 -48 c 0,20,21
 1002 -42 1002 -42 1012 -42 c 0,22,23
 1027 -42 1027 -42 1042.5 -54 c 128,-1,24
 1058 -66 1058 -66 1070 -86 c 0,25,26
 1087 -115 1087 -115 1087 -137 c 0,27,28
 1087 -163 1087 -163 1065 -179 c 0,29,30
 1007 -222 1007 -222 955.5 -240 c 128,-1,31
 904 -258 904 -258 853 -258 c 0,32,33
 827 -258 827 -258 797.5 -254 c 128,-1,34
 768 -250 768 -250 749.5 -246.5 c 128,-1,35
 731 -243 731 -243 723 -241 c 0,36,37
 671 -230 671 -230 636.5 -225 c 128,-1,38
 602 -220 602 -220 562 -220 c 0,39,40
 454 -220 454 -220 337 -269 c 0,41,42
 330 -272 330 -272 322 -272 c 0,43,44
 289 -272 289 -272 254 -226 c 0,45,46
 228 -192 228 -192 228 -167 c 0,47,48
 228 -153 228 -153 237 -142 c 2,49,-1
 417 62 l 1,50,51
 263 120 263 120 175.5 265.5 c 128,-1,52
 88 411 88 411 88 618 c 0,53,54
 88 796 88 796 153.5 930 c 128,-1,55
 219 1064 219 1064 338.5 1136.5 c 128,-1,56
 458 1209 458 1209 614 1209 c 256,57,0
 770 1209 770 1209 889.5 1136.5 c 128,-1,1
420 1008 m 128,-1,59
 337 955 337 955 291.5 855 c 128,-1,60
 246 755 246 755 246 618 c 256,61,62
 246 481 246 481 291.5 381 c 128,-1,63
 337 281 337 281 420 228.5 c 128,-1,64
 503 176 503 176 614 176 c 256,65,66
 725 176 725 176 808 228.5 c 128,-1,67
 891 281 891 281 936.5 381 c 128,-1,68
 982 481 982 481 982 618 c 256,69,70
 982 755 982 755 936.5 855 c 128,-1,71
 891 955 891 955 808 1008 c 128,-1,72
 725 1061 725 1061 614 1061 c 256,73,58
 503 1061 503 1061 420 1008 c 128,-1,59
EndSplineSet
Validated: 1
EndChar

StartChar: R
Encoding: 82 82 53
Width: 1228
GlyphClass: 1
Flags: W
LayerCount: 2
Fore
SplineSet
863.5 1145 m 128,-1,1
 953 1103 953 1103 999.5 1027 c 128,-1,2
 1046 951 1046 951 1046 850 c 0,3,4
 1046 736 1046 736 972 657 c 128,-1,5
 898 578 898 578 769 549 c 1,6,7
 825 527 825 527 862 478 c 0,8,9
 893 437 893 437 915 396.5 c 128,-1,10
 937 356 937 356 964 297 c 0,11,12
 992 236 992 236 1007 208 c 0,13,14
 1046 136 1046 136 1097 136 c 2,15,-1
 1125 136 l 2,16,17
 1159 136 1159 136 1173.5 120.5 c 128,-1,18
 1188 105 1188 105 1188 68 c 256,19,20
 1188 31 1188 31 1173.5 15.5 c 128,-1,21
 1159 0 1159 0 1125 0 c 2,22,-1
 1053 0 l 2,23,24
 993 0 993 0 951.5 31.5 c 128,-1,25
 910 63 910 63 871 139 c 0,26,27
 849 183 849 183 817 255 c 0,28,29
 787 321 787 321 768.5 357.5 c 128,-1,30
 750 394 750 394 724 430 c 0,31,32
 694 472 694 472 652 493.5 c 128,-1,33
 610 515 610 515 551 515 c 2,34,-1
 415 515 l 1,35,-1
 415 136 l 1,36,-1
 545 136 l 2,37,38
 579 136 579 136 593.5 120.5 c 128,-1,39
 608 105 608 105 608 68 c 256,40,41
 608 31 608 31 593.5 15.5 c 128,-1,42
 579 0 579 0 545 0 c 2,43,-1
 143 0 l 2,44,45
 109 0 109 0 94.5 15.5 c 128,-1,46
 80 31 80 31 80 68 c 256,47,48
 80 105 80 105 94.5 120.5 c 128,-1,49
 109 136 109 136 143 136 c 2,50,-1
 265 136 l 1,51,-1
 265 1051 l 1,52,-1
 143 1051 l 2,53,54
 109 1051 109 1051 94.5 1066.5 c 128,-1,55
 80 1082 80 1082 80 1119 c 256,56,57
 80 1156 80 1156 94.5 1171.5 c 128,-1,58
 109 1187 109 1187 143 1187 c 2,59,-1
 649 1187 l 2,60,0
 774 1187 774 1187 863.5 1145 c 128,-1,1
415 651 m 1,61,-1
 618 651 l 2,62,63
 888 651 888 651 888 850 c 0,64,65
 888 946 888 946 820 998.5 c 128,-1,66
 752 1051 752 1051 628 1051 c 2,67,-1
 415 1051 l 1,68,-1
 415 651 l 1,61,-1
EndSplineSet
Validated: 1
EndChar

StartChar: S
Encoding: 83 83 54
Width: 1228
GlyphClass: 1
Flags: W
LayerCount: 2
Fore
SplineSet
1001 1194 m 128,-1,1
 1018 1179 1018 1179 1018 1144 c 2,2,-1
 1018 914 l 2,3,4
 1018 879 1018 879 1001 864 c 128,-1,5
 984 849 984 849 943 849 c 0,6,7
 905 849 905 849 891 875 c 0,8,9
 843 966 843 966 756 1013.5 c 128,-1,10
 669 1061 669 1061 558 1061 c 0,11,12
 448 1061 448 1061 387.5 1010 c 128,-1,13
 327 959 327 959 327 873 c 0,14,15
 327 832 327 832 348 804 c 128,-1,16
 369 776 369 776 408 756 c 0,17,18
 443 738 443 738 490 726.5 c 128,-1,19
 537 715 537 715 616 700 c 0,20,21
 702 683 702 683 752.5 671.5 c 128,-1,22
 803 660 803 660 852 640 c 0,23,24
 952 599 952 599 1008.5 525.5 c 128,-1,25
 1065 452 1065 452 1065 327 c 0,26,27
 1065 223 1065 223 1016 144.5 c 128,-1,28
 967 66 967 66 871.5 22 c 128,-1,29
 776 -22 776 -22 642 -22 c 0,30,31
 542 -22 542 -22 456.5 14.5 c 128,-1,32
 371 51 371 51 308 121 c 1,33,-1
 308 43 l 2,34,35
 308 8 308 8 291 -7 c 128,-1,36
 274 -22 274 -22 233 -22 c 256,37,38
 192 -22 192 -22 175 -7 c 128,-1,39
 158 8 158 8 158 43 c 2,40,-1
 158 343 l 2,41,42
 158 378 158 378 175 393 c 128,-1,43
 192 408 192 408 233 408 c 0,44,45
 276 408 276 408 291 366 c 0,46,47
 332 250 332 250 421.5 188 c 128,-1,48
 511 126 511 126 642 126 c 0,49,50
 770 126 770 126 838.5 181 c 128,-1,51
 907 236 907 236 907 327 c 0,52,53
 907 390 907 390 875.5 429.5 c 128,-1,54
 844 469 844 469 784 495 c 0,55,56
 746 512 746 512 701 522.5 c 128,-1,57
 656 533 656 533 578 549 c 0,58,59
 496 565 496 565 440.5 579 c 128,-1,60
 385 593 385 593 338 614 c 0,61,62
 258 650 258 650 213.5 711.5 c 128,-1,63
 169 773 169 773 169 873 c 0,64,65
 169 976 169 976 218.5 1052 c 128,-1,66
 268 1128 268 1128 356.5 1168.5 c 128,-1,67
 445 1209 445 1209 558 1209 c 0,68,69
 646 1209 646 1209 728 1175 c 128,-1,70
 810 1141 810 1141 868 1083 c 1,71,-1
 868 1144 l 2,72,73
 868 1179 868 1179 885 1194 c 128,-1,74
 902 1209 902 1209 943 1209 c 256,75,0
 984 1209 984 1209 1001 1194 c 128,-1,1
EndSplineSet
Validated: 1
EndChar

StartChar: T
Encoding: 84 84 55
Width: 1228
GlyphClass: 1
Flags: W
LayerCount: 2
Fore
SplineSet
1091.5 1171.5 m 128,-1,1
 1106 1156 1106 1156 1106 1119 c 2,2,-1
 1106 742 l 2,3,4
 1106 707 1106 707 1089 692 c 128,-1,5
 1072 677 1072 677 1031 677 c 256,6,7
 990 677 990 677 973 692 c 128,-1,8
 956 707 956 707 956 742 c 2,9,-1
 956 1051 l 1,10,-1
 689 1051 l 1,11,-1
 689 136 l 1,12,-1
 925 136 l 2,13,14
 959 136 959 136 973.5 120.5 c 128,-1,15
 988 105 988 105 988 68 c 256,16,17
 988 31 988 31 973.5 15.5 c 128,-1,18
 959 0 959 0 925 0 c 2,19,-1
 303 0 l 2,20,21
 269 0 269 0 254.5 15.5 c 128,-1,22
 240 31 240 31 240 68 c 256,23,24
 240 105 240 105 254.5 120.5 c 128,-1,25
 269 136 269 136 303 136 c 2,26,-1
 539 136 l 1,27,-1
 539 1051 l 1,28,-1
 272 1051 l 1,29,-1
 272 742 l 2,30,31
 272 707 272 707 255 692 c 128,-1,32
 238 677 238 677 197 677 c 256,33,34
 156 677 156 677 139 692 c 128,-1,35
 122 707 122 707 122 742 c 2,36,-1
 122 1119 l 2,37,38
 122 1156 122 1156 136.5 1171.5 c 128,-1,39
 151 1187 151 1187 185 1187 c 2,40,-1
 1043 1187 l 2,41,0
 1077 1187 1077 1187 1091.5 1171.5 c 128,-1,1
EndSplineSet
Validated: 1
EndChar

StartChar: U
Encoding: 85 85 56
Width: 1228
GlyphClass: 1
Flags: W
LayerCount: 2
Fore
SplineSet
1143.5 1171.5 m 128,-1,1
 1158 1156 1158 1156 1158 1119 c 256,2,3
 1158 1082 1158 1082 1143.5 1066.5 c 128,-1,4
 1129 1051 1129 1051 1095 1051 c 2,5,-1
 1033 1051 l 1,6,-1
 1033 393 l 2,7,8
 1033 184 1033 184 923.5 81 c 128,-1,9
 814 -22 814 -22 614 -22 c 256,10,11
 414 -22 414 -22 304.5 81 c 128,-1,12
 195 184 195 184 195 393 c 2,13,-1
 195 1051 l 1,14,-1
 133 1051 l 2,15,16
 99 1051 99 1051 84.5 1066.5 c 128,-1,17
 70 1082 70 1082 70 1119 c 256,18,19
 70 1156 70 1156 84.5 1171.5 c 128,-1,20
 99 1187 99 1187 133 1187 c 2,21,-1
 457 1187 l 2,22,23
 491 1187 491 1187 505.5 1171.5 c 128,-1,24
 520 1156 520 1156 520 1119 c 256,25,26
 520 1082 520 1082 505.5 1066.5 c 128,-1,27
 491 1051 491 1051 457 1051 c 2,28,-1
 345 1051 l 1,29,-1
 345 413 l 2,30,31
 345 260 345 260 410 193 c 128,-1,32
 475 126 475 126 614 126 c 256,33,34
 753 126 753 126 818 193 c 128,-1,35
 883 260 883 260 883 413 c 2,36,-1
 883 1051 l 1,37,-1
 771 1051 l 2,38,39
 737 1051 737 1051 722.5 1066.5 c 128,-1,40
 708 1082 708 1082 708 1119 c 256,41,42
 708 1156 708 1156 722.5 1171.5 c 128,-1,43
 737 1187 737 1187 771 1187 c 2,44,-1
 1095 1187 l 2,45,0
 1129 1187 1129 1187 1143.5 1171.5 c 128,-1,1
EndSplineSet
Validated: 1
EndChar

StartChar: V
Encoding: 86 86 57
Width: 1228
GlyphClass: 1
Flags: W
LayerCount: 2
Fore
SplineSet
1203.5 1171.5 m 128,-1,1
 1218 1156 1218 1156 1218 1119 c 256,2,3
 1218 1082 1218 1082 1203.5 1066.5 c 128,-1,4
 1189 1051 1189 1051 1155 1051 c 2,5,-1
 1078 1051 l 1,6,-1
 719 43 l 2,7,8
 706 8 706 8 680.5 -7 c 128,-1,9
 655 -22 655 -22 611 -22 c 0,10,11
 568 -22 568 -22 542.5 -6.5 c 128,-1,12
 517 9 517 9 505 43 c 2,13,-1
 149 1051 l 1,14,-1
 73 1051 l 2,15,16
 39 1051 39 1051 24.5 1066.5 c 128,-1,17
 10 1082 10 1082 10 1119 c 256,18,19
 10 1156 10 1156 24.5 1171.5 c 128,-1,20
 39 1187 39 1187 73 1187 c 2,21,-1
 447 1187 l 2,22,23
 481 1187 481 1187 495.5 1171.5 c 128,-1,24
 510 1156 510 1156 510 1119 c 256,25,26
 510 1082 510 1082 495.5 1066.5 c 128,-1,27
 481 1051 481 1051 447 1051 c 2,28,-1
 306 1051 l 1,29,-1
 612 167 l 1,30,-1
 921 1051 l 1,31,-1
 821 1051 l 2,32,33
 787 1051 787 1051 772.5 1066.5 c 128,-1,34
 758 1082 758 1082 758 1119 c 256,35,36
 758 1156 758 1156 772.5 1171.5 c 128,-1,37
 787 1187 787 1187 821 1187 c 2,38,-1
 1155 1187 l 2,39,0
 1189 1187 1189 1187 1203.5 1171.5 c 128,-1,1
EndSplineSet
Validated: 1
EndChar

StartChar: W
Encoding: 87 87 58
Width: 1228
GlyphClass: 1
Flags: W
LayerCount: 2
Fore
SplineSet
1223.5 1171.5 m 128,-1,1
 1238 1156 1238 1156 1238 1119 c 256,2,3
 1238 1082 1238 1082 1223.5 1066.5 c 128,-1,4
 1209 1051 1209 1051 1175 1051 c 2,5,-1
 1121 1051 l 1,6,-1
 983 43 l 2,7,8
 978 7 978 7 957.5 -7.5 c 128,-1,9
 937 -22 937 -22 897 -22 c 0,10,11
 815 -22 815 -22 795 43 c 2,12,-1
 610 624 l 1,13,-1
 423 43 l 2,14,15
 402 -22 402 -22 319 -22 c 0,16,17
 280 -22 280 -22 259.5 -7 c 128,-1,18
 239 8 239 8 235 43 c 2,19,-1
 102 1051 l 1,20,-1
 53 1051 l 2,21,22
 19 1051 19 1051 4.5 1066.5 c 128,-1,23
 -10 1082 -10 1082 -10 1119 c 256,24,25
 -10 1156 -10 1156 4.5 1171.5 c 128,-1,26
 19 1187 19 1187 53 1187 c 2,27,-1
 397 1187 l 2,28,29
 431 1187 431 1187 445.5 1171.5 c 128,-1,30
 460 1156 460 1156 460 1119 c 256,31,32
 460 1082 460 1082 445.5 1066.5 c 128,-1,33
 431 1051 431 1051 397 1051 c 2,34,-1
 251 1051 l 1,35,-1
 351 250 l 1,36,-1
 539 838 l 2,37,38
 553 885 553 885 611 885 c 0,39,40
 643 885 643 885 660.5 875 c 128,-1,41
 678 865 678 865 684 845 c 2,42,-1
 871 250 l 1,43,-1
 975 1051 l 1,44,-1
 851 1051 l 2,45,46
 817 1051 817 1051 802.5 1066.5 c 128,-1,47
 788 1082 788 1082 788 1119 c 256,48,49
 788 1156 788 1156 802.5 1171.5 c 128,-1,50
 817 1187 817 1187 851 1187 c 2,51,-1
 1175 1187 l 2,52,0
 1209 1187 1209 1187 1223.5 1171.5 c 128,-1,1
EndSplineSet
Validated: 1
EndChar

StartChar: X
Encoding: 88 88 59
Width: 1228
GlyphClass: 1
Flags: W
LayerCount: 2
Fore
SplineSet
1133.5 1171.5 m 128,-1,1
 1148 1156 1148 1156 1148 1119 c 256,2,3
 1148 1082 1148 1082 1133.5 1066.5 c 128,-1,4
 1119 1051 1119 1051 1085 1051 c 2,5,-1
 1020 1051 l 1,6,-1
 711 617 l 1,7,-1
 1057 136 l 1,8,-1
 1115 136 l 2,9,10
 1149 136 1149 136 1163.5 120.5 c 128,-1,11
 1178 105 1178 105 1178 68 c 256,12,13
 1178 31 1178 31 1163.5 15.5 c 128,-1,14
 1149 0 1149 0 1115 0 c 2,15,-1
 761 0 l 2,16,17
 727 0 727 0 712.5 15.5 c 128,-1,18
 698 31 698 31 698 68 c 256,19,20
 698 105 698 105 712.5 120.5 c 128,-1,21
 727 136 727 136 761 136 c 2,22,-1
 870 136 l 1,23,-1
 615 501 l 1,24,-1
 354 136 l 1,25,-1
 437 136 l 2,26,27
 471 136 471 136 485.5 120.5 c 128,-1,28
 500 105 500 105 500 68 c 256,29,30
 500 31 500 31 485.5 15.5 c 128,-1,31
 471 0 471 0 437 0 c 2,32,-1
 113 0 l 2,33,34
 79 0 79 0 64.5 15.5 c 128,-1,35
 50 31 50 31 50 68 c 256,36,37
 50 105 50 105 64.5 120.5 c 128,-1,38
 79 136 79 136 113 136 c 2,39,-1
 175 136 l 1,40,-1
 524 619 l 1,41,-1
 212 1051 l 1,42,-1
 143 1051 l 2,43,44
 109 1051 109 1051 94.5 1066.5 c 128,-1,45
 80 1082 80 1082 80 1119 c 256,46,47
 80 1156 80 1156 94.5 1171.5 c 128,-1,48
 109 1187 109 1187 143 1187 c 2,49,-1
 487 1187 l 2,50,51
 521 1187 521 1187 535.5 1171.5 c 128,-1,52
 550 1156 550 1156 550 1119 c 256,53,54
 550 1082 550 1082 535.5 1066.5 c 128,-1,55
 521 1051 521 1051 487 1051 c 2,56,-1
 398 1051 l 1,57,-1
 619 735 l 1,58,-1
 841 1051 l 1,59,-1
 781 1051 l 2,60,61
 747 1051 747 1051 732.5 1066.5 c 128,-1,62
 718 1082 718 1082 718 1119 c 256,63,64
 718 1156 718 1156 732.5 1171.5 c 128,-1,65
 747 1187 747 1187 781 1187 c 2,66,-1
 1085 1187 l 2,67,0
 1119 1187 1119 1187 1133.5 1171.5 c 128,-1,1
EndSplineSet
Validated: 1
EndChar

StartChar: Y
Encoding: 89 89 60
Width: 1228
GlyphClass: 1
Flags: W
LayerCount: 2
Fore
SplineSet
1153.5 1171.5 m 128,-1,1
 1168 1156 1168 1156 1168 1119 c 256,2,3
 1168 1082 1168 1082 1153.5 1066.5 c 128,-1,4
 1139 1051 1139 1051 1105 1051 c 2,5,-1
 1037 1051 l 1,6,-1
 689 492 l 1,7,-1
 689 136 l 1,8,-1
 915 136 l 2,9,10
 949 136 949 136 963.5 120.5 c 128,-1,11
 978 105 978 105 978 68 c 256,12,13
 978 31 978 31 963.5 15.5 c 128,-1,14
 949 0 949 0 915 0 c 2,15,-1
 313 0 l 2,16,17
 279 0 279 0 264.5 15.5 c 128,-1,18
 250 31 250 31 250 68 c 256,19,20
 250 105 250 105 264.5 120.5 c 128,-1,21
 279 136 279 136 313 136 c 2,22,-1
 539 136 l 1,23,-1
 539 492 l 1,24,-1
 193 1051 l 1,25,-1
 123 1051 l 2,26,27
 89 1051 89 1051 74.5 1066.5 c 128,-1,28
 60 1082 60 1082 60 1119 c 256,29,30
 60 1156 60 1156 74.5 1171.5 c 128,-1,31
 89 1187 89 1187 123 1187 c 2,32,-1
 457 1187 l 2,33,34
 491 1187 491 1187 505.5 1171.5 c 128,-1,35
 520 1156 520 1156 520 1119 c 256,36,37
 520 1082 520 1082 505.5 1066.5 c 128,-1,38
 491 1051 491 1051 457 1051 c 2,39,-1
 364 1051 l 1,40,-1
 614 642 l 1,41,-1
 866 1051 l 1,42,-1
 801 1051 l 2,43,44
 767 1051 767 1051 752.5 1066.5 c 128,-1,45
 738 1082 738 1082 738 1119 c 256,46,47
 738 1156 738 1156 752.5 1171.5 c 128,-1,48
 767 1187 767 1187 801 1187 c 2,49,-1
 1105 1187 l 2,50,0
 1139 1187 1139 1187 1153.5 1171.5 c 128,-1,1
EndSplineSet
Validated: 1
EndChar

StartChar: Z
Encoding: 90 90 61
Width: 1228
GlyphClass: 1
Flags: W
LayerCount: 2
Fore
SplineSet
1035.5 1171.5 m 128,-1,1
 1050 1156 1050 1156 1050 1119 c 0,2,3
 1050 1094 1050 1094 1040 1080 c 2,4,-1
 377 136 l 1,5,-1
 909 136 l 1,6,-1
 909 405 l 2,7,8
 909 440 909 440 926 455 c 128,-1,9
 943 470 943 470 984 470 c 256,10,11
 1025 470 1025 470 1042 455 c 128,-1,12
 1059 440 1059 440 1059 405 c 2,13,-1
 1059 68 l 2,14,15
 1059 31 1059 31 1044.5 15.5 c 128,-1,16
 1030 0 1030 0 996 0 c 2,17,-1
 230 0 l 2,18,19
 196 0 196 0 181.5 15.5 c 128,-1,20
 167 31 167 31 167 68 c 0,21,22
 167 90 167 90 181 111 c 2,23,-1
 840 1051 l 1,24,-1
 338 1051 l 1,25,-1
 338 802 l 2,26,27
 338 767 338 767 321 752 c 128,-1,28
 304 737 304 737 263 737 c 256,29,30
 222 737 222 737 205 752 c 128,-1,31
 188 767 188 767 188 802 c 2,32,-1
 188 1119 l 2,33,34
 188 1156 188 1156 202.5 1171.5 c 128,-1,35
 217 1187 217 1187 251 1187 c 2,36,-1
 987 1187 l 2,37,0
 1021 1187 1021 1187 1035.5 1171.5 c 128,-1,1
EndSplineSet
Validated: 1
EndChar

StartChar: bracketleft
Encoding: 91 91 62
Width: 1228
GlyphClass: 1
Flags: W
LayerCount: 2
Fore
SplineSet
855.5 -205.5 m 128,-1,1
 870 -222 870 -222 870 -261 c 256,2,3
 870 -300 870 -300 855.5 -316.5 c 128,-1,4
 841 -333 841 -333 807 -333 c 2,5,-1
 393 -333 l 2,6,7
 359 -333 359 -333 344.5 -317.5 c 128,-1,8
 330 -302 330 -302 330 -265 c 2,9,-1
 330 1304 l 2,10,11
 330 1341 330 1341 344.5 1356.5 c 128,-1,12
 359 1372 359 1372 393 1372 c 2,13,-1
 807 1372 l 2,14,15
 841 1372 841 1372 855.5 1355.5 c 128,-1,16
 870 1339 870 1339 870 1300 c 256,17,18
 870 1261 870 1261 855.5 1244.5 c 128,-1,19
 841 1228 841 1228 807 1228 c 2,20,-1
 480 1228 l 1,21,-1
 480 -189 l 1,22,-1
 807 -189 l 2,23,0
 841 -189 841 -189 855.5 -205.5 c 128,-1,1
EndSplineSet
Validated: 1
Substitution2: "'rtla' Right to Left Alternates lookup 0 subtable" bracketright
EndChar

StartChar: backslash
Encoding: 92 92 63
Width: 1228
GlyphClass: 1
Flags: W
LayerCount: 2
Fore
SplineSet
330.5 1384 m 128,-1,1
 348 1374 348 1374 355 1358 c 2,2,-1
 1027 -285 l 2,3,4
 1030 -294 1030 -294 1030 -302 c 0,5,6
 1030 -325 1030 -325 1004 -340 c 128,-1,7
 978 -355 978 -355 938 -355 c 0,8,9
 915 -355 915 -355 897.5 -345 c 128,-1,10
 880 -335 880 -335 873 -319 c 2,11,-1
 201 1324 l 2,12,13
 198 1333 198 1333 198 1341 c 0,14,15
 198 1364 198 1364 224 1379 c 128,-1,16
 250 1394 250 1394 290 1394 c 0,17,0
 313 1394 313 1394 330.5 1384 c 128,-1,1
EndSplineSet
Validated: 1
EndChar

StartChar: bracketright
Encoding: 93 93 64
Width: 1228
GlyphClass: 1
Flags: W
LayerCount: 2
Fore
SplineSet
883.5 1356.5 m 128,-1,1
 898 1341 898 1341 898 1304 c 2,2,-1
 898 -265 l 2,3,4
 898 -302 898 -302 883.5 -317.5 c 128,-1,5
 869 -333 869 -333 835 -333 c 2,6,-1
 421 -333 l 2,7,8
 387 -333 387 -333 372.5 -316.5 c 128,-1,9
 358 -300 358 -300 358 -261 c 256,10,11
 358 -222 358 -222 372.5 -205.5 c 128,-1,12
 387 -189 387 -189 421 -189 c 2,13,-1
 748 -189 l 1,14,-1
 748 1228 l 1,15,-1
 421 1228 l 2,16,17
 387 1228 387 1228 372.5 1244.5 c 128,-1,18
 358 1261 358 1261 358 1300 c 256,19,20
 358 1339 358 1339 372.5 1355.5 c 128,-1,21
 387 1372 387 1372 421 1372 c 2,22,-1
 835 1372 l 2,23,0
 869 1372 869 1372 883.5 1356.5 c 128,-1,1
EndSplineSet
Validated: 1
Substitution2: "'rtla' Right to Left Alternates lookup 0 subtable" bracketleft
EndChar

StartChar: asciicircum
Encoding: 94 94 65
Width: 1228
GlyphClass: 1
Flags: W
LayerCount: 2
Fore
SplineSet
657 1200 m 128,-1,1
 672 1191 672 1191 682 1172 c 2,2,-1
 990 581 l 2,3,4
 996 571 996 571 996 560 c 0,5,6
 996 543 996 543 982 529.5 c 128,-1,7
 968 516 968 516 946 509 c 0,8,9
 928 502 928 502 905 502 c 0,10,11
 886 502 886 502 871.5 508.5 c 128,-1,12
 857 515 857 515 851 527 c 2,13,-1
 614 1007 l 1,14,-1
 377 527 l 2,15,16
 371 515 371 515 356.5 508.5 c 128,-1,17
 342 502 342 502 323 502 c 0,18,19
 300 502 300 502 282 509 c 0,20,21
 260 516 260 516 246 529.5 c 128,-1,22
 232 543 232 543 232 560 c 0,23,24
 232 571 232 571 238 581 c 2,25,-1
 546 1172 l 2,26,27
 556 1191 556 1191 571 1200 c 128,-1,28
 586 1209 586 1209 614 1209 c 256,29,0
 642 1209 642 1209 657 1200 c 128,-1,1
EndSplineSet
Validated: 1
EndChar

StartChar: underscore
Encoding: 95 95 66
Width: 1228
GlyphClass: 1
Flags: W
LayerCount: 2
Fore
SplineSet
1250.5 -265 m 128,-1,1
 1256 -278 1256 -278 1256 -320 c 256,2,3
 1256 -362 1256 -362 1250.5 -375 c 128,-1,4
 1245 -388 1245 -388 1233 -388 c 2,5,-1
 -5 -388 l 2,6,7
 -17 -388 -17 -388 -22.5 -375 c 128,-1,8
 -28 -362 -28 -362 -28 -320 c 256,9,10
 -28 -278 -28 -278 -22.5 -265 c 128,-1,11
 -17 -252 -17 -252 -5 -252 c 2,12,-1
 1233 -252 l 2,13,0
 1245 -252 1245 -252 1250.5 -265 c 128,-1,1
EndSplineSet
Validated: 1
EndChar

StartChar: grave
Encoding: 96 96 67
Width: 1228
GlyphClass: 1
Flags: W
LayerCount: 2
Fore
SplineSet
811 1115 m 0,1,2
 811 1090 811 1090 787 1063 c 0,3,4
 765 1038 765 1038 741 1038 c 0,5,6
 727 1038 727 1038 709 1048 c 2,7,-1
 335 1267 l 2,8,9
 313 1280 313 1280 313 1306 c 0,10,11
 313 1335 313 1335 343 1374 c 0,12,13
 376 1415 376 1415 410 1415 c 0,14,15
 429 1415 429 1415 447 1402 c 2,16,-1
 795 1146 l 2,17,0
 811 1134 811 1134 811 1115 c 0,1,2
EndSplineSet
Validated: 1
EndChar

StartChar: a
Encoding: 97 97 68
Width: 1228
GlyphClass: 1
Flags: W
LayerCount: 2
Fore
SplineSet
900 862 m 128,-1,1
 994 778 994 778 994 613 c 2,2,-1
 994 215 l 2,3,4
 994 136 994 136 1060 136 c 2,5,-1
 1095 136 l 2,6,7
 1129 136 1129 136 1143.5 120.5 c 128,-1,8
 1158 105 1158 105 1158 68 c 256,9,10
 1158 31 1158 31 1143.5 15.5 c 128,-1,11
 1129 0 1129 0 1095 0 c 2,12,-1
 1031 0 l 2,13,14
 966 0 966 0 919.5 32.5 c 128,-1,15
 873 65 873 65 859 128 c 1,16,17
 777 56 777 56 681.5 17 c 128,-1,18
 586 -22 586 -22 479 -22 c 0,19,20
 378 -22 378 -22 300.5 12.5 c 128,-1,21
 223 47 223 47 179 113 c 128,-1,22
 135 179 135 179 135 270 c 0,23,24
 135 428 135 428 248 503.5 c 128,-1,25
 361 579 361 579 540 579 c 0,26,27
 699 579 699 579 844 528 c 1,28,-1
 844 613 l 2,29,30
 844 710 844 710 789.5 755.5 c 128,-1,31
 735 801 735 801 614 801 c 0,32,33
 539 801 539 801 458 780 c 128,-1,34
 377 759 377 759 304 722 c 0,35,36
 287 713 287 713 273 713 c 0,37,38
 240 713 240 713 218 761 c 0,39,40
 207 785 207 785 207 801 c 0,41,42
 207 836 207 836 244 855 c 0,43,44
 328 899 328 899 424.5 922.5 c 128,-1,45
 521 946 521 946 618 946 c 0,46,0
 806 946 806 946 900 862 c 128,-1,1
359.5 398.5 m 128,-1,48
 293 359 293 359 293 273 c 0,49,50
 293 200 293 200 343.5 159.5 c 128,-1,51
 394 119 394 119 485 119 c 0,52,53
 684 119 684 119 844 284 c 1,54,-1
 844 393 l 1,55,56
 776 415 776 415 698 426.5 c 128,-1,57
 620 438 620 438 541 438 c 0,58,47
 426 438 426 438 359.5 398.5 c 128,-1,48
EndSplineSet
Validated: 1
EndChar

StartChar: b
Encoding: 98 98 69
Width: 1228
GlyphClass: 1
Flags: W
LayerCount: 2
Fore
SplineSet
337.5 1296.5 m 128,-1,1
 352 1281 352 1281 352 1244 c 2,2,-1
 352 781 l 1,3,4
 481 946 481 946 669 946 c 0,5,6
 793 946 793 946 891 887.5 c 128,-1,7
 989 829 989 829 1045 719.5 c 128,-1,8
 1101 610 1101 610 1101 462 c 256,9,10
 1101 314 1101 314 1045 204.5 c 128,-1,11
 989 95 989 95 891 36.5 c 128,-1,12
 793 -22 793 -22 669 -22 c 0,13,14
 571 -22 571 -22 488 22 c 128,-1,15
 405 66 405 66 342 148 c 1,16,-1
 342 68 l 2,17,18
 342 31 342 31 327.5 15.5 c 128,-1,19
 313 0 313 0 279 0 c 2,20,-1
 120 0 l 2,21,22
 86 0 86 0 71.5 15.5 c 128,-1,23
 57 31 57 31 57 68 c 256,24,25
 57 105 57 105 71.5 120.5 c 128,-1,26
 86 136 86 136 120 136 c 2,27,-1
 202 136 l 1,28,-1
 202 1176 l 1,29,-1
 100 1176 l 2,30,31
 66 1176 66 1176 51.5 1191.5 c 128,-1,32
 37 1207 37 1207 37 1244 c 256,33,34
 37 1281 37 1281 51.5 1296.5 c 128,-1,35
 66 1312 66 1312 100 1312 c 2,36,-1
 289 1312 l 2,37,0
 323 1312 323 1312 337.5 1296.5 c 128,-1,1
500.5 758 m 128,-1,39
 431 718 431 718 391.5 642 c 128,-1,40
 352 566 352 566 352 462 c 256,41,42
 352 358 352 358 391.5 282 c 128,-1,43
 431 206 431 206 500.5 166 c 128,-1,44
 570 126 570 126 659 126 c 256,45,46
 748 126 748 126 812 168.5 c 128,-1,47
 876 211 876 211 909.5 287 c 128,-1,48
 943 363 943 363 943 462 c 256,49,50
 943 561 943 561 909.5 637 c 128,-1,51
 876 713 876 713 812 755.5 c 128,-1,52
 748 798 748 798 659 798 c 256,53,38
 570 798 570 798 500.5 758 c 128,-1,39
EndSplineSet
Validated: 1
EndChar

StartChar: c
Encoding: 99 99 70
Width: 1228
GlyphClass: 1
Flags: W
LayerCount: 2
Fore
SplineSet
1032 931 m 128,-1,1
 1049 916 1049 916 1049 881 c 2,2,-1
 1049 591 l 2,3,4
 1049 556 1049 556 1032 541 c 128,-1,5
 1015 526 1015 526 974 526 c 256,6,7
 933 526 933 526 916 541 c 128,-1,8
 899 556 899 556 899 591 c 0,9,10
 899 652 899 652 867 699 c 128,-1,11
 835 746 835 746 771.5 772 c 128,-1,12
 708 798 708 798 619 798 c 0,13,14
 523 798 523 798 447 755 c 128,-1,15
 371 712 371 712 328 635 c 128,-1,16
 285 558 285 558 285 462 c 0,17,18
 285 365 285 365 325.5 288.5 c 128,-1,19
 366 212 366 212 439.5 169 c 128,-1,20
 513 126 513 126 609 126 c 0,21,22
 701 126 701 126 787.5 154.5 c 128,-1,23
 874 183 874 183 945 237 c 0,24,25
 966 253 966 253 984 253 c 0,26,27
 1013 253 1013 253 1038 212 c 0,28,29
 1053 187 1053 187 1053 164 c 0,30,31
 1053 129 1053 129 1021 106 c 0,32,33
 941 46 941 46 832 12 c 128,-1,34
 723 -22 723 -22 609 -22 c 0,35,36
 466 -22 466 -22 356.5 41 c 128,-1,37
 247 104 247 104 187 214 c 128,-1,38
 127 324 127 324 127 462 c 256,39,40
 127 600 127 600 188 710 c 128,-1,41
 249 820 249 820 358.5 883 c 128,-1,42
 468 946 468 946 609 946 c 0,43,44
 698 946 698 946 772.5 913.5 c 128,-1,45
 847 881 847 881 899 821 c 1,46,-1
 899 881 l 2,47,48
 899 916 899 916 916 931 c 128,-1,49
 933 946 933 946 974 946 c 256,50,0
 1015 946 1015 946 1032 931 c 128,-1,1
EndSplineSet
Validated: 1
EndChar

StartChar: d
Encoding: 100 100 71
Width: 1228
GlyphClass: 1
Flags: W
LayerCount: 2
Fore
SplineSet
1011.5 1296.5 m 128,-1,1
 1026 1281 1026 1281 1026 1244 c 2,2,-1
 1026 136 l 1,3,-1
 1108 136 l 2,4,5
 1142 136 1142 136 1156.5 120.5 c 128,-1,6
 1171 105 1171 105 1171 68 c 256,7,8
 1171 31 1171 31 1156.5 15.5 c 128,-1,9
 1142 0 1142 0 1108 0 c 2,10,-1
 949 0 l 2,11,12
 915 0 915 0 900.5 15.5 c 128,-1,13
 886 31 886 31 886 68 c 2,14,-1
 886 148 l 1,15,16
 823 66 823 66 740 22 c 128,-1,17
 657 -22 657 -22 559 -22 c 0,18,19
 435 -22 435 -22 337 36.5 c 128,-1,20
 239 95 239 95 183 204.5 c 128,-1,21
 127 314 127 314 127 462 c 256,22,23
 127 610 127 610 183 719.5 c 128,-1,24
 239 829 239 829 337 887.5 c 128,-1,25
 435 946 435 946 559 946 c 0,26,27
 747 946 747 946 876 781 c 1,28,-1
 876 1176 l 1,29,-1
 714 1176 l 2,30,31
 680 1176 680 1176 665.5 1191.5 c 128,-1,32
 651 1207 651 1207 651 1244 c 256,33,34
 651 1281 651 1281 665.5 1296.5 c 128,-1,35
 680 1312 680 1312 714 1312 c 2,36,-1
 963 1312 l 2,37,0
 997 1312 997 1312 1011.5 1296.5 c 128,-1,1
416 755.5 m 128,-1,39
 352 713 352 713 318.5 637 c 128,-1,40
 285 561 285 561 285 462 c 256,41,42
 285 363 285 363 318.5 287 c 128,-1,43
 352 211 352 211 416 168.5 c 128,-1,44
 480 126 480 126 569 126 c 256,45,46
 658 126 658 126 727.5 166 c 128,-1,47
 797 206 797 206 836.5 282 c 128,-1,48
 876 358 876 358 876 462 c 256,49,50
 876 566 876 566 836.5 642 c 128,-1,51
 797 718 797 718 727.5 758 c 128,-1,52
 658 798 658 798 569 798 c 256,53,38
 480 798 480 798 416 755.5 c 128,-1,39
EndSplineSet
Validated: 1
EndChar

StartChar: e
Encoding: 101 101 72
Width: 1228
GlyphClass: 1
Flags: W
LayerCount: 2
Fore
SplineSet
870.5 887.5 m 128,-1,1
 973 829 973 829 1028 725.5 c 128,-1,2
 1083 622 1083 622 1091 487 c 0,3,4
 1091 453 1091 453 1076.5 439 c 128,-1,5
 1062 425 1062 425 1028 425 c 2,6,-1
 304 425 l 1,7,8
 311 276 311 276 392.5 199.5 c 128,-1,9
 474 123 474 123 623 123 c 0,10,11
 715 123 715 123 805 146.5 c 128,-1,12
 895 170 895 170 963 209 c 0,13,14
 980 218 980 218 994 218 c 0,15,16
 1029 218 1029 218 1051 165 c 0,17,18
 1060 144 1060 144 1060 127 c 0,19,20
 1060 87 1060 87 1016 65 c 0,21,22
 939 26 939 26 834 2 c 128,-1,23
 729 -22 729 -22 623 -22 c 0,24,25
 472 -22 472 -22 365 36 c 128,-1,26
 258 94 258 94 202 203 c 128,-1,27
 146 312 146 312 146 462 c 0,28,29
 146 605 146 605 207 715 c 128,-1,30
 268 825 268 825 376 885.5 c 128,-1,31
 484 946 484 946 623 946 c 0,32,0
 768 946 768 946 870.5 887.5 c 128,-1,1
419.5 738.5 m 128,-1,34
 339 676 339 676 314 565 c 1,35,-1
 925 565 l 1,36,37
 904 680 904 680 828.5 740.5 c 128,-1,38
 753 801 753 801 623 801 c 0,39,33
 500 801 500 801 419.5 738.5 c 128,-1,34
EndSplineSet
Validated: 1
EndChar

StartChar: f
Encoding: 102 102 73
Width: 1228
GlyphClass: 1
Flags: W
LayerCount: 2
Fore
SplineSet
1066 1266 m 0,1,2
 1114 1248 1114 1248 1114 1200 c 0,3,4
 1114 1189 1114 1189 1111 1174 c 0,5,6
 1097 1117 1097 1117 1061 1117 c 0,7,8
 1050 1117 1050 1117 1037 1122 c 0,9,10
 910 1171 910 1171 800 1171 c 0,11,12
 598 1171 598 1171 598 954 c 2,13,-1
 598 844 l 1,14,-1
 944 844 l 2,15,16
 978 844 978 844 992.5 828.5 c 128,-1,17
 1007 813 1007 813 1007 776 c 256,18,19
 1007 739 1007 739 992.5 723.5 c 128,-1,20
 978 708 978 708 944 708 c 2,21,-1
 598 708 l 1,22,-1
 598 136 l 1,23,-1
 944 136 l 2,24,25
 978 136 978 136 992.5 120.5 c 128,-1,26
 1007 105 1007 105 1007 68 c 256,27,28
 1007 31 1007 31 992.5 15.5 c 128,-1,29
 978 0 978 0 944 0 c 2,30,-1
 250 0 l 2,31,32
 216 0 216 0 201.5 15.5 c 128,-1,33
 187 31 187 31 187 68 c 256,34,35
 187 105 187 105 201.5 120.5 c 128,-1,36
 216 136 216 136 250 136 c 2,37,-1
 448 136 l 1,38,-1
 448 708 l 1,39,-1
 250 708 l 2,40,41
 216 708 216 708 201.5 723.5 c 128,-1,42
 187 739 187 739 187 776 c 256,43,44
 187 813 187 813 201.5 828.5 c 128,-1,45
 216 844 216 844 250 844 c 2,46,-1
 448 844 l 1,47,-1
 448 967 l 2,48,49
 448 1132 448 1132 540.5 1224.5 c 128,-1,50
 633 1317 633 1317 800 1317 c 0,51,0
 934 1317 934 1317 1066 1266 c 0,1,2
EndSplineSet
Validated: 1
EndChar

StartChar: g
Encoding: 103 103 74
Width: 1228
GlyphClass: 1
Flags: W
LayerCount: 2
Fore
SplineSet
740 902 m 128,-1,1
 823 858 823 858 886 776 c 1,2,-1
 886 856 l 2,3,4
 886 893 886 893 900.5 908.5 c 128,-1,5
 915 924 915 924 949 924 c 2,6,-1
 1108 924 l 2,7,8
 1142 924 1142 924 1156.5 908.5 c 128,-1,9
 1171 893 1171 893 1171 856 c 256,10,11
 1171 819 1171 819 1156.5 803.5 c 128,-1,12
 1142 788 1142 788 1108 788 c 2,13,-1
 1026 788 l 1,14,-1
 1026 -30 l 2,15,16
 1026 -149 1026 -149 975.5 -234.5 c 128,-1,17
 925 -320 925 -320 829 -365 c 128,-1,18
 733 -410 733 -410 598 -410 c 0,19,20
 502 -410 502 -410 404 -393.5 c 128,-1,21
 306 -377 306 -377 221 -346 c 0,22,23
 182 -332 182 -332 182 -293 c 0,24,25
 182 -277 182 -277 190 -253 c 0,26,27
 208 -198 208 -198 247 -198 c 0,28,29
 258 -198 258 -198 269 -202 c 0,30,31
 347 -230 347 -230 433 -246 c 128,-1,32
 519 -262 519 -262 598 -262 c 0,33,34
 736 -262 736 -262 806 -196.5 c 128,-1,35
 876 -131 876 -131 876 -17 c 2,36,-1
 876 184 l 1,37,38
 752 28 752 28 559 28 c 0,39,40
 435 28 435 28 337 83.5 c 128,-1,41
 239 139 239 139 183 243 c 128,-1,42
 127 347 127 347 127 487 c 256,43,44
 127 627 127 627 183 731 c 128,-1,45
 239 835 239 835 337 890.5 c 128,-1,46
 435 946 435 946 559 946 c 0,47,0
 657 946 657 946 740 902 c 128,-1,1
416 758.5 m 128,-1,49
 352 719 352 719 318.5 648.5 c 128,-1,50
 285 578 285 578 285 487 c 256,51,52
 285 396 285 396 318.5 325.5 c 128,-1,53
 352 255 352 255 416 215.5 c 128,-1,54
 480 176 480 176 569 176 c 256,55,56
 658 176 658 176 727.5 213 c 128,-1,57
 797 250 797 250 836.5 320.5 c 128,-1,58
 876 391 876 391 876 487 c 256,59,60
 876 583 876 583 836.5 653.5 c 128,-1,61
 797 724 797 724 727.5 761 c 128,-1,62
 658 798 658 798 569 798 c 256,63,48
 480 798 480 798 416 758.5 c 128,-1,49
EndSplineSet
Validated: 1
EndChar

StartChar: h
Encoding: 104 104 75
Width: 1228
GlyphClass: 1
Flags: W
LayerCount: 2
Fore
SplineSet
367.5 1296.5 m 128,-1,1
 382 1281 382 1281 382 1244 c 2,2,-1
 382 746 l 1,3,4
 447 843 447 843 532.5 894.5 c 128,-1,5
 618 946 618 946 717 946 c 0,6,7
 808 946 808 946 875 906.5 c 128,-1,8
 942 867 942 867 978 793 c 128,-1,9
 1014 719 1014 719 1014 620 c 2,10,-1
 1014 136 l 1,11,-1
 1096 136 l 2,12,13
 1130 136 1130 136 1144.5 120.5 c 128,-1,14
 1159 105 1159 105 1159 68 c 256,15,16
 1159 31 1159 31 1144.5 15.5 c 128,-1,17
 1130 0 1130 0 1096 0 c 2,18,-1
 772 0 l 2,19,20
 738 0 738 0 723.5 15.5 c 128,-1,21
 709 31 709 31 709 68 c 256,22,23
 709 105 709 105 723.5 120.5 c 128,-1,24
 738 136 738 136 772 136 c 2,25,-1
 864 136 l 1,26,-1
 864 605 l 2,27,28
 864 694 864 694 823 746 c 128,-1,29
 782 798 782 798 702 798 c 0,30,31
 617 798 617 798 543.5 749 c 128,-1,32
 470 700 470 700 426 614 c 128,-1,33
 382 528 382 528 382 422 c 2,34,-1
 382 136 l 1,35,-1
 474 136 l 2,36,37
 508 136 508 136 522.5 120.5 c 128,-1,38
 537 105 537 105 537 68 c 256,39,40
 537 31 537 31 522.5 15.5 c 128,-1,41
 508 0 508 0 474 0 c 2,42,-1
 150 0 l 2,43,44
 116 0 116 0 101.5 15.5 c 128,-1,45
 87 31 87 31 87 68 c 256,46,47
 87 105 87 105 101.5 120.5 c 128,-1,48
 116 136 116 136 150 136 c 2,49,-1
 232 136 l 1,50,-1
 232 1176 l 1,51,-1
 140 1176 l 2,52,53
 106 1176 106 1176 91.5 1191.5 c 128,-1,54
 77 1207 77 1207 77 1244 c 256,55,56
 77 1281 77 1281 91.5 1296.5 c 128,-1,57
 106 1312 106 1312 140 1312 c 2,58,-1
 319 1312 l 2,59,0
 353 1312 353 1312 367.5 1296.5 c 128,-1,1
EndSplineSet
Validated: 1
EndChar

StartChar: k
Encoding: 107 107 78
Width: 1228
GlyphClass: 1
Flags: W
LayerCount: 2
Fore
SplineSet
1144.5 120.5 m 128,-1,1
 1159 105 1159 105 1159 68 c 256,2,3
 1159 31 1159 31 1144.5 15.5 c 128,-1,4
 1130 0 1130 0 1096 0 c 2,5,-1
 772 0 l 2,6,7
 738 0 738 0 723.5 15.5 c 128,-1,8
 709 31 709 31 709 68 c 256,9,10
 709 105 709 105 723.5 120.5 c 128,-1,11
 738 136 738 136 772 136 c 2,12,-1
 844 136 l 1,13,-1
 593 434 l 1,14,-1
 411 274 l 1,15,-1
 411 136 l 1,16,-1
 484 136 l 2,17,18
 518 136 518 136 532.5 120.5 c 128,-1,19
 547 105 547 105 547 68 c 256,20,21
 547 31 547 31 532.5 15.5 c 128,-1,22
 518 0 518 0 484 0 c 2,23,-1
 150 0 l 2,24,25
 116 0 116 0 101.5 15.5 c 128,-1,26
 87 31 87 31 87 68 c 256,27,28
 87 105 87 105 101.5 120.5 c 128,-1,29
 116 136 116 136 150 136 c 2,30,-1
 261 136 l 1,31,-1
 261 1176 l 1,32,-1
 130 1176 l 2,33,34
 96 1176 96 1176 81.5 1191.5 c 128,-1,35
 67 1207 67 1207 67 1244 c 256,36,37
 67 1281 67 1281 81.5 1296.5 c 128,-1,38
 96 1312 96 1312 130 1312 c 2,39,-1
 348 1312 l 2,40,41
 382 1312 382 1312 396.5 1296.5 c 128,-1,42
 411 1281 411 1281 411 1244 c 2,43,-1
 411 452 l 1,44,-1
 792 788 l 1,45,-1
 721 788 l 2,46,47
 687 788 687 788 672.5 803.5 c 128,-1,48
 658 819 658 819 658 856 c 256,49,50
 658 893 658 893 672.5 908.5 c 128,-1,51
 687 924 687 924 721 924 c 2,52,-1
 1055 924 l 2,53,54
 1089 924 1089 924 1103.5 908.5 c 128,-1,55
 1118 893 1118 893 1118 856 c 256,56,57
 1118 819 1118 819 1103.5 803.5 c 128,-1,58
 1089 788 1089 788 1055 788 c 2,59,-1
 996 788 l 1,60,-1
 702 529 l 1,61,-1
 1038 136 l 1,62,-1
 1096 136 l 2,63,0
 1130 136 1130 136 1144.5 120.5 c 128,-1,1
EndSplineSet
Validated: 1
EndChar

StartChar: l
Encoding: 108 108 79
Width: 1228
GlyphClass: 1
Flags: W
LayerCount: 2
Fore
SplineSet
688.5 1296.5 m 128,-1,1
 703 1281 703 1281 703 1244 c 2,2,-1
 703 136 l 1,3,-1
 1024 136 l 2,4,5
 1058 136 1058 136 1072.5 120.5 c 128,-1,6
 1087 105 1087 105 1087 68 c 256,7,8
 1087 31 1087 31 1072.5 15.5 c 128,-1,9
 1058 0 1058 0 1024 0 c 2,10,-1
 240 0 l 2,11,12
 206 0 206 0 191.5 15.5 c 128,-1,13
 177 31 177 31 177 68 c 256,14,15
 177 105 177 105 191.5 120.5 c 128,-1,16
 206 136 206 136 240 136 c 2,17,-1
 553 136 l 1,18,-1
 553 1176 l 1,19,-1
 280 1176 l 2,20,21
 246 1176 246 1176 231.5 1191.5 c 128,-1,22
 217 1207 217 1207 217 1244 c 256,23,24
 217 1281 217 1281 231.5 1296.5 c 128,-1,25
 246 1312 246 1312 280 1312 c 2,26,-1
 640 1312 l 2,27,0
 674 1312 674 1312 688.5 1296.5 c 128,-1,1
EndSplineSet
Validated: 1
EndChar

StartChar: m
Encoding: 109 109 80
Width: 1228
GlyphClass: 1
Flags: W
LayerCount: 2
Fore
SplineSet
1239.5 120.5 m 128,-1,1
 1254 105 1254 105 1254 68 c 256,2,3
 1254 31 1254 31 1239.5 15.5 c 128,-1,4
 1225 0 1225 0 1191 0 c 2,5,-1
 1042 0 l 2,6,7
 1008 0 1008 0 993.5 15.5 c 128,-1,8
 979 31 979 31 979 68 c 2,9,-1
 979 660 l 2,10,11
 979 729 979 729 956.5 763.5 c 128,-1,12
 934 798 934 798 884 798 c 0,13,14
 837 798 837 798 797 754.5 c 128,-1,15
 757 711 757 711 733.5 633.5 c 128,-1,16
 710 556 710 556 710 457 c 2,17,-1
 710 136 l 1,18,-1
 767 136 l 2,19,20
 801 136 801 136 815.5 120.5 c 128,-1,21
 830 105 830 105 830 68 c 256,22,23
 830 31 830 31 815.5 15.5 c 128,-1,24
 801 0 801 0 767 0 c 2,25,-1
 623 0 l 2,26,27
 589 0 589 0 574.5 15.5 c 128,-1,28
 560 31 560 31 560 68 c 2,29,-1
 560 660 l 2,30,31
 560 729 560 729 537.5 763.5 c 128,-1,32
 515 798 515 798 465 798 c 0,33,34
 418 798 418 798 378 754.5 c 128,-1,35
 338 711 338 711 314.5 633.5 c 128,-1,36
 291 556 291 556 291 457 c 2,37,-1
 291 136 l 1,38,-1
 343 136 l 2,39,40
 377 136 377 136 391.5 120.5 c 128,-1,41
 406 105 406 105 406 68 c 256,42,43
 406 31 406 31 391.5 15.5 c 128,-1,44
 377 0 377 0 343 0 c 2,45,-1
 59 0 l 2,46,47
 25 0 25 0 10.5 15.5 c 128,-1,48
 -4 31 -4 31 -4 68 c 256,49,50
 -4 105 -4 105 10.5 120.5 c 128,-1,51
 25 136 25 136 59 136 c 2,52,-1
 141 136 l 1,53,-1
 141 788 l 1,54,-1
 59 788 l 2,55,56
 25 788 25 788 10.5 803.5 c 128,-1,57
 -4 819 -4 819 -4 856 c 256,58,59
 -4 893 -4 893 10.5 908.5 c 128,-1,60
 25 924 25 924 59 924 c 2,61,-1
 208 924 l 2,62,63
 242 924 242 924 256.5 908.5 c 128,-1,64
 271 893 271 893 271 856 c 2,65,-1
 271 757 l 1,66,67
 314 851 314 851 374 898.5 c 128,-1,68
 434 946 434 946 504 946 c 0,69,70
 572 946 572 946 623 900 c 128,-1,71
 674 854 674 854 692 765 c 1,72,73
 781 946 781 946 922 946 c 0,74,75
 981 946 981 946 1027.5 916.5 c 128,-1,76
 1074 887 1074 887 1101.5 826.5 c 128,-1,77
 1129 766 1129 766 1129 678 c 2,78,-1
 1129 136 l 1,79,-1
 1191 136 l 2,80,0
 1225 136 1225 136 1239.5 120.5 c 128,-1,1
EndSplineSet
Validated: 1
EndChar

StartChar: n
Encoding: 110 110 81
Width: 1228
GlyphClass: 1
Flags: W
LayerCount: 2
Fore
SplineSet
885 906.5 m 128,-1,1
 952 867 952 867 988 793 c 128,-1,2
 1024 719 1024 719 1024 620 c 2,3,-1
 1024 136 l 1,4,-1
 1106 136 l 2,5,6
 1140 136 1140 136 1154.5 120.5 c 128,-1,7
 1169 105 1169 105 1169 68 c 256,8,9
 1169 31 1169 31 1154.5 15.5 c 128,-1,10
 1140 0 1140 0 1106 0 c 2,11,-1
 782 0 l 2,12,13
 748 0 748 0 733.5 15.5 c 128,-1,14
 719 31 719 31 719 68 c 256,15,16
 719 105 719 105 733.5 120.5 c 128,-1,17
 748 136 748 136 782 136 c 2,18,-1
 874 136 l 1,19,-1
 874 605 l 2,20,21
 874 694 874 694 833 746 c 128,-1,22
 792 798 792 798 712 798 c 0,23,24
 627 798 627 798 553.5 749 c 128,-1,25
 480 700 480 700 436 614 c 128,-1,26
 392 528 392 528 392 422 c 2,27,-1
 392 136 l 1,28,-1
 484 136 l 2,29,30
 518 136 518 136 532.5 120.5 c 128,-1,31
 547 105 547 105 547 68 c 256,32,33
 547 31 547 31 532.5 15.5 c 128,-1,34
 518 0 518 0 484 0 c 2,35,-1
 160 0 l 2,36,37
 126 0 126 0 111.5 15.5 c 128,-1,38
 97 31 97 31 97 68 c 256,39,40
 97 105 97 105 111.5 120.5 c 128,-1,41
 126 136 126 136 160 136 c 2,42,-1
 242 136 l 1,43,-1
 242 788 l 1,44,-1
 140 788 l 2,45,46
 106 788 106 788 91.5 803.5 c 128,-1,47
 77 819 77 819 77 856 c 256,48,49
 77 893 77 893 91.5 908.5 c 128,-1,50
 106 924 106 924 140 924 c 2,51,-1
 319 924 l 2,52,53
 353 924 353 924 367.5 908.5 c 128,-1,54
 382 893 382 893 382 856 c 2,55,-1
 382 736 l 1,56,57
 448 838 448 838 536.5 892 c 128,-1,58
 625 946 625 946 727 946 c 0,59,0
 818 946 818 946 885 906.5 c 128,-1,1
EndSplineSet
Validated: 1
EndChar

StartChar: o
Encoding: 111 111 82
Width: 1228
GlyphClass: 1
Flags: W
LayerCount: 2
Fore
SplineSet
861 884 m 128,-1,1
 971 822 971 822 1033.5 711.5 c 128,-1,2
 1096 601 1096 601 1096 462 c 256,3,4
 1096 323 1096 323 1033.5 212.5 c 128,-1,5
 971 102 971 102 861 40 c 128,-1,6
 751 -22 751 -22 614 -22 c 256,7,8
 477 -22 477 -22 367 40 c 128,-1,9
 257 102 257 102 194.5 212.5 c 128,-1,10
 132 323 132 323 132 462 c 256,11,12
 132 601 132 601 194.5 711.5 c 128,-1,13
 257 822 257 822 367 884 c 128,-1,14
 477 946 477 946 614 946 c 256,15,0
 751 946 751 946 861 884 c 128,-1,1
443.5 755.5 m 128,-1,17
 370 713 370 713 330 636.5 c 128,-1,18
 290 560 290 560 290 462 c 256,19,20
 290 364 290 364 330 287.5 c 128,-1,21
 370 211 370 211 443.5 168.5 c 128,-1,22
 517 126 517 126 614 126 c 256,23,24
 711 126 711 126 784.5 168.5 c 128,-1,25
 858 211 858 211 898 287.5 c 128,-1,26
 938 364 938 364 938 462 c 256,27,28
 938 560 938 560 898 636.5 c 128,-1,29
 858 713 858 713 784.5 755.5 c 128,-1,30
 711 798 711 798 614 798 c 256,31,16
 517 798 517 798 443.5 755.5 c 128,-1,17
EndSplineSet
Validated: 1
EndChar

StartChar: p
Encoding: 112 112 83
Width: 1228
GlyphClass: 1
Flags: W
LayerCount: 2
Fore
SplineSet
891 887.5 m 128,-1,1
 989 829 989 829 1045 719.5 c 128,-1,2
 1101 610 1101 610 1101 462 c 256,3,4
 1101 314 1101 314 1045 204.5 c 128,-1,5
 989 95 989 95 891 36.5 c 128,-1,6
 793 -22 793 -22 669 -22 c 0,7,8
 481 -22 481 -22 352 143 c 1,9,-1
 352 -252 l 1,10,-1
 524 -252 l 2,11,12
 558 -252 558 -252 572.5 -267.5 c 128,-1,13
 587 -283 587 -283 587 -320 c 256,14,15
 587 -357 587 -357 572.5 -372.5 c 128,-1,16
 558 -388 558 -388 524 -388 c 2,17,-1
 100 -388 l 2,18,19
 66 -388 66 -388 51.5 -372.5 c 128,-1,20
 37 -357 37 -357 37 -320 c 256,21,22
 37 -283 37 -283 51.5 -267.5 c 128,-1,23
 66 -252 66 -252 100 -252 c 2,24,-1
 202 -252 l 1,25,-1
 202 788 l 1,26,-1
 120 788 l 2,27,28
 86 788 86 788 71.5 803.5 c 128,-1,29
 57 819 57 819 57 856 c 256,30,31
 57 893 57 893 71.5 908.5 c 128,-1,32
 86 924 86 924 120 924 c 2,33,-1
 279 924 l 2,34,35
 313 924 313 924 327.5 908.5 c 128,-1,36
 342 893 342 893 342 856 c 2,37,-1
 342 776 l 1,38,39
 405 858 405 858 488 902 c 128,-1,40
 571 946 571 946 669 946 c 0,41,0
 793 946 793 946 891 887.5 c 128,-1,1
500.5 758 m 128,-1,43
 431 718 431 718 391.5 642 c 128,-1,44
 352 566 352 566 352 462 c 256,45,46
 352 358 352 358 391.5 282 c 128,-1,47
 431 206 431 206 500.5 166 c 128,-1,48
 570 126 570 126 659 126 c 256,49,50
 748 126 748 126 812 168.5 c 128,-1,51
 876 211 876 211 909.5 287 c 128,-1,52
 943 363 943 363 943 462 c 256,53,54
 943 561 943 561 909.5 637 c 128,-1,55
 876 713 876 713 812 755.5 c 128,-1,56
 748 798 748 798 659 798 c 256,57,42
 570 798 570 798 500.5 758 c 128,-1,43
EndSplineSet
Validated: 1
EndChar

StartChar: q
Encoding: 113 113 84
Width: 1228
GlyphClass: 1
Flags: W
LayerCount: 2
Fore
SplineSet
740 902 m 128,-1,1
 823 858 823 858 886 776 c 1,2,-1
 886 856 l 2,3,4
 886 893 886 893 900.5 908.5 c 128,-1,5
 915 924 915 924 949 924 c 2,6,-1
 1108 924 l 2,7,8
 1142 924 1142 924 1156.5 908.5 c 128,-1,9
 1171 893 1171 893 1171 856 c 256,10,11
 1171 819 1171 819 1156.5 803.5 c 128,-1,12
 1142 788 1142 788 1108 788 c 2,13,-1
 1026 788 l 1,14,-1
 1026 -252 l 1,15,-1
 1128 -252 l 2,16,17
 1162 -252 1162 -252 1176.5 -267.5 c 128,-1,18
 1191 -283 1191 -283 1191 -320 c 256,19,20
 1191 -357 1191 -357 1176.5 -372.5 c 128,-1,21
 1162 -388 1162 -388 1128 -388 c 2,22,-1
 704 -388 l 2,23,24
 670 -388 670 -388 655.5 -372.5 c 128,-1,25
 641 -357 641 -357 641 -320 c 256,26,27
 641 -283 641 -283 655.5 -267.5 c 128,-1,28
 670 -252 670 -252 704 -252 c 2,29,-1
 876 -252 l 1,30,-1
 876 143 l 1,31,32
 747 -22 747 -22 559 -22 c 0,33,34
 435 -22 435 -22 337 36.5 c 128,-1,35
 239 95 239 95 183 204.5 c 128,-1,36
 127 314 127 314 127 462 c 256,37,38
 127 610 127 610 183 719.5 c 128,-1,39
 239 829 239 829 337 887.5 c 128,-1,40
 435 946 435 946 559 946 c 0,41,0
 657 946 657 946 740 902 c 128,-1,1
416 755.5 m 128,-1,43
 352 713 352 713 318.5 637 c 128,-1,44
 285 561 285 561 285 462 c 256,45,46
 285 363 285 363 318.5 287 c 128,-1,47
 352 211 352 211 416 168.5 c 128,-1,48
 480 126 480 126 569 126 c 256,49,50
 658 126 658 126 727.5 166 c 128,-1,51
 797 206 797 206 836.5 282 c 128,-1,52
 876 358 876 358 876 462 c 256,53,54
 876 566 876 566 836.5 642 c 128,-1,55
 797 718 797 718 727.5 758 c 128,-1,56
 658 798 658 798 569 798 c 256,57,42
 480 798 480 798 416 755.5 c 128,-1,43
EndSplineSet
Validated: 1
EndChar

StartChar: r
Encoding: 114 114 85
Width: 1228
GlyphClass: 1
Flags: W
LayerCount: 2
Fore
SplineSet
1066 906 m 0,1,2
 1106 882 1106 882 1106 844 c 0,3,4
 1106 826 1106 826 1097 802 c 0,5,6
 1076 745 1076 745 1039 745 c 0,7,8
 1024 745 1024 745 1011 753 c 0,9,10
 962 780 962 780 906 780 c 0,11,12
 816 780 816 780 725 717.5 c 128,-1,13
 634 655 634 655 575.5 551 c 128,-1,14
 517 447 517 447 517 330 c 2,15,-1
 517 136 l 1,16,-1
 854 136 l 2,17,18
 888 136 888 136 902.5 120.5 c 128,-1,19
 917 105 917 105 917 68 c 256,20,21
 917 31 917 31 902.5 15.5 c 128,-1,22
 888 0 888 0 854 0 c 2,23,-1
 210 0 l 2,24,25
 176 0 176 0 161.5 15.5 c 128,-1,26
 147 31 147 31 147 68 c 256,27,28
 147 105 147 105 161.5 120.5 c 128,-1,29
 176 136 176 136 210 136 c 2,30,-1
 367 136 l 1,31,-1
 367 788 l 1,32,-1
 240 788 l 2,33,34
 206 788 206 788 191.5 803.5 c 128,-1,35
 177 819 177 819 177 856 c 256,36,37
 177 893 177 893 191.5 908.5 c 128,-1,38
 206 924 206 924 240 924 c 2,39,-1
 444 924 l 2,40,41
 478 924 478 924 492.5 908.5 c 128,-1,42
 507 893 507 893 507 856 c 2,43,-1
 507 654 l 1,44,45
 555 742 555 742 623 808 c 128,-1,46
 691 874 691 874 768 910 c 128,-1,47
 845 946 845 946 920 946 c 0,48,0
 998 946 998 946 1066 906 c 0,1,2
EndSplineSet
Validated: 1
EndChar

StartChar: s
Encoding: 115 115 86
Width: 1228
GlyphClass: 1
Flags: W
LayerCount: 2
Fore
SplineSet
987 931 m 128,-1,1
 1004 916 1004 916 1004 881 c 2,2,-1
 1004 691 l 2,3,4
 1004 656 1004 656 987 641 c 128,-1,5
 970 626 970 626 929 626 c 0,6,7
 895 626 895 626 881 652 c 0,8,9
 838 734 838 734 756 767.5 c 128,-1,10
 674 801 674 801 548 801 c 0,11,12
 451 801 451 801 396.5 766.5 c 128,-1,13
 342 732 342 732 342 670 c 0,14,15
 342 638 342 638 362.5 618 c 128,-1,16
 383 598 383 598 423 585 c 0,17,18
 456 574 456 574 499.5 568 c 128,-1,19
 543 562 543 562 612 555 c 0,20,21
 709 544 709 544 768.5 534.5 c 128,-1,22
 828 525 828 525 881 506 c 0,23,24
 961 477 961 477 1005.5 422 c 128,-1,25
 1050 367 1050 367 1050 277 c 256,26,27
 1050 187 1050 187 1004.5 119.5 c 128,-1,28
 959 52 959 52 871.5 15 c 128,-1,29
 784 -22 784 -22 662 -22 c 0,30,31
 554 -22 554 -22 472 8 c 128,-1,32
 390 38 390 38 329 99 c 1,33,-1
 329 43 l 2,34,35
 329 8 329 8 312 -7 c 128,-1,36
 295 -22 295 -22 254 -22 c 256,37,38
 213 -22 213 -22 196 -7 c 128,-1,39
 179 8 179 8 179 43 c 2,40,-1
 179 283 l 2,41,42
 179 318 179 318 196 333 c 128,-1,43
 213 348 213 348 254 348 c 0,44,45
 275 348 275 348 287 338.5 c 128,-1,46
 299 329 299 329 308 307 c 0,47,48
 344 211 344 211 428 167 c 128,-1,49
 512 123 512 123 652 123 c 0,50,51
 768 123 768 123 830 165 c 128,-1,52
 892 207 892 207 892 277 c 0,53,54
 892 311 892 311 870 333 c 128,-1,55
 848 355 848 355 807 369 c 0,56,57
 772 380 772 380 726.5 387.5 c 128,-1,58
 681 395 681 395 611 402 c 0,59,60
 517 412 517 412 454 423 c 128,-1,61
 391 434 391 434 338 455 c 0,62,63
 265 484 265 484 224.5 535.5 c 128,-1,64
 184 587 184 587 184 670 c 0,65,66
 184 757 184 757 229.5 819.5 c 128,-1,67
 275 882 275 882 355.5 914 c 128,-1,68
 436 946 436 946 538 946 c 0,69,70
 635 946 635 946 715.5 917 c 128,-1,71
 796 888 796 888 854 836 c 1,72,-1
 854 881 l 2,73,74
 854 916 854 916 871 931 c 128,-1,75
 888 946 888 946 929 946 c 256,76,0
 970 946 970 946 987 931 c 128,-1,1
EndSplineSet
Validated: 1
EndChar

StartChar: t
Encoding: 116 116 87
Width: 1228
GlyphClass: 1
Flags: W
LayerCount: 2
Fore
SplineSet
516 1194 m 128,-1,1
 533 1179 533 1179 533 1144 c 2,2,-1
 533 844 l 1,3,-1
 944 844 l 2,4,5
 978 844 978 844 992.5 828.5 c 128,-1,6
 1007 813 1007 813 1007 776 c 256,7,8
 1007 739 1007 739 992.5 723.5 c 128,-1,9
 978 708 978 708 944 708 c 2,10,-1
 533 708 l 1,11,-1
 533 344 l 2,12,13
 533 230 533 230 572.5 177 c 128,-1,14
 612 124 612 124 710 124 c 0,15,16
 777 124 777 124 851 151 c 128,-1,17
 925 178 925 178 994 223 c 0,18,19
 1008 233 1008 233 1025 233 c 0,20,21
 1059 233 1059 233 1083 187 c 0,22,23
 1096 161 1096 161 1096 142 c 0,24,25
 1096 110 1096 110 1063 90 c 0,26,27
 985 41 985 41 889 9.5 c 128,-1,28
 793 -22 793 -22 710 -22 c 0,29,30
 540 -22 540 -22 461.5 66.5 c 128,-1,31
 383 155 383 155 383 331 c 2,32,-1
 383 708 l 1,33,-1
 180 708 l 2,34,35
 146 708 146 708 131.5 723.5 c 128,-1,36
 117 739 117 739 117 776 c 256,37,38
 117 813 117 813 131.5 828.5 c 128,-1,39
 146 844 146 844 180 844 c 2,40,-1
 383 844 l 1,41,-1
 383 1144 l 2,42,43
 383 1179 383 1179 400 1194 c 128,-1,44
 417 1209 417 1209 458 1209 c 256,45,0
 499 1209 499 1209 516 1194 c 128,-1,1
EndSplineSet
Validated: 1
EndChar

StartChar: u
Encoding: 117 117 88
Width: 1228
GlyphClass: 1
Flags: W
LayerCount: 2
Fore
SplineSet
984.5 908.5 m 128,-1,1
 999 893 999 893 999 856 c 2,2,-1
 999 136 l 1,3,-1
 1081 136 l 2,4,5
 1115 136 1115 136 1129.5 120.5 c 128,-1,6
 1144 105 1144 105 1144 68 c 256,7,8
 1144 31 1144 31 1129.5 15.5 c 128,-1,9
 1115 0 1115 0 1081 0 c 2,10,-1
 922 0 l 2,11,12
 888 0 888 0 873.5 15 c 128,-1,13
 859 30 859 30 859 67 c 2,14,-1
 859 188 l 1,15,16
 793 86 793 86 704.5 32 c 128,-1,17
 616 -22 616 -22 514 -22 c 0,18,19
 423 -22 423 -22 356 17.5 c 128,-1,20
 289 57 289 57 253 131 c 128,-1,21
 217 205 217 205 217 304 c 2,22,-1
 217 788 l 1,23,-1
 135 788 l 2,24,25
 101 788 101 788 86.5 803.5 c 128,-1,26
 72 819 72 819 72 856 c 256,27,28
 72 893 72 893 86.5 908.5 c 128,-1,29
 101 924 101 924 135 924 c 2,30,-1
 304 924 l 2,31,32
 338 924 338 924 352.5 908.5 c 128,-1,33
 367 893 367 893 367 856 c 2,34,-1
 367 319 l 2,35,36
 367 230 367 230 408 178 c 128,-1,37
 449 126 449 126 529 126 c 0,38,39
 614 126 614 126 687.5 175 c 128,-1,40
 761 224 761 224 805 310 c 128,-1,41
 849 396 849 396 849 502 c 2,42,-1
 849 788 l 1,43,-1
 707 788 l 2,44,45
 673 788 673 788 658.5 803.5 c 128,-1,46
 644 819 644 819 644 856 c 256,47,48
 644 893 644 893 658.5 908.5 c 128,-1,49
 673 924 673 924 707 924 c 2,50,-1
 936 924 l 2,51,0
 970 924 970 924 984.5 908.5 c 128,-1,1
EndSplineSet
Validated: 1
EndChar

StartChar: v
Encoding: 118 118 89
Width: 1228
GlyphClass: 1
Flags: W
LayerCount: 2
Fore
SplineSet
1163.5 908.5 m 128,-1,1
 1178 893 1178 893 1178 856 c 256,2,3
 1178 819 1178 819 1163.5 803.5 c 128,-1,4
 1149 788 1149 788 1115 788 c 2,5,-1
 1052 788 l 1,6,-1
 729 43 l 2,7,8
 715 9 715 9 687.5 -6.5 c 128,-1,9
 660 -22 660 -22 611 -22 c 0,10,11
 563 -22 563 -22 536.5 -6.5 c 128,-1,12
 510 9 510 9 495 43 c 2,13,-1
 175 788 l 1,14,-1
 113 788 l 2,15,16
 79 788 79 788 64.5 803.5 c 128,-1,17
 50 819 50 819 50 856 c 256,18,19
 50 893 50 893 64.5 908.5 c 128,-1,20
 79 924 79 924 113 924 c 2,21,-1
 467 924 l 2,22,23
 501 924 501 924 515.5 908.5 c 128,-1,24
 530 893 530 893 530 856 c 256,25,26
 530 819 530 819 515.5 803.5 c 128,-1,27
 501 788 501 788 467 788 c 2,28,-1
 339 788 l 1,29,-1
 612 136 l 1,30,-1
 888 788 l 1,31,-1
 801 788 l 2,32,33
 767 788 767 788 752.5 803.5 c 128,-1,34
 738 819 738 819 738 856 c 256,35,36
 738 893 738 893 752.5 908.5 c 128,-1,37
 767 924 767 924 801 924 c 2,38,-1
 1115 924 l 2,39,0
 1149 924 1149 924 1163.5 908.5 c 128,-1,1
EndSplineSet
Validated: 1
EndChar

StartChar: w
Encoding: 119 119 90
Width: 1228
GlyphClass: 1
Flags: W
LayerCount: 2
Fore
SplineSet
1223.5 908.5 m 128,-1,1
 1238 893 1238 893 1238 856 c 256,2,3
 1238 819 1238 819 1223.5 803.5 c 128,-1,4
 1209 788 1209 788 1175 788 c 2,5,-1
 1151 788 l 1,6,-1
 954 43 l 2,7,8
 944 7 944 7 924.5 -7.5 c 128,-1,9
 905 -22 905 -22 867 -22 c 0,10,11
 824 -22 824 -22 799.5 -6.5 c 128,-1,12
 775 9 775 9 763 43 c 2,13,-1
 610 477 l 1,14,-1
 455 43 l 2,15,16
 443 9 443 9 417.5 -6.5 c 128,-1,17
 392 -22 392 -22 349 -22 c 0,18,19
 311 -22 311 -22 292 -7.5 c 128,-1,20
 273 7 273 7 264 43 c 2,21,-1
 71 788 l 1,22,-1
 53 788 l 2,23,24
 19 788 19 788 4.5 803.5 c 128,-1,25
 -10 819 -10 819 -10 856 c 256,26,27
 -10 893 -10 893 4.5 908.5 c 128,-1,28
 19 924 19 924 53 924 c 2,29,-1
 347 924 l 2,30,31
 381 924 381 924 395.5 908.5 c 128,-1,32
 410 893 410 893 410 856 c 256,33,34
 410 819 410 819 395.5 803.5 c 128,-1,35
 381 788 381 788 347 788 c 2,36,-1
 224 788 l 1,37,-1
 368 206 l 1,38,-1
 535 670 l 2,39,40
 542 691 542 691 561 704 c 128,-1,41
 580 717 580 717 611 717 c 0,42,43
 674 717 674 717 688 677 c 2,44,-1
 854 206 l 1,45,-1
 1002 788 l 1,46,-1
 901 788 l 2,47,48
 867 788 867 788 852.5 803.5 c 128,-1,49
 838 819 838 819 838 856 c 256,50,51
 838 893 838 893 852.5 908.5 c 128,-1,52
 867 924 867 924 901 924 c 2,53,-1
 1175 924 l 2,54,0
 1209 924 1209 924 1223.5 908.5 c 128,-1,1
EndSplineSet
Validated: 1
EndChar

StartChar: x
Encoding: 120 120 91
Width: 1228
GlyphClass: 1
Flags: W
LayerCount: 2
Fore
SplineSet
1133.5 908.5 m 128,-1,1
 1148 893 1148 893 1148 856 c 256,2,3
 1148 819 1148 819 1133.5 803.5 c 128,-1,4
 1119 788 1119 788 1085 788 c 2,5,-1
 1020 788 l 1,6,-1
 723 475 l 1,7,-1
 1044 136 l 1,8,-1
 1095 136 l 2,9,10
 1129 136 1129 136 1143.5 120.5 c 128,-1,11
 1158 105 1158 105 1158 68 c 256,12,13
 1158 31 1158 31 1143.5 15.5 c 128,-1,14
 1129 0 1129 0 1095 0 c 2,15,-1
 751 0 l 2,16,17
 717 0 717 0 702.5 15.5 c 128,-1,18
 688 31 688 31 688 68 c 256,19,20
 688 105 688 105 702.5 120.5 c 128,-1,21
 717 136 717 136 751 136 c 2,22,-1
 847 136 l 1,23,-1
 607 394 l 1,24,-1
 368 136 l 1,25,-1
 447 136 l 2,26,27
 481 136 481 136 495.5 120.5 c 128,-1,28
 510 105 510 105 510 68 c 256,29,30
 510 31 510 31 495.5 15.5 c 128,-1,31
 481 0 481 0 447 0 c 2,32,-1
 133 0 l 2,33,34
 99 0 99 0 84.5 15.5 c 128,-1,35
 70 31 70 31 70 68 c 256,36,37
 70 105 70 105 84.5 120.5 c 128,-1,38
 99 136 99 136 133 136 c 2,39,-1
 183 136 l 1,40,-1
 508 477 l 1,41,-1
 214 788 l 1,42,-1
 143 788 l 2,43,44
 109 788 109 788 94.5 803.5 c 128,-1,45
 80 819 80 819 80 856 c 256,46,47
 80 893 80 893 94.5 908.5 c 128,-1,48
 109 924 109 924 143 924 c 2,49,-1
 487 924 l 2,50,51
 521 924 521 924 535.5 908.5 c 128,-1,52
 550 893 550 893 550 856 c 256,53,54
 550 819 550 819 535.5 803.5 c 128,-1,55
 521 788 521 788 487 788 c 2,56,-1
 411 788 l 1,57,-1
 623 558 l 1,58,-1
 836 788 l 1,59,-1
 781 788 l 2,60,61
 747 788 747 788 732.5 803.5 c 128,-1,62
 718 819 718 819 718 856 c 256,63,64
 718 893 718 893 732.5 908.5 c 128,-1,65
 747 924 747 924 781 924 c 2,66,-1
 1085 924 l 2,67,0
 1119 924 1119 924 1133.5 908.5 c 128,-1,1
EndSplineSet
Validated: 1
EndChar

StartChar: y
Encoding: 121 121 92
Width: 1228
GlyphClass: 1
Flags: W
LayerCount: 2
Fore
SplineSet
1163.5 908.5 m 128,-1,1
 1178 893 1178 893 1178 856 c 256,2,3
 1178 819 1178 819 1163.5 803.5 c 128,-1,4
 1149 788 1149 788 1115 788 c 2,5,-1
 1053 788 l 1,6,-1
 644 -50 l 2,7,8
 579 -183 579 -183 517 -259 c 128,-1,9
 455 -335 455 -335 377.5 -370.5 c 128,-1,10
 300 -406 300 -406 189 -410 c 0,11,12
 154 -411 154 -411 135 -392.5 c 128,-1,13
 116 -374 116 -374 116 -327 c 0,14,15
 116 -262 116 -262 169 -259 c 0,16,17
 265 -254 265 -254 321.5 -227 c 128,-1,18
 378 -200 378 -200 425.5 -134.5 c 128,-1,19
 473 -69 473 -69 542 70 c 1,20,-1
 176 788 l 1,21,-1
 113 788 l 2,22,23
 79 788 79 788 64.5 803.5 c 128,-1,24
 50 819 50 819 50 856 c 256,25,26
 50 893 50 893 64.5 908.5 c 128,-1,27
 79 924 79 924 113 924 c 2,28,-1
 467 924 l 2,29,30
 501 924 501 924 515.5 908.5 c 128,-1,31
 530 893 530 893 530 856 c 256,32,33
 530 819 530 819 515.5 803.5 c 128,-1,34
 501 788 501 788 467 788 c 2,35,-1
 339 788 l 1,36,-1
 621 226 l 1,37,-1
 890 788 l 1,38,-1
 801 788 l 2,39,40
 767 788 767 788 752.5 803.5 c 128,-1,41
 738 819 738 819 738 856 c 256,42,43
 738 893 738 893 752.5 908.5 c 128,-1,44
 767 924 767 924 801 924 c 2,45,-1
 1115 924 l 2,46,0
 1149 924 1149 924 1163.5 908.5 c 128,-1,1
EndSplineSet
Validated: 1
EndChar

StartChar: z
Encoding: 122 122 93
Width: 1228
GlyphClass: 1
Flags: W
LayerCount: 2
Fore
SplineSet
1025.5 908.5 m 128,-1,1
 1040 893 1040 893 1040 856 c 0,2,3
 1040 827 1040 827 1025 810 c 2,4,-1
 415 136 l 1,5,-1
 900 136 l 1,6,-1
 900 308 l 2,7,8
 900 343 900 343 917 358 c 128,-1,9
 934 373 934 373 975 373 c 256,10,11
 1016 373 1016 373 1033 358 c 128,-1,12
 1050 343 1050 343 1050 308 c 2,13,-1
 1050 68 l 2,14,15
 1050 31 1050 31 1035.5 15.5 c 128,-1,16
 1021 0 1021 0 987 0 c 2,17,-1
 241 0 l 2,18,19
 207 0 207 0 192.5 15.5 c 128,-1,20
 178 31 178 31 178 68 c 0,21,22
 178 98 178 98 192 113 c 2,23,-1
 803 788 l 1,24,-1
 348 788 l 1,25,-1
 348 639 l 2,26,27
 348 604 348 604 331 589 c 128,-1,28
 314 574 314 574 273 574 c 256,29,30
 232 574 232 574 215 589 c 128,-1,31
 198 604 198 604 198 639 c 2,32,-1
 198 856 l 2,33,34
 198 893 198 893 212.5 908.5 c 128,-1,35
 227 924 227 924 261 924 c 2,36,-1
 977 924 l 2,37,0
 1011 924 1011 924 1025.5 908.5 c 128,-1,1
EndSplineSet
Validated: 1
EndChar

StartChar: braceleft
Encoding: 123 123 94
Width: 1228
GlyphClass: 1
Flags: W
LayerCount: 2
Fore
SplineSet
975.5 1355.5 m 128,-1,1
 990 1339 990 1339 990 1300 c 256,2,3
 990 1261 990 1261 975.5 1244.5 c 128,-1,4
 961 1228 961 1228 927 1228 c 0,5,6
 821 1228 821 1228 760.5 1199 c 128,-1,7
 700 1170 700 1170 675.5 1108.5 c 128,-1,8
 651 1047 651 1047 655 947 c 2,9,-1
 658 875 l 2,10,11
 663 755 663 755 607.5 676.5 c 128,-1,12
 552 598 552 598 425 546 c 1,13,-1
 425 536 l 1,14,15
 551 499 551 499 607.5 427.5 c 128,-1,16
 664 356 664 356 664 246 c 0,17,18
 664 224 664 224 663 213 c 2,19,-1
 655 92 l 2,20,21
 654 79 654 79 654 54 c 0,22,23
 654 -73 654 -73 719.5 -131 c 128,-1,24
 785 -189 785 -189 927 -189 c 0,25,26
 961 -189 961 -189 975.5 -205.5 c 128,-1,27
 990 -222 990 -222 990 -261 c 256,28,29
 990 -300 990 -300 975.5 -316.5 c 128,-1,30
 961 -333 961 -333 927 -333 c 0,31,32
 726 -333 726 -333 614.5 -243 c 128,-1,33
 503 -153 503 -153 503 27 c 0,34,35
 503 62 503 62 505 80 c 2,36,-1
 516 203 l 2,37,38
 518 231 518 231 518 243 c 0,39,40
 518 356 518 356 451 412.5 c 128,-1,41
 384 469 384 469 240 469 c 0,42,43
 206 469 206 469 191.5 485.5 c 128,-1,44
 177 502 177 502 177 541 c 256,45,46
 177 580 177 580 191.5 596.5 c 128,-1,47
 206 613 206 613 240 613 c 0,48,49
 379 613 379 613 445 676 c 128,-1,50
 511 739 511 739 511 855 c 0,51,52
 511 875 511 875 510 885 c 2,53,-1
 505 959 l 2,54,55
 503 989 503 989 503 1002 c 0,56,57
 503 1187 503 1187 613.5 1279.5 c 128,-1,58
 724 1372 724 1372 927 1372 c 0,59,0
 961 1372 961 1372 975.5 1355.5 c 128,-1,1
EndSplineSet
Validated: 33
Substitution2: "'rtla' Right to Left Alternates lookup 0 subtable" braceright
EndChar

StartChar: bar
Encoding: 124 124 95
Width: 1228
GlyphClass: 1
Flags: W
LayerCount: 2
Fore
SplineSet
672 1379 m 132,-1,1
 689 1364 689 1364 689 1329 c 6,2,-1
 689 -290 l 6,3,4
 689 -325 689 -325 672 -340 c 132,-1,5
 655 -355 655 -355 614 -355 c 260,6,7
 573 -355 573 -355 556 -340 c 132,-1,8
 539 -325 539 -325 539 -290 c 6,9,-1
 539 1329 l 6,10,11
 539 1364 539 1364 556 1379 c 132,-1,12
 573 1394 573 1394 614 1394 c 260,13,0
 655 1394 655 1394 672 1379 c 132,-1,1
EndSplineSet
Validated: 1
EndChar

StartChar: braceright
Encoding: 125 125 96
Width: 1228
GlyphClass: 1
Flags: W
LayerCount: 2
Fore
SplineSet
614.5 1279.5 m 128,-1,1
 725 1187 725 1187 725 1002 c 0,2,3
 725 989 725 989 723 959 c 2,4,-1
 718 885 l 2,5,6
 717 875 717 875 717 855 c 0,7,8
 717 739 717 739 783 676 c 128,-1,9
 849 613 849 613 988 613 c 0,10,11
 1022 613 1022 613 1036.5 596.5 c 128,-1,12
 1051 580 1051 580 1051 541 c 256,13,14
 1051 502 1051 502 1036.5 485.5 c 128,-1,15
 1022 469 1022 469 988 469 c 0,16,17
 844 469 844 469 777 412.5 c 128,-1,18
 710 356 710 356 710 243 c 0,19,20
 710 231 710 231 712 203 c 2,21,-1
 723 80 l 2,22,23
 725 62 725 62 725 27 c 0,24,25
 725 -153 725 -153 613.5 -243 c 128,-1,26
 502 -333 502 -333 301 -333 c 0,27,28
 267 -333 267 -333 252.5 -316.5 c 128,-1,29
 238 -300 238 -300 238 -261 c 256,30,31
 238 -222 238 -222 252.5 -205.5 c 128,-1,32
 267 -189 267 -189 301 -189 c 0,33,34
 443 -189 443 -189 508.5 -131 c 128,-1,35
 574 -73 574 -73 574 54 c 0,36,37
 574 79 574 79 573 92 c 2,38,-1
 565 213 l 2,39,40
 564 224 564 224 564 246 c 0,41,42
 564 356 564 356 620.5 427.5 c 128,-1,43
 677 499 677 499 803 536 c 1,44,-1
 803 546 l 1,45,46
 676 598 676 598 620.5 676.5 c 128,-1,47
 565 755 565 755 570 875 c 2,48,-1
 573 947 l 2,49,50
 577 1047 577 1047 552.5 1108.5 c 128,-1,51
 528 1170 528 1170 467.5 1199 c 128,-1,52
 407 1228 407 1228 301 1228 c 0,53,54
 267 1228 267 1228 252.5 1244.5 c 128,-1,55
 238 1261 238 1261 238 1300 c 256,56,57
 238 1339 238 1339 252.5 1355.5 c 128,-1,58
 267 1372 267 1372 301 1372 c 0,59,0
 504 1372 504 1372 614.5 1279.5 c 128,-1,1
EndSplineSet
Validated: 33
Substitution2: "'rtla' Right to Left Alternates lookup 0 subtable" braceleft
EndChar

StartChar: asciitilde
Encoding: 126 126 97
Width: 1228
GlyphClass: 1
Flags: W
LayerCount: 2
Fore
SplineSet
526.5 714 m 128,-1,1
 577 693 577 693 641 653 c 0,2,3
 699 619 699 619 735 603 c 128,-1,4
 771 587 771 587 810 587 c 0,5,6
 895 587 895 587 965 671 c 0,7,8
 981 690 981 690 1003 690 c 256,9,10
 1025 690 1025 690 1046 673 c 0,11,12
 1078 649 1078 649 1078 621 c 0,13,14
 1078 607 1078 607 1071 596 c 0,15,16
 1024 520 1024 520 956 474.5 c 128,-1,17
 888 429 888 429 810 429 c 0,18,19
 752 429 752 429 702 450 c 128,-1,20
 652 471 652 471 586 511 c 0,21,22
 530 544 530 544 493 560.5 c 128,-1,23
 456 577 456 577 418 577 c 0,24,25
 333 577 333 577 263 493 c 0,26,27
 247 474 247 474 225 474 c 256,28,29
 203 474 203 474 182 491 c 0,30,31
 150 515 150 515 150 543 c 0,32,33
 150 557 150 557 157 568 c 0,34,35
 204 644 204 644 272 689.5 c 128,-1,36
 340 735 340 735 418 735 c 0,37,0
 476 735 476 735 526.5 714 c 128,-1,1
EndSplineSet
Validated: 1
EndChar

StartChar: exclamdown
Encoding: 161 161 99
Width: 1228
GlyphClass: 1
Flags: W
LayerCount: 2
Fore
SplineSet
518.5 668.5 m 128,-1,1
 489 683 489 683 489 717 c 2,2,-1
 489 871 l 2,3,4
 489 905 489 905 518.5 919.5 c 128,-1,5
 548 934 548 934 614 934 c 256,6,7
 680 934 680 934 709.5 919.5 c 128,-1,8
 739 905 739 905 739 871 c 2,9,-1
 739 717 l 2,10,11
 739 683 739 683 709.5 668.5 c 128,-1,12
 680 654 680 654 614 654 c 256,13,0
 548 654 548 654 518.5 668.5 c 128,-1,1
516 -333 m 128,-1,15
 506 -321 506 -321 508 -295 c 2,16,-1
 557 412 l 2,17,18
 559 435 559 435 573.5 447.5 c 128,-1,19
 588 460 588 460 614 460 c 256,20,21
 640 460 640 460 655.5 447.5 c 128,-1,22
 671 435 671 435 672 412 c 2,23,-1
 720 -295 l 2,24,25
 722 -321 722 -321 712 -333 c 128,-1,26
 702 -345 702 -345 679 -345 c 2,27,-1
 549 -345 l 2,28,14
 526 -345 526 -345 516 -333 c 128,-1,15
EndSplineSet
Validated: 1
EndChar

StartChar: cent
Encoding: 162 162 100
Width: 1228
GlyphClass: 1
Flags: W
LayerCount: 2
Fore
SplineSet
1053 304 m 0,1,2
 1053 269 1053 269 1021 246 c 0,3,4
 955 196 955 196 867 164 c 128,-1,5
 779 132 779 132 684 122 c 1,6,-1
 684 -60 l 2,7,8
 684 -94 684 -94 667.5 -109.5 c 128,-1,9
 651 -125 651 -125 614 -125 c 256,10,11
 577 -125 577 -125 560.5 -109.5 c 128,-1,12
 544 -94 544 -94 544 -60 c 2,13,-1
 544 122 l 1,14,15
 418 136 418 136 323.5 201 c 128,-1,16
 229 266 229 266 178 370.5 c 128,-1,17
 127 475 127 475 127 602 c 256,18,19
 127 729 127 729 179 833 c 128,-1,20
 231 937 231 937 325.5 1002.5 c 128,-1,21
 420 1068 420 1068 544 1082 c 1,22,-1
 544 1247 l 2,23,24
 544 1281 544 1281 560.5 1296.5 c 128,-1,25
 577 1312 577 1312 614 1312 c 256,26,27
 651 1312 651 1312 667.5 1296.5 c 128,-1,28
 684 1281 684 1281 684 1247 c 2,29,-1
 684 1080 l 1,30,31
 749 1069 749 1069 804 1038.5 c 128,-1,32
 859 1008 859 1008 899 961 c 1,33,-1
 899 1021 l 2,34,35
 899 1056 899 1056 916 1071 c 128,-1,36
 933 1086 933 1086 974 1086 c 256,37,38
 1015 1086 1015 1086 1032 1071 c 128,-1,39
 1049 1056 1049 1056 1049 1021 c 2,40,-1
 1049 731 l 2,41,42
 1049 696 1049 696 1032 681 c 128,-1,43
 1015 666 1015 666 974 666 c 256,44,45
 933 666 933 666 916 681 c 128,-1,46
 899 696 899 696 899 731 c 0,47,48
 899 812 899 812 843.5 866.5 c 128,-1,49
 788 921 788 921 684 934 c 1,50,-1
 684 271 l 1,51,52
 756 280 756 280 822.5 307 c 128,-1,53
 889 334 889 334 945 377 c 0,54,55
 966 393 966 393 984 393 c 0,56,57
 1013 393 1013 393 1038 352 c 0,58,0
 1053 327 1053 327 1053 304 c 0,1,2
317 446.5 m 128,-1,60
 349 376 349 376 407.5 330.5 c 128,-1,61
 466 285 466 285 544 272 c 1,62,-1
 544 931 l 1,63,64
 467 915 467 915 408.5 869 c 128,-1,65
 350 823 350 823 317.5 754 c 128,-1,66
 285 685 285 685 285 602 c 0,67,59
 285 517 285 517 317 446.5 c 128,-1,60
EndSplineSet
Validated: 1
EndChar

StartChar: sterling
Encoding: 163 163 101
Width: 1228
GlyphClass: 1
Flags: W
LayerCount: 2
Fore
SplineSet
790 1181.5 m 128,-1,1
 872 1154 872 1154 941 1105 c 0,2,3
 962 1090 962 1090 962 1051 c 2,4,-1
 962 924 l 2,5,6
 962 889 962 889 945 874 c 128,-1,7
 928 859 928 859 887 859 c 256,8,9
 846 859 846 859 829 874 c 128,-1,10
 812 889 812 889 812 924 c 2,11,-1
 812 1014 l 1,12,13
 734 1061 734 1061 617 1061 c 0,14,15
 562 1061 562 1061 520 1037.5 c 128,-1,16
 478 1014 478 1014 456 973.5 c 128,-1,17
 434 933 434 933 434 884 c 0,18,19
 434 842 434 842 448.5 803 c 128,-1,20
 463 764 463 764 493 706 c 0,21,22
 517 662 517 662 535 620 c 1,23,-1
 845 620 l 2,24,25
 879 620 879 620 893.5 604.5 c 128,-1,26
 908 589 908 589 908 552 c 256,27,28
 908 515 908 515 893.5 499.5 c 128,-1,29
 879 484 879 484 845 484 c 2,30,-1
 567 484 l 1,31,32
 568 472 568 472 568 449 c 0,33,34
 568 273 568 273 426 132 c 1,35,36
 496 157 496 157 564 157 c 0,37,38
 596 157 596 157 623.5 152 c 128,-1,39
 651 147 651 147 691 138 c 0,40,41
 753 123 753 123 789 123 c 0,42,43
 863 123 863 123 940 179 c 0,44,45
 949 185 949 185 959 185 c 0,46,47
 973 185 973 185 988 175 c 128,-1,48
 1003 165 1003 165 1015 146 c 0,49,50
 1031 123 1031 123 1031 99 c 0,51,52
 1031 86 1031 86 1025.5 74.5 c 128,-1,53
 1020 63 1020 63 1010 56 c 0,54,55
 952 13 952 13 901.5 -5.5 c 128,-1,56
 851 -24 851 -24 803 -24 c 0,57,58
 776 -24 776 -24 750.5 -19.5 c 128,-1,59
 725 -15 725 -15 682 -6 c 0,60,61
 632 5 632 5 599 10 c 128,-1,62
 566 15 566 15 528 15 c 0,63,64
 424 15 424 15 307 -34 c 0,65,66
 298 -37 298 -37 290 -37 c 0,67,68
 258 -37 258 -37 229 0 c 0,69,70
 203 32 203 32 203 61 c 0,71,72
 203 80 203 80 215 92 c 0,73,74
 326 193 326 193 371.5 271 c 128,-1,75
 417 349 417 349 417 435 c 0,76,77
 417 459 417 459 414 484 c 1,78,-1
 273 484 l 2,79,80
 239 484 239 484 224.5 499.5 c 128,-1,81
 210 515 210 515 210 552 c 256,82,83
 210 589 210 589 224.5 604.5 c 128,-1,84
 239 620 239 620 273 620 c 2,85,-1
 368 620 l 1,86,-1
 350 655 l 2,87,88
 314 728 314 728 296 777 c 128,-1,89
 278 826 278 826 278 884 c 0,90,91
 278 976 278 976 320.5 1050 c 128,-1,92
 363 1124 363 1124 440.5 1166.5 c 128,-1,93
 518 1209 518 1209 618 1209 c 0,94,0
 708 1209 708 1209 790 1181.5 c 128,-1,1
EndSplineSet
Validated: 1
EndChar

StartChar: currency
Encoding: 164 164 102
Width: 1228
GlyphClass: 1
Flags: W
LayerCount: 2
Fore
SplineSet
1094 224 m 2,0,1
 1117 201 1117 201 1117 180 c 0,2,3
 1117 157 1117 157 1088 128 c 256,4,5
 1059 99 1059 99 1036 99 c 0,6,7
 1015 99 1015 99 992 122 c 2,8,-1
 849 265 l 1,9,10
 746 198 746 198 614 198 c 256,11,12
 482 198 482 198 379 265 c 1,13,-1
 236 122 l 2,14,15
 213 99 213 99 192 99 c 0,16,17
 169 99 169 99 140 128 c 256,18,19
 111 157 111 157 111 180 c 0,20,21
 111 201 111 201 134 224 c 2,22,-1
 276 366 l 1,23,24
 204 468 204 468 204 602 c 256,25,26
 204 736 204 736 276 838 c 1,27,-1
 134 980 l 2,28,29
 111 1003 111 1003 111 1024 c 0,30,31
 111 1047 111 1047 140 1076 c 256,32,33
 169 1105 169 1105 192 1105 c 0,34,35
 213 1105 213 1105 236 1082 c 2,36,-1
 379 939 l 1,37,38
 482 1006 482 1006 614 1006 c 256,39,40
 746 1006 746 1006 849 939 c 1,41,-1
 992 1082 l 2,42,43
 1015 1105 1015 1105 1036 1105 c 0,44,45
 1059 1105 1059 1105 1088 1076 c 256,46,47
 1117 1047 1117 1047 1117 1024 c 0,48,49
 1117 1003 1117 1003 1094 980 c 2,50,-1
 952 838 l 1,51,52
 1024 736 1024 736 1024 602 c 256,53,54
 1024 468 1024 468 952 366 c 1,55,-1
 1094 224 l 2,0,1
385 467 m 128,-1,57
 418 407 418 407 477.5 373.5 c 128,-1,58
 537 340 537 340 614 340 c 256,59,60
 691 340 691 340 750.5 373.5 c 128,-1,61
 810 407 810 407 843 467 c 128,-1,62
 876 527 876 527 876 602 c 256,63,64
 876 677 876 677 843 737 c 128,-1,65
 810 797 810 797 750.5 830.5 c 128,-1,66
 691 864 691 864 614 864 c 256,67,68
 537 864 537 864 477.5 830.5 c 128,-1,69
 418 797 418 797 385 737 c 128,-1,70
 352 677 352 677 352 602 c 256,71,56
 352 527 352 527 385 467 c 128,-1,57
EndSplineSet
Validated: 1
EndChar

StartChar: yen
Encoding: 165 165 103
Width: 1228
GlyphClass: 1
Flags: W
LayerCount: 2
Fore
SplineSet
1153.5 1171.5 m 128,-1,1
 1168 1156 1168 1156 1168 1119 c 256,2,3
 1168 1082 1168 1082 1153.5 1066.5 c 128,-1,4
 1139 1051 1139 1051 1105 1051 c 2,5,-1
 1037 1051 l 1,6,-1
 893 820 l 1,7,-1
 1015 820 l 2,8,9
 1049 820 1049 820 1063.5 804.5 c 128,-1,10
 1078 789 1078 789 1078 752 c 256,11,12
 1078 715 1078 715 1063.5 699.5 c 128,-1,13
 1049 684 1049 684 1015 684 c 2,14,-1
 808 684 l 1,15,-1
 700 510 l 1,16,-1
 995 510 l 2,17,18
 1029 510 1029 510 1043.5 494.5 c 128,-1,19
 1058 479 1058 479 1058 442 c 256,20,21
 1058 405 1058 405 1043.5 389.5 c 128,-1,22
 1029 374 1029 374 995 374 c 2,23,-1
 689 374 l 1,24,-1
 689 136 l 1,25,-1
 915 136 l 2,26,27
 949 136 949 136 963.5 120.5 c 128,-1,28
 978 105 978 105 978 68 c 256,29,30
 978 31 978 31 963.5 15.5 c 128,-1,31
 949 0 949 0 915 0 c 2,32,-1
 313 0 l 2,33,34
 279 0 279 0 264.5 15.5 c 128,-1,35
 250 31 250 31 250 68 c 256,36,37
 250 105 250 105 264.5 120.5 c 128,-1,38
 279 136 279 136 313 136 c 2,39,-1
 539 136 l 1,40,-1
 539 374 l 1,41,-1
 233 374 l 2,42,43
 199 374 199 374 184.5 389.5 c 128,-1,44
 170 405 170 405 170 442 c 256,45,46
 170 479 170 479 184.5 494.5 c 128,-1,47
 199 510 199 510 233 510 c 2,48,-1
 528 510 l 1,49,-1
 420 684 l 1,50,-1
 213 684 l 2,51,52
 179 684 179 684 164.5 699.5 c 128,-1,53
 150 715 150 715 150 752 c 256,54,55
 150 789 150 789 164.5 804.5 c 128,-1,56
 179 820 179 820 213 820 c 2,57,-1
 336 820 l 1,58,-1
 193 1051 l 1,59,-1
 123 1051 l 2,60,61
 89 1051 89 1051 74.5 1066.5 c 128,-1,62
 60 1082 60 1082 60 1119 c 256,63,64
 60 1156 60 1156 74.5 1171.5 c 128,-1,65
 89 1187 89 1187 123 1187 c 2,66,-1
 457 1187 l 2,67,68
 491 1187 491 1187 505.5 1171.5 c 128,-1,69
 520 1156 520 1156 520 1119 c 256,70,71
 520 1082 520 1082 505.5 1066.5 c 128,-1,72
 491 1051 491 1051 457 1051 c 2,73,-1
 364 1051 l 1,74,-1
 614 642 l 1,75,-1
 866 1051 l 1,76,-1
 801 1051 l 2,77,78
 767 1051 767 1051 752.5 1066.5 c 128,-1,79
 738 1082 738 1082 738 1119 c 256,80,81
 738 1156 738 1156 752.5 1171.5 c 128,-1,82
 767 1187 767 1187 801 1187 c 2,83,-1
 1105 1187 l 2,84,0
 1139 1187 1139 1187 1153.5 1171.5 c 128,-1,1
EndSplineSet
Validated: 1
EndChar

StartChar: brokenbar
Encoding: 166 166 104
Width: 1228
GlyphClass: 1
Flags: W
LayerCount: 2
Fore
SplineSet
672 1379 m 128,-1,1
 689 1364 689 1364 689 1329 c 2,2,-1
 689 730 l 2,3,4
 689 695 689 695 672 680 c 128,-1,5
 655 665 655 665 614 665 c 256,6,7
 573 665 573 665 556 680 c 128,-1,8
 539 695 539 695 539 730 c 2,9,-1
 539 1329 l 2,10,11
 539 1364 539 1364 556 1379 c 128,-1,12
 573 1394 573 1394 614 1394 c 256,13,0
 655 1394 655 1394 672 1379 c 128,-1,1
672 359 m 128,-1,15
 689 344 689 344 689 309 c 2,16,-1
 689 -290 l 2,17,18
 689 -325 689 -325 672 -340 c 128,-1,19
 655 -355 655 -355 614 -355 c 256,20,21
 573 -355 573 -355 556 -340 c 128,-1,22
 539 -325 539 -325 539 -290 c 2,23,-1
 539 309 l 2,24,25
 539 344 539 344 556 359 c 128,-1,26
 573 374 573 374 614 374 c 256,27,14
 655 374 655 374 672 359 c 128,-1,15
EndSplineSet
Validated: 1
EndChar

StartChar: section
Encoding: 167 167 105
Width: 1228
GlyphClass: 1
Flags: W
LayerCount: 2
Fore
SplineSet
973.5 1171.5 m 128,-1,1
 988 1156 988 1156 988 1119 c 2,2,-1
 988 922 l 2,3,4
 988 887 988 887 971 872 c 128,-1,5
 954 857 954 857 913 857 c 256,6,7
 872 857 872 857 855 872 c 128,-1,8
 838 887 838 887 838 922 c 2,9,-1
 838 1051 l 1,10,-1
 599 1051 l 2,11,12
 458 1051 458 1051 458 943 c 0,13,14
 458 891 458 891 490.5 848.5 c 128,-1,15
 523 806 523 806 588 766 c 2,16,-1
 882 584 l 2,17,18
 965 533 965 533 1007 472 c 128,-1,19
 1049 411 1049 411 1049 328 c 0,20,21
 1049 264 1049 264 1015 214 c 128,-1,22
 981 164 981 164 911 113 c 1,23,24
 928 64 928 64 928 10 c 0,25,26
 928 -61 928 -61 896 -115 c 128,-1,27
 864 -169 864 -169 801.5 -199.5 c 128,-1,28
 739 -230 739 -230 649 -230 c 2,29,-1
 303 -230 l 2,30,31
 269 -230 269 -230 254.5 -214.5 c 128,-1,32
 240 -199 240 -199 240 -162 c 2,33,-1
 240 55 l 2,34,35
 240 90 240 90 257 105 c 128,-1,36
 274 120 274 120 315 120 c 256,37,38
 356 120 356 120 373 105 c 128,-1,39
 390 90 390 90 390 55 c 2,40,-1
 390 -94 l 1,41,-1
 629 -94 l 2,42,43
 770 -94 770 -94 770 14 c 0,44,45
 770 66 770 66 737.5 108.5 c 128,-1,46
 705 151 705 151 640 191 c 2,47,-1
 346 373 l 2,48,49
 263 424 263 424 221 485 c 128,-1,50
 179 546 179 546 179 629 c 0,51,52
 179 693 179 693 212.5 742.5 c 128,-1,53
 246 792 246 792 317 844 c 1,54,55
 300 892 300 892 300 947 c 0,56,57
 300 1018 300 1018 332 1072 c 128,-1,58
 364 1126 364 1126 426.5 1156.5 c 128,-1,59
 489 1187 489 1187 579 1187 c 2,60,-1
 925 1187 l 2,61,0
 959 1187 959 1187 973.5 1171.5 c 128,-1,1
351 677 m 128,-1,63
 337 653 337 653 337 625 c 0,64,65
 337 585 337 585 361 556.5 c 128,-1,66
 385 528 385 528 437 495 c 2,67,-1
 731 313 l 2,68,69
 788 278 788 278 833 233 c 1,70,71
 862 256 862 256 876.5 280 c 128,-1,72
 891 304 891 304 891 332 c 0,73,74
 891 372 891 372 867 400.5 c 128,-1,75
 843 429 843 429 791 462 c 2,76,-1
 497 644 l 2,77,78
 435 682 435 682 394 723 c 1,79,62
 365 701 365 701 351 677 c 128,-1,63
EndSplineSet
Validated: 1
EndChar

StartChar: dieresis
Encoding: 168 168 106
Width: 1228
GlyphClass: 1
Flags: W
LayerCount: 2
Fore
SplineSet
479 1348.5 m 128,-1,1
 499 1334 499 1334 499 1298 c 2,2,-1
 499 1168 l 2,3,4
 499 1132 499 1132 479 1117.5 c 128,-1,5
 459 1103 459 1103 404 1103 c 256,6,7
 349 1103 349 1103 329 1117.5 c 128,-1,8
 309 1132 309 1132 309 1168 c 2,9,-1
 309 1298 l 2,10,11
 309 1334 309 1334 329 1348.5 c 128,-1,12
 349 1363 349 1363 404 1363 c 256,13,0
 459 1363 459 1363 479 1348.5 c 128,-1,1
899 1348.5 m 128,-1,15
 919 1334 919 1334 919 1298 c 2,16,-1
 919 1168 l 2,17,18
 919 1132 919 1132 899 1117.5 c 128,-1,19
 879 1103 879 1103 824 1103 c 256,20,21
 769 1103 769 1103 749 1117.5 c 128,-1,22
 729 1132 729 1132 729 1168 c 2,23,-1
 729 1298 l 2,24,25
 729 1334 729 1334 749 1348.5 c 128,-1,26
 769 1363 769 1363 824 1363 c 256,27,14
 879 1363 879 1363 899 1348.5 c 128,-1,15
EndSplineSet
Validated: 1
EndChar

StartChar: copyright
Encoding: 169 169 107
Width: 1228
GlyphClass: 1
Flags: W
LayerCount: 2
Fore
SplineSet
912.5 1127.5 m 128,-1,1
 1044 1046 1044 1046 1118 905 c 128,-1,2
 1192 764 1192 764 1192 594 c 256,3,4
 1192 424 1192 424 1118 283 c 128,-1,5
 1044 142 1044 142 912 60 c 128,-1,6
 780 -22 780 -22 614 -22 c 256,7,8
 448 -22 448 -22 316 60 c 128,-1,9
 184 142 184 142 110 283 c 128,-1,10
 36 424 36 424 36 594 c 256,11,12
 36 764 36 764 110 905 c 128,-1,13
 184 1046 184 1046 315.5 1127.5 c 128,-1,14
 447 1209 447 1209 614 1209 c 256,15,0
 781 1209 781 1209 912.5 1127.5 c 128,-1,1
377 1025 m 128,-1,17
 273 961 273 961 215.5 848.5 c 128,-1,18
 158 736 158 736 158 594 c 256,19,20
 158 452 158 452 215.5 339 c 128,-1,21
 273 226 273 226 377 162 c 128,-1,22
 481 98 481 98 614 98 c 256,23,24
 747 98 747 98 851 162 c 128,-1,25
 955 226 955 226 1012.5 339 c 128,-1,26
 1070 452 1070 452 1070 594 c 256,27,28
 1070 736 1070 736 1012.5 848.5 c 128,-1,29
 955 961 955 961 851 1025 c 128,-1,30
 747 1089 747 1089 614 1089 c 256,31,16
 481 1089 481 1089 377 1025 c 128,-1,17
720.5 926.5 m 128,-1,33
 767 916 767 916 809 897 c 0,34,35
 830 887 830 887 840 874.5 c 128,-1,36
 850 862 850 862 850 844 c 0,37,38
 850 828 850 828 843 811 c 0,39,40
 827 771 827 771 799 771 c 0,41,42
 787 771 787 771 769 779 c 0,43,44
 732 796 732 796 699.5 803.5 c 128,-1,45
 667 811 667 811 629 811 c 0,46,47
 550 811 550 811 499 754.5 c 128,-1,48
 448 698 448 698 448 593 c 256,49,50
 448 488 448 488 499 431.5 c 128,-1,51
 550 375 550 375 629 375 c 0,52,53
 667 375 667 375 699.5 382.5 c 128,-1,54
 732 390 732 390 769 407 c 0,55,56
 787 415 787 415 799 415 c 0,57,58
 827 415 827 415 843 375 c 0,59,60
 850 358 850 358 850 342 c 0,61,62
 850 324 850 324 840 311.5 c 128,-1,63
 830 299 830 299 809 289 c 0,64,65
 767 270 767 270 720.5 259.5 c 128,-1,66
 674 249 674 249 629 249 c 0,67,68
 538 249 538 249 466.5 290.5 c 128,-1,69
 395 332 395 332 355 409.5 c 128,-1,70
 315 487 315 487 315 593 c 256,71,72
 315 699 315 699 355 776.5 c 128,-1,73
 395 854 395 854 466.5 895.5 c 128,-1,74
 538 937 538 937 629 937 c 0,75,32
 674 937 674 937 720.5 926.5 c 128,-1,33
EndSplineSet
Validated: 1
EndChar

StartChar: ordfeminine
Encoding: 170 170 108
Width: 1228
GlyphClass: 1
Flags: W
LayerCount: 2
Fore
SplineSet
841.5 1142.5 m 128,-1,1
 917 1076 917 1076 917 954 c 2,2,-1
 917 657 l 2,3,4
 917 627 917 627 929 614.5 c 128,-1,5
 941 602 941 602 967 602 c 2,6,-1
 984 602 l 2,7,8
 1010 602 1010 602 1021.5 587.5 c 128,-1,9
 1033 573 1033 573 1033 541 c 0,10,11
 1033 510 1033 510 1021.5 496.5 c 128,-1,12
 1010 483 1010 483 984 483 c 2,13,-1
 935 483 l 2,14,15
 885 483 885 483 845.5 506.5 c 128,-1,16
 806 530 806 530 794 574 c 1,17,18
 665 465 665 465 512 465 c 0,19,20
 434 465 434 465 373 490.5 c 128,-1,21
 312 516 312 516 277 566 c 128,-1,22
 242 616 242 616 242 687 c 0,23,24
 242 809 242 809 327 868 c 128,-1,25
 412 927 412 927 548 927 c 0,26,27
 680 927 680 927 782 899 c 1,28,-1
 782 950 l 2,29,30
 782 1012 782 1012 743 1046 c 128,-1,31
 704 1080 704 1080 622 1080 c 0,32,33
 564 1080 564 1080 497 1065 c 128,-1,34
 430 1050 430 1050 368 1024 c 0,35,36
 359 1020 359 1020 349 1020 c 0,37,38
 316 1020 316 1020 300 1065 c 0,39,40
 293 1085 293 1085 293 1102 c 0,41,42
 293 1135 293 1135 324 1148 c 0,43,44
 391 1177 391 1177 469 1193 c 128,-1,45
 547 1209 547 1209 622 1209 c 0,46,0
 766 1209 766 1209 841.5 1142.5 c 128,-1,1
383 690 m 0,48,49
 383 642 383 642 418.5 616 c 128,-1,50
 454 590 454 590 516 590 c 0,51,52
 663 590 663 590 782 707 c 1,53,-1
 782 776 l 1,54,55
 673 801 673 801 559 801 c 0,56,47
 383 801 383 801 383 690 c 0,48,49
EndSplineSet
Validated: 1
EndChar

StartChar: logicalnot
Encoding: 172 172 110
Width: 1228
GlyphClass: 1
Flags: W
LayerCount: 2
Fore
SplineSet
1063.5 829.5 m 128,-1,1
 1078 814 1078 814 1078 777 c 2,2,-1
 1078 383 l 2,3,4
 1078 348 1078 348 1061 333 c 128,-1,5
 1044 318 1044 318 1003 318 c 256,6,7
 962 318 962 318 945 333 c 128,-1,8
 928 348 928 348 928 383 c 2,9,-1
 928 709 l 1,10,-1
 203 709 l 2,11,12
 169 709 169 709 154.5 724.5 c 128,-1,13
 140 740 140 740 140 777 c 256,14,15
 140 814 140 814 154.5 829.5 c 128,-1,16
 169 845 169 845 203 845 c 2,17,-1
 1015 845 l 2,18,0
 1049 845 1049 845 1063.5 829.5 c 128,-1,1
EndSplineSet
Validated: 1
EndChar

StartChar: uni00AD
Encoding: 173 173 111
Width: 1228
GlyphClass: 1
Flags: W
LayerCount: 2
Fore
SplineSet
993.5 493.5 m 128,-1,1
 1008 478 1008 478 1008 441 c 256,2,3
 1008 404 1008 404 993.5 388.5 c 128,-1,4
 979 373 979 373 945 373 c 2,5,-1
 283 373 l 2,6,7
 249 373 249 373 234.5 388.5 c 128,-1,8
 220 404 220 404 220 441 c 256,9,10
 220 478 220 478 234.5 493.5 c 128,-1,11
 249 509 249 509 283 509 c 2,12,-1
 945 509 l 2,13,0
 979 509 979 509 993.5 493.5 c 128,-1,1
EndSplineSet
Validated: 1
EndChar

StartChar: registered
Encoding: 174 174 112
Width: 1228
GlyphClass: 1
Flags: W
LayerCount: 2
Fore
SplineSet
863 1266 m 128,-1,1
 973 1198 973 1198 1034.5 1081 c 128,-1,2
 1096 964 1096 964 1096 822 c 256,3,4
 1096 680 1096 680 1034.5 562.5 c 128,-1,5
 973 445 973 445 863 376.5 c 128,-1,6
 753 308 753 308 614 308 c 256,7,8
 475 308 475 308 365 376.5 c 128,-1,9
 255 445 255 445 193.5 562.5 c 128,-1,10
 132 680 132 680 132 822 c 256,11,12
 132 964 132 964 193.5 1081 c 128,-1,13
 255 1198 255 1198 365 1266 c 128,-1,14
 475 1334 475 1334 614 1334 c 256,15,0
 753 1334 753 1334 863 1266 c 128,-1,1
416.5 1181 m 128,-1,17
 330 1128 330 1128 282 1034 c 128,-1,18
 234 940 234 940 234 822 c 0,19,20
 234 703 234 703 282 609 c 128,-1,21
 330 515 330 515 416.5 461.5 c 128,-1,22
 503 408 503 408 614 408 c 256,23,24
 725 408 725 408 811.5 461.5 c 128,-1,25
 898 515 898 515 946 609 c 128,-1,26
 994 703 994 703 994 822 c 0,27,28
 994 940 994 940 946 1034 c 128,-1,29
 898 1128 898 1128 811.5 1181 c 128,-1,30
 725 1234 725 1234 614 1234 c 256,31,16
 503 1234 503 1234 416.5 1181 c 128,-1,17
740 1067.5 m 128,-1,33
 786 1044 786 1044 810.5 1002 c 128,-1,34
 835 960 835 960 835 906 c 0,35,36
 835 844 835 844 803.5 801 c 128,-1,37
 772 758 772 758 714 738 c 1,38,-1
 803 642 l 2,39,40
 825 618 825 618 825 598 c 0,41,42
 825 580 825 580 807 563 c 0,43,44
 790 547 790 547 771 547 c 0,45,46
 749 547 749 547 732 567 c 2,47,-1
 601 718 l 1,48,-1
 527 718 l 1,49,-1
 527 606 l 2,50,51
 527 577 527 577 515 564.5 c 128,-1,52
 503 552 503 552 474 552 c 0,53,54
 446 552 446 552 434.5 564.5 c 128,-1,55
 423 577 423 577 423 606 c 2,56,-1
 423 1038 l 2,57,58
 423 1066 423 1066 436 1078.5 c 128,-1,59
 449 1091 449 1091 477 1091 c 2,60,-1
 633 1091 l 2,61,32
 694 1091 694 1091 740 1067.5 c 128,-1,33
527 816 m 1,62,-1
 615 816 l 2,63,64
 671 816 671 816 699 839.5 c 128,-1,65
 727 863 727 863 727 906 c 0,66,67
 727 947 727 947 700.5 970 c 128,-1,68
 674 993 674 993 622 993 c 2,69,-1
 527 993 l 1,70,-1
 527 816 l 1,62,-1
EndSplineSet
Validated: 1
EndChar

StartChar: macron
Encoding: 175 175 113
Width: 1228
GlyphClass: 1
Flags: W
LayerCount: 2
Fore
SplineSet
923.5 1233.5 m 132,-1,1
 938 1217 938 1217 938 1178 c 260,2,3
 938 1139 938 1139 923.5 1122.5 c 132,-1,4
 909 1106 909 1106 875 1106 c 6,5,-1
 353 1106 l 6,6,7
 319 1106 319 1106 304.5 1122.5 c 132,-1,8
 290 1139 290 1139 290 1178 c 260,9,10
 290 1217 290 1217 304.5 1233.5 c 132,-1,11
 319 1250 319 1250 353 1250 c 6,12,-1
 875 1250 l 6,13,0
 909 1250 909 1250 923.5 1233.5 c 132,-1,1
EndSplineSet
Validated: 1
EndChar

StartChar: degree
Encoding: 176 176 114
Width: 1228
GlyphClass: 1
Flags: W
LayerCount: 2
Fore
SplineSet
666.5 1171.5 m 128,-1,1
 731 1134 731 1134 768.5 1069.5 c 128,-1,2
 806 1005 806 1005 806 929 c 256,3,4
 806 853 806 853 768.5 788.5 c 128,-1,5
 731 724 731 724 666.5 686.5 c 128,-1,6
 602 649 602 649 526 649 c 256,7,8
 450 649 450 649 385.5 686.5 c 128,-1,9
 321 724 321 724 283.5 788.5 c 128,-1,10
 246 853 246 853 246 929 c 256,11,12
 246 1005 246 1005 283.5 1069.5 c 128,-1,13
 321 1134 321 1134 385.5 1171.5 c 128,-1,14
 450 1209 450 1209 526 1209 c 256,15,0
 602 1209 602 1209 666.5 1171.5 c 128,-1,1
453.5 1054.5 m 128,-1,17
 420 1035 420 1035 400.5 1001.5 c 128,-1,18
 381 968 381 968 381 929 c 256,19,20
 381 890 381 890 400.5 856.5 c 128,-1,21
 420 823 420 823 453.5 803.5 c 128,-1,22
 487 784 487 784 526 784 c 256,23,24
 565 784 565 784 598.5 803.5 c 128,-1,25
 632 823 632 823 651.5 856.5 c 128,-1,26
 671 890 671 890 671 929 c 256,27,28
 671 968 671 968 651.5 1001.5 c 128,-1,29
 632 1035 632 1035 598.5 1054.5 c 128,-1,30
 565 1074 565 1074 526 1074 c 256,31,16
 487 1074 487 1074 453.5 1054.5 c 128,-1,17
EndSplineSet
Validated: 1
EndChar

StartChar: plusminus
Encoding: 177 177 115
Width: 1228
GlyphClass: 1
Flags: W
LayerCount: 2
Fore
SplineSet
666.5 1111.5 m 128,-1,1
 682 1097 682 1097 682 1063 c 2,2,-1
 682 810 l 1,3,-1
 995 810 l 2,4,5
 1029 810 1029 810 1043.5 794.5 c 128,-1,6
 1058 779 1058 779 1058 742 c 256,7,8
 1058 705 1058 705 1043.5 689.5 c 128,-1,9
 1029 674 1029 674 995 674 c 2,10,-1
 682 674 l 1,11,-1
 682 421 l 2,12,13
 682 387 682 387 666.5 372.5 c 128,-1,14
 651 358 651 358 614 358 c 256,15,16
 577 358 577 358 561.5 372.5 c 128,-1,17
 546 387 546 387 546 421 c 2,18,-1
 546 674 l 1,19,-1
 233 674 l 2,20,21
 199 674 199 674 184.5 689.5 c 128,-1,22
 170 705 170 705 170 742 c 256,23,24
 170 779 170 779 184.5 794.5 c 128,-1,25
 199 810 199 810 233 810 c 2,26,-1
 546 810 l 1,27,-1
 546 1063 l 2,28,29
 546 1097 546 1097 561.5 1111.5 c 128,-1,30
 577 1126 577 1126 614 1126 c 256,31,0
 651 1126 651 1126 666.5 1111.5 c 128,-1,1
1043.5 234.5 m 128,-1,33
 1058 219 1058 219 1058 182 c 256,34,35
 1058 145 1058 145 1043.5 129.5 c 128,-1,36
 1029 114 1029 114 995 114 c 2,37,-1
 233 114 l 2,38,39
 199 114 199 114 184.5 129.5 c 128,-1,40
 170 145 170 145 170 182 c 256,41,42
 170 219 170 219 184.5 234.5 c 128,-1,43
 199 250 199 250 233 250 c 2,44,-1
 995 250 l 2,45,32
 1029 250 1029 250 1043.5 234.5 c 128,-1,33
EndSplineSet
Validated: 1
EndChar

StartChar: uni00B2
Encoding: 178 178 116
Width: 1228
GlyphClass: 1
Flags: W
LayerCount: 2
Fore
SplineSet
768.5 1302.5 m 128,-1,1
 833 1271 833 1271 867 1213 c 128,-1,2
 901 1155 901 1155 901 1078 c 256,3,4
 901 1001 901 1001 861.5 938.5 c 128,-1,5
 822 876 822 876 738 806 c 2,6,-1
 499 608 l 1,7,-1
 821 608 l 1,8,-1
 821 686 l 2,9,10
 821 712 821 712 837 724.5 c 128,-1,11
 853 737 853 737 889 737 c 256,12,13
 925 737 925 737 940.5 724.5 c 128,-1,14
 956 712 956 712 956 686 c 2,15,-1
 956 536 l 2,16,17
 956 510 956 510 943 496.5 c 128,-1,18
 930 483 930 483 906 483 c 2,19,-1
 335 483 l 2,20,21
 288 483 288 483 288 555 c 0,22,23
 288 594 288 594 319 620 c 2,24,-1
 651 900 l 2,25,26
 708 949 708 949 734.5 989 c 128,-1,27
 761 1029 761 1029 761 1078 c 0,28,29
 761 1136 761 1136 721 1170.5 c 128,-1,30
 681 1205 681 1205 607 1205 c 0,31,32
 565 1205 565 1205 522.5 1194.5 c 128,-1,33
 480 1184 480 1184 446 1166 c 1,34,-1
 446 1063 l 2,35,36
 446 1037 446 1037 430 1024.5 c 128,-1,37
 414 1012 414 1012 378 1012 c 256,38,39
 342 1012 342 1012 326.5 1024.5 c 128,-1,40
 311 1037 311 1037 311 1063 c 2,41,-1
 311 1210 l 2,42,43
 311 1237 311 1237 332 1252 c 0,44,45
 391 1291 391 1291 467 1312.5 c 128,-1,46
 543 1334 543 1334 616 1334 c 0,47,0
 704 1334 704 1334 768.5 1302.5 c 128,-1,1
EndSplineSet
Validated: 1
EndChar

StartChar: uni00B3
Encoding: 179 179 117
Width: 1228
GlyphClass: 1
Flags: W
LayerCount: 2
Fore
SplineSet
761 1304 m 128,-1,1
 828 1274 828 1274 863.5 1220 c 128,-1,2
 899 1166 899 1166 899 1096 c 0,3,4
 899 975 899 975 787 915 c 1,5,6
 853 893 853 893 889.5 843 c 128,-1,7
 926 793 926 793 926 719 c 0,8,9
 926 600 926 600 844.5 532.5 c 128,-1,10
 763 465 763 465 605 465 c 0,11,12
 531 465 531 465 457 481.5 c 128,-1,13
 383 498 383 498 324 530 c 0,14,15
 302 542 302 542 302 569 c 0,16,17
 302 586 302 586 310 607 c 0,18,19
 328 654 328 654 359 654 c 0,20,21
 369 654 369 654 378 650 c 0,22,23
 429 624 429 624 486.5 609 c 128,-1,24
 544 594 544 594 598 594 c 0,25,26
 688 594 688 594 737 626.5 c 128,-1,27
 786 659 786 659 786 720 c 0,28,29
 786 786 786 786 738.5 813 c 128,-1,30
 691 840 691 840 602 840 c 2,31,-1
 550 840 l 2,32,33
 506 840 506 840 506 902 c 0,34,35
 506 930 506 930 516.5 947.5 c 128,-1,36
 527 965 527 965 550 965 c 2,37,-1
 589 965 l 2,38,39
 673 965 673 965 716 994 c 128,-1,40
 759 1023 759 1023 759 1086 c 0,41,42
 759 1144 759 1144 715 1174.5 c 128,-1,43
 671 1205 671 1205 593 1205 c 0,44,45
 514 1205 514 1205 446 1176 c 1,46,-1
 446 1113 l 2,47,48
 446 1087 446 1087 430 1074.5 c 128,-1,49
 414 1062 414 1062 378 1062 c 256,50,51
 342 1062 342 1062 326.5 1074.5 c 128,-1,52
 311 1087 311 1087 311 1113 c 2,53,-1
 311 1223 l 2,54,55
 311 1252 311 1252 332 1265 c 0,56,57
 389 1299 389 1299 461 1316.5 c 128,-1,58
 533 1334 533 1334 604 1334 c 0,59,0
 694 1334 694 1334 761 1304 c 128,-1,1
EndSplineSet
Validated: 1
EndChar

StartChar: acute
Encoding: 180 180 118
Width: 1228
GlyphClass: 1
Flags: W
LayerCount: 2
Fore
SplineSet
818 1415 m 0,1,2
 852 1415 852 1415 885 1374 c 0,3,4
 915 1335 915 1335 915 1306 c 0,5,6
 915 1280 915 1280 893 1267 c 2,7,-1
 519 1048 l 2,8,9
 501 1038 501 1038 487 1038 c 0,10,11
 463 1038 463 1038 441 1063 c 0,12,13
 417 1090 417 1090 417 1115 c 0,14,15
 417 1134 417 1134 433 1146 c 2,16,-1
 781 1402 l 2,17,0
 799 1415 799 1415 818 1415 c 0,1,2
EndSplineSet
Validated: 1
EndChar

StartChar: paragraph
Encoding: 182 182 120
Width: 1228
GlyphClass: 1
Flags: W
LayerCount: 2
Fore
SplineSet
1102.5 1171.5 m 128,-1,1
 1117 1156 1117 1156 1117 1119 c 256,2,3
 1117 1082 1117 1082 1102.5 1066.5 c 128,-1,4
 1088 1051 1088 1051 1054 1051 c 2,5,-1
 986 1051 l 1,6,-1
 986 -345 l 2,7,8
 986 -380 986 -380 969 -395 c 128,-1,9
 952 -410 952 -410 911 -410 c 256,10,11
 870 -410 870 -410 853 -395 c 128,-1,12
 836 -380 836 -380 836 -345 c 2,13,-1
 836 1051 l 1,14,-1
 676 1051 l 1,15,-1
 676 -345 l 2,16,17
 676 -380 676 -380 659 -395 c 128,-1,18
 642 -410 642 -410 601 -410 c 256,19,20
 560 -410 560 -410 543 -395 c 128,-1,21
 526 -380 526 -380 526 -345 c 2,22,-1
 526 502 l 1,23,24
 409 506 409 506 319.5 547.5 c 128,-1,25
 230 589 230 589 180.5 665 c 128,-1,26
 131 741 131 741 131 844 c 0,27,28
 131 950 131 950 183.5 1027.5 c 128,-1,29
 236 1105 236 1105 330.5 1146 c 128,-1,30
 425 1187 425 1187 548 1187 c 2,31,-1
 1054 1187 l 2,32,0
 1088 1187 1088 1187 1102.5 1171.5 c 128,-1,1
EndSplineSet
Validated: 1
EndChar

StartChar: cedilla
Encoding: 184 184 122
Width: 1228
GlyphClass: 1
Flags: W
LayerCount: 2
Fore
SplineSet
815 -159 m 128,-1,1
 866 -206 866 -206 866 -281 c 0,2,3
 866 -368 866 -368 804 -420 c 128,-1,4
 742 -472 742 -472 621 -472 c 0,5,6
 553 -472 553 -472 489 -460 c 128,-1,7
 425 -448 425 -448 374 -424 c 0,8,9
 351 -414 351 -414 351 -389 c 0,10,11
 351 -375 351 -375 359 -354 c 0,12,13
 376 -309 376 -309 405 -309 c 0,14,15
 413 -309 413 -309 418 -311 c 0,16,17
 461 -327 461 -327 512.5 -338 c 128,-1,18
 564 -349 564 -349 611 -349 c 0,19,20
 662 -349 662 -349 691 -332.5 c 128,-1,21
 720 -316 720 -316 720 -285 c 0,22,23
 720 -252 720 -252 693 -236 c 128,-1,24
 666 -220 666 -220 604 -220 c 2,25,-1
 565 -221 l 2,26,27
 550 -221 550 -221 540.5 -210.5 c 128,-1,28
 531 -200 531 -200 531 -177 c 2,29,-1
 531 28 l 1,30,-1
 663 28 l 1,31,-1
 663 -113 l 1,32,0
 764 -112 764 -112 815 -159 c 128,-1,1
EndSplineSet
Validated: 33
EndChar

StartChar: uni00B9
Encoding: 185 185 123
Width: 1228
GlyphClass: 1
Flags: W
LayerCount: 2
Fore
SplineSet
935 593.5 m 128,-1,1
 947 579 947 579 947 546 c 256,2,3
 947 513 947 513 935 498 c 128,-1,4
 923 483 923 483 898 483 c 2,5,-1
 365 483 l 2,6,7
 315 483 315 483 315 546 c 0,8,9
 315 579 315 579 327.5 593.5 c 128,-1,10
 340 608 340 608 365 608 c 2,11,-1
 569 608 l 1,12,-1
 569 1159 l 1,13,-1
 400 1071 l 2,14,15
 382 1062 382 1062 369 1062 c 0,16,17
 344 1062 344 1062 323 1096 c 0,18,19
 308 1123 308 1123 308 1139 c 0,20,21
 308 1163 308 1163 335 1176 c 2,22,-1
 636 1328 l 2,23,24
 652 1335 652 1335 662 1335 c 0,25,26
 680 1335 680 1335 692 1323.5 c 128,-1,27
 704 1312 704 1312 704 1292 c 2,28,-1
 704 608 l 1,29,-1
 898 608 l 2,30,0
 923 608 923 608 935 593.5 c 128,-1,1
EndSplineSet
Validated: 1
EndChar

StartChar: ordmasculine
Encoding: 186 186 124
Width: 1228
GlyphClass: 1
Flags: W
LayerCount: 2
Fore
SplineSet
807.5 1161 m 128,-1,1
 894 1113 894 1113 943.5 1028 c 128,-1,2
 993 943 993 943 993 837 c 0,3,4
 993 730 993 730 943.5 645.5 c 128,-1,5
 894 561 894 561 807.5 513 c 128,-1,6
 721 465 721 465 614 465 c 256,7,8
 507 465 507 465 420.5 513 c 128,-1,9
 334 561 334 561 284.5 645.5 c 128,-1,10
 235 730 235 730 235 837 c 0,11,12
 235 943 235 943 284.5 1028 c 128,-1,13
 334 1113 334 1113 420.5 1161 c 128,-1,14
 507 1209 507 1209 614 1209 c 256,15,0
 721 1209 721 1209 807.5 1161 c 128,-1,1
489.5 1046 m 128,-1,17
 435 1015 435 1015 405 960.5 c 128,-1,18
 375 906 375 906 375 837 c 256,19,20
 375 768 375 768 405 713 c 128,-1,21
 435 658 435 658 489.5 627.5 c 128,-1,22
 544 597 544 597 614 597 c 0,23,24
 685 597 685 597 739 627.5 c 128,-1,25
 793 658 793 658 823 712.5 c 128,-1,26
 853 767 853 767 853 837 c 0,27,28
 853 906 853 906 823 960.5 c 128,-1,29
 793 1015 793 1015 739 1046 c 128,-1,30
 685 1077 685 1077 614 1077 c 0,31,16
 544 1077 544 1077 489.5 1046 c 128,-1,17
EndSplineSet
Validated: 1
EndChar

StartChar: onequarter
Encoding: 188 188 126
Width: 1228
GlyphClass: 1
Flags: W
LayerCount: 2
Fore
SplineSet
519 695.5 m 128,-1,1
 509 683 509 683 488 683 c 2,2,-1
 43 683 l 2,3,4
 1 683 1 683 1 736 c 0,5,6
 1 788 1 788 43 788 c 2,7,-1
 213 788 l 1,8,-1
 213 1248 l 1,9,-1
 72 1174 l 2,10,11
 58 1167 58 1167 46 1167 c 0,12,13
 23 1167 23 1167 8 1195 c 0,14,15
 -5 1216 -5 1216 -5 1231 c 0,16,17
 -5 1251 -5 1251 18 1262 c 2,18,-1
 269 1389 l 2,19,20
 278 1394 278 1394 291 1394 c 0,21,22
 306 1394 306 1394 316 1385 c 128,-1,23
 326 1376 326 1376 326 1359 c 2,24,-1
 326 788 l 1,25,-1
 488 788 l 2,26,27
 509 788 509 788 519 775.5 c 128,-1,28
 529 763 529 763 529 736 c 0,29,0
 529 708 529 708 519 695.5 c 128,-1,1
1117 778 m 0,31,32
 1117 759 1117 759 1103 751 c 2,33,-1
 185 190 l 2,34,35
 178 186 178 186 169 186 c 0,36,37
 146 186 146 186 125 214 c 0,38,39
 111 234 111 234 111 252 c 256,40,41
 111 270 111 270 125 279 c 2,42,-1
 1043 840 l 2,43,44
 1050 844 1050 844 1059 844 c 0,45,46
 1082 844 1082 844 1103 816 c 0,47,30
 1117 798 1117 798 1117 778 c 0,31,32
1223 64 m 128,-1,49
 1233 52 1233 52 1233 24 c 256,50,51
 1233 -4 1233 -4 1223 -16.5 c 128,-1,52
 1213 -29 1213 -29 1193 -29 c 2,53,-1
 1102 -29 l 1,54,-1
 1102 -182 l 2,55,56
 1102 -202 1102 -202 1089 -212 c 128,-1,57
 1076 -222 1076 -222 1046 -222 c 256,58,59
 1016 -222 1016 -222 1002.5 -212 c 128,-1,60
 989 -202 989 -202 989 -182 c 2,61,-1
 989 -29 l 1,62,-1
 675 -29 l 2,63,64
 655 -29 655 -29 642.5 -12.5 c 128,-1,65
 630 4 630 4 630 36 c 0,66,67
 630 51 630 51 633 60.5 c 128,-1,68
 636 70 636 70 644 81 c 2,69,-1
 961 458 l 2,70,71
 976 477 976 477 991.5 486 c 128,-1,72
 1007 495 1007 495 1028 495 c 0,73,74
 1057 495 1057 495 1079.5 481.5 c 128,-1,75
 1102 468 1102 468 1102 448 c 2,76,-1
 1102 76 l 1,77,-1
 1193 76 l 2,78,48
 1213 76 1213 76 1223 64 c 128,-1,49
989 76 m 1,79,-1
 994 342 l 1,80,-1
 773 76 l 1,81,-1
 989 76 l 1,79,-1
EndSplineSet
Validated: 1
Ligature2: "<11,2> Diagonal Fractions lookup 2 subtable" one slash four
EndChar

StartChar: onehalf
Encoding: 189 189 127
Width: 1228
GlyphClass: 1
Flags: W
LayerCount: 2
Fore
SplineSet
519 695.5 m 128,-1,1
 509 683 509 683 488 683 c 2,2,-1
 43 683 l 2,3,4
 1 683 1 683 1 736 c 0,5,6
 1 788 1 788 43 788 c 2,7,-1
 213 788 l 1,8,-1
 213 1248 l 1,9,-1
 72 1174 l 2,10,11
 58 1167 58 1167 46 1167 c 0,12,13
 23 1167 23 1167 8 1195 c 0,14,15
 -5 1216 -5 1216 -5 1231 c 0,16,17
 -5 1251 -5 1251 18 1262 c 2,18,-1
 269 1389 l 2,19,20
 278 1394 278 1394 291 1394 c 0,21,22
 306 1394 306 1394 316 1385 c 128,-1,23
 326 1376 326 1376 326 1359 c 2,24,-1
 326 788 l 1,25,-1
 488 788 l 2,26,27
 509 788 509 788 519 775.5 c 128,-1,28
 529 763 529 763 529 736 c 0,29,0
 529 708 529 708 519 695.5 c 128,-1,1
1117 828 m 0,31,32
 1117 809 1117 809 1103 801 c 2,33,-1
 185 240 l 2,34,35
 178 236 178 236 169 236 c 0,36,37
 146 236 146 236 125 264 c 0,38,39
 111 284 111 284 111 302 c 256,40,41
 111 320 111 320 125 329 c 2,42,-1
 1043 890 l 2,43,44
 1050 894 1050 894 1059 894 c 0,45,46
 1082 894 1082 894 1103 866 c 0,47,30
 1117 848 1117 848 1117 828 c 0,31,32
1214 -14.5 m 128,-1,49
 1227 -25 1227 -25 1227 -46 c 2,50,-1
 1227 -171 l 2,51,52
 1227 -216 1227 -216 1186 -216 c 2,53,-1
 709 -216 l 2,54,55
 669 -216 669 -216 669 -156 c 0,56,57
 669 -124 669 -124 695 -101 c 2,58,-1
 973 132 l 2,59,60
 1021 172 1021 172 1042.5 206 c 128,-1,61
 1064 240 1064 240 1064 281 c 0,62,63
 1064 330 1064 330 1031 358.5 c 128,-1,64
 998 387 998 387 936 387 c 0,65,66
 900 387 900 387 865 378.5 c 128,-1,67
 830 370 830 370 801 355 c 1,68,-1
 801 269 l 2,69,70
 801 247 801 247 788 236.5 c 128,-1,71
 775 226 775 226 745 226 c 256,72,73
 715 226 715 226 702 236.5 c 128,-1,74
 689 247 689 247 689 269 c 2,75,-1
 689 391 l 2,76,77
 689 415 689 415 706 426 c 0,78,79
 755 459 755 459 818.5 477 c 128,-1,80
 882 495 882 495 943 495 c 0,81,82
 1054 495 1054 495 1117.5 437 c 128,-1,83
 1181 379 1181 379 1181 281 c 0,84,85
 1181 217 1181 217 1148 164 c 128,-1,86
 1115 111 1115 111 1045 54 c 2,87,-1
 846 -111 l 1,88,-1
 1115 -111 l 1,89,-1
 1115 -46 l 2,90,91
 1115 -25 1115 -25 1128 -14.5 c 128,-1,92
 1141 -4 1141 -4 1171 -4 c 256,93,48
 1201 -4 1201 -4 1214 -14.5 c 128,-1,49
EndSplineSet
Validated: 1
Ligature2: "<11,2> Diagonal Fractions lookup 2 subtable" one slash two
EndChar

StartChar: threequarters
Encoding: 190 190 128
Width: 1228
GlyphClass: 1
Flags: W
LayerCount: 2
Fore
SplineSet
403.5 1370 m 128,-1,1
 459 1345 459 1345 489 1299.5 c 128,-1,2
 519 1254 519 1254 519 1196 c 0,3,4
 519 1096 519 1096 425 1045 c 1,5,6
 480 1026 480 1026 510.5 984.5 c 128,-1,7
 541 943 541 943 541 881 c 0,8,9
 541 782 541 782 473 725.5 c 128,-1,10
 405 669 405 669 273 669 c 0,11,12
 212 669 212 669 150 683 c 128,-1,13
 88 697 88 697 39 724 c 0,14,15
 20 734 20 734 20 756 c 0,16,17
 20 769 20 769 27 788 c 0,18,19
 41 827 41 827 68 827 c 0,20,21
 75 827 75 827 84 824 c 0,22,23
 126 802 126 802 174 789.5 c 128,-1,24
 222 777 222 777 267 777 c 0,25,26
 342 777 342 777 383 804.5 c 128,-1,27
 424 832 424 832 424 882 c 0,28,29
 424 937 424 937 384.5 959.5 c 128,-1,30
 345 982 345 982 271 982 c 2,31,-1
 227 982 l 2,32,33
 191 982 191 982 191 1034 c 0,34,35
 191 1058 191 1058 200 1072.5 c 128,-1,36
 209 1087 209 1087 227 1087 c 2,37,-1
 260 1087 l 2,38,39
 330 1087 330 1087 366 1111 c 128,-1,40
 402 1135 402 1135 402 1188 c 0,41,42
 402 1237 402 1237 365 1262 c 128,-1,43
 328 1287 328 1287 263 1287 c 0,44,45
 196 1287 196 1287 140 1263 c 1,46,-1
 140 1210 l 2,47,48
 140 1189 140 1189 127 1178.5 c 128,-1,49
 114 1168 114 1168 84 1168 c 256,50,51
 54 1168 54 1168 41 1178.5 c 128,-1,52
 28 1189 28 1189 28 1210 c 2,53,-1
 28 1302 l 2,54,55
 28 1328 28 1328 45 1337 c 0,56,57
 93 1366 93 1366 153 1380.5 c 128,-1,58
 213 1395 213 1395 272 1395 c 0,59,0
 348 1395 348 1395 403.5 1370 c 128,-1,1
1059 854 m 0,61,62
 1082 854 1082 854 1103 826 c 0,63,64
 1117 808 1117 808 1117 788 c 0,65,66
 1117 769 1117 769 1103 761 c 2,67,-1
 185 200 l 2,68,69
 178 196 178 196 169 196 c 0,70,71
 146 196 146 196 125 224 c 0,72,73
 111 244 111 244 111 262 c 256,74,75
 111 280 111 280 125 289 c 2,76,-1
 1043 850 l 2,77,60
 1050 854 1050 854 1059 854 c 0,61,62
1079.5 481.5 m 128,-1,79
 1102 468 1102 468 1102 448 c 2,80,-1
 1102 76 l 1,81,-1
 1193 76 l 2,82,83
 1213 76 1213 76 1223 64 c 128,-1,84
 1233 52 1233 52 1233 24 c 256,85,86
 1233 -4 1233 -4 1223 -16.5 c 128,-1,87
 1213 -29 1213 -29 1193 -29 c 2,88,-1
 1102 -29 l 1,89,-1
 1102 -182 l 2,90,91
 1102 -202 1102 -202 1089 -212 c 128,-1,92
 1076 -222 1076 -222 1046 -222 c 256,93,94
 1016 -222 1016 -222 1002.5 -212 c 128,-1,95
 989 -202 989 -202 989 -182 c 2,96,-1
 989 -29 l 1,97,-1
 675 -29 l 2,98,99
 655 -29 655 -29 642.5 -12.5 c 128,-1,100
 630 4 630 4 630 36 c 0,101,102
 630 51 630 51 633 60.5 c 128,-1,103
 636 70 636 70 644 81 c 2,104,-1
 961 458 l 2,105,106
 976 477 976 477 991.5 486 c 128,-1,107
 1007 495 1007 495 1028 495 c 0,108,78
 1057 495 1057 495 1079.5 481.5 c 128,-1,79
773 76 m 1,109,-1
 989 76 l 1,110,-1
 994 342 l 1,111,-1
 773 76 l 1,109,-1
EndSplineSet
Validated: 1
Ligature2: "<11,2> Diagonal Fractions lookup 2 subtable" three slash four
EndChar

StartChar: questiondown
Encoding: 191 191 129
Width: 1228
GlyphClass: 1
Flags: W
LayerCount: 2
Fore
SplineSet
566 708.5 m 128,-1,1
 539 723 539 723 539 757 c 2,2,-1
 539 871 l 2,3,4
 539 905 539 905 566 919.5 c 128,-1,5
 593 934 593 934 654 934 c 256,6,7
 715 934 715 934 742 919.5 c 128,-1,8
 769 905 769 905 769 871 c 2,9,-1
 769 757 l 2,10,11
 769 723 769 723 742 708.5 c 128,-1,12
 715 694 715 694 654 694 c 256,13,0
 593 694 593 694 566 708.5 c 128,-1,1
423.5 -305.5 m 128,-1,15
 345 -266 345 -266 303.5 -195.5 c 128,-1,16
 262 -125 262 -125 262 -32 c 0,17,18
 262 54 262 54 296.5 115.5 c 128,-1,19
 331 177 331 177 398.5 222.5 c 128,-1,20
 466 268 466 268 575 313 c 1,21,-1
 588 457 l 2,22,23
 593 505 593 505 654 505 c 0,24,25
 717 505 717 505 720 457 c 2,26,-1
 733 259 l 2,27,28
 735 239 735 239 727.5 227 c 128,-1,29
 720 215 720 215 703 208 c 2,30,-1
 634 180 l 2,31,32
 554 147 554 147 507.5 118 c 128,-1,33
 461 89 461 89 438.5 53 c 128,-1,34
 416 17 416 17 416 -32 c 0,35,36
 416 -107 416 -107 466.5 -152 c 128,-1,37
 517 -197 517 -197 609 -197 c 0,38,39
 736 -197 736 -197 824 -160 c 1,40,-1
 824 -71 l 2,41,42
 824 -36 824 -36 841 -21 c 128,-1,43
 858 -6 858 -6 899 -6 c 256,44,45
 940 -6 940 -6 957 -21 c 128,-1,46
 974 -36 974 -36 974 -71 c 2,47,-1
 974 -198 l 2,48,49
 974 -219 974 -219 968 -232.5 c 128,-1,50
 962 -246 962 -246 949 -254 c 0,51,52
 798 -345 798 -345 610 -345 c 0,53,14
 502 -345 502 -345 423.5 -305.5 c 128,-1,15
EndSplineSet
Validated: 1
EndChar

StartChar: AE
Encoding: 198 198 136
Width: 1228
GlyphClass: 1
Flags: W
LayerCount: 2
Fore
SplineSet
1111.5 1171.5 m 128,-1,1
 1126 1156 1126 1156 1126 1119 c 2,2,-1
 1126 865 l 2,3,4
 1126 830 1126 830 1109 815 c 128,-1,5
 1092 800 1092 800 1051 800 c 256,6,7
 1010 800 1010 800 993 815 c 128,-1,8
 976 830 976 830 976 865 c 2,9,-1
 976 1051 l 1,10,-1
 716 1051 l 1,11,-1
 716 685 l 1,12,-1
 908 685 l 2,13,14
 942 685 942 685 956.5 669.5 c 128,-1,15
 971 654 971 654 971 617 c 256,16,17
 971 580 971 580 956.5 564.5 c 128,-1,18
 942 549 942 549 908 549 c 2,19,-1
 716 549 l 1,20,-1
 716 136 l 1,21,-1
 988 136 l 1,22,-1
 988 365 l 2,23,24
 988 400 988 400 1005 415 c 128,-1,25
 1022 430 1022 430 1063 430 c 256,26,27
 1104 430 1104 430 1121 415 c 128,-1,28
 1138 400 1138 400 1138 365 c 2,29,-1
 1138 68 l 2,30,31
 1138 31 1138 31 1123.5 15.5 c 128,-1,32
 1109 0 1109 0 1075 0 c 2,33,-1
 629 0 l 2,34,35
 595 0 595 0 580.5 15.5 c 128,-1,36
 566 31 566 31 566 68 c 2,37,-1
 566 374 l 1,38,-1
 341 374 l 1,39,-1
 269 136 l 1,40,-1
 357 136 l 2,41,42
 391 136 391 136 405.5 120.5 c 128,-1,43
 420 105 420 105 420 68 c 256,44,45
 420 31 420 31 405.5 15.5 c 128,-1,46
 391 0 391 0 357 0 c 2,47,-1
 63 0 l 2,48,49
 29 0 29 0 14.5 15.5 c 128,-1,50
 0 31 0 31 0 68 c 256,51,52
 0 105 0 105 14.5 120.5 c 128,-1,53
 29 136 29 136 63 136 c 2,54,-1
 113 136 l 1,55,-1
 393 1051 l 1,56,-1
 294 1051 l 2,57,58
 260 1051 260 1051 245.5 1066.5 c 128,-1,59
 231 1082 231 1082 231 1119 c 256,60,61
 231 1156 231 1156 245.5 1171.5 c 128,-1,62
 260 1187 260 1187 294 1187 c 2,63,-1
 1063 1187 l 2,64,0
 1097 1187 1097 1187 1111.5 1171.5 c 128,-1,1
546 1051 m 1,65,-1
 382 510 l 1,66,-1
 566 510 l 1,67,-1
 566 1051 l 1,68,-1
 546 1051 l 1,65,-1
EndSplineSet
Validated: 1
EndChar

StartChar: Ccedilla
Encoding: 199 199 137
Width: 1228
GlyphClass: 1
Flags: W
LayerCount: 2
Fore
SplineSet
1093 161 m 0,1,2
 1093 131 1093 131 1062 109 c 0,3,4
 900 -4 900 -4 693 -20 c 1,5,-1
 693 -113 l 1,6,7
 794 -112 794 -112 845 -159 c 128,-1,8
 896 -206 896 -206 896 -281 c 0,9,10
 896 -368 896 -368 834 -420 c 128,-1,11
 772 -472 772 -472 651 -472 c 0,12,13
 583 -472 583 -472 519 -460 c 128,-1,14
 455 -448 455 -448 404 -424 c 0,15,16
 381 -414 381 -414 381 -389 c 0,17,18
 381 -375 381 -375 389 -354 c 0,19,20
 406 -309 406 -309 435 -309 c 0,21,22
 443 -309 443 -309 448 -311 c 0,23,24
 491 -327 491 -327 542.5 -338 c 128,-1,25
 594 -349 594 -349 641 -349 c 0,26,27
 692 -349 692 -349 721 -332.5 c 128,-1,28
 750 -316 750 -316 750 -285 c 0,29,30
 750 -252 750 -252 723 -236 c 128,-1,31
 696 -220 696 -220 634 -220 c 2,32,-1
 595 -221 l 2,33,34
 580 -221 580 -221 570.5 -210.5 c 128,-1,35
 561 -200 561 -200 561 -177 c 2,36,-1
 561 -17 l 1,37,38
 426 0 426 0 326 80 c 128,-1,39
 226 160 226 160 172 292 c 128,-1,40
 118 424 118 424 118 593 c 0,41,42
 118 776 118 776 183 915.5 c 128,-1,43
 248 1055 248 1055 365.5 1132 c 128,-1,44
 483 1209 483 1209 634 1209 c 0,45,46
 728 1209 728 1209 801 1177 c 128,-1,47
 874 1145 874 1145 924 1086 c 1,48,-1
 924 1144 l 2,49,50
 924 1179 924 1179 941 1194 c 128,-1,51
 958 1209 958 1209 999 1209 c 256,52,53
 1040 1209 1040 1209 1057 1194 c 128,-1,54
 1074 1179 1074 1179 1074 1144 c 2,55,-1
 1074 814 l 2,56,57
 1074 779 1074 779 1057 764 c 128,-1,58
 1040 749 1040 749 999 749 c 256,59,60
 958 749 958 749 941 764 c 128,-1,61
 924 779 924 779 924 814 c 0,62,63
 924 882 924 882 893.5 938 c 128,-1,64
 863 994 863 994 800 1027.5 c 128,-1,65
 737 1061 737 1061 644 1061 c 0,66,67
 536 1061 536 1061 452.5 1004 c 128,-1,68
 369 947 369 947 322.5 841 c 128,-1,69
 276 735 276 735 276 593 c 256,70,71
 276 451 276 451 320 345.5 c 128,-1,72
 364 240 364 240 445 183 c 128,-1,73
 526 126 526 126 634 126 c 0,74,75
 733 126 733 126 823 155 c 128,-1,76
 913 184 913 184 985 239 c 0,77,78
 1002 253 1002 253 1022 253 c 0,79,80
 1052 253 1052 253 1075 214 c 0,81,0
 1093 184 1093 184 1093 161 c 0,1,2
EndSplineSet
Validated: 33
EndChar

StartChar: Eth
Encoding: 208 208 146
Width: 1228
GlyphClass: 1
Flags: W
LayerCount: 2
Fore
SplineSet
890 1115.5 m 128,-1,1
 1009 1044 1009 1044 1074.5 909.5 c 128,-1,2
 1140 775 1140 775 1140 593 c 256,3,4
 1140 411 1140 411 1074.5 277 c 128,-1,5
 1009 143 1009 143 890 71.5 c 128,-1,6
 771 0 771 0 614 0 c 2,7,-1
 143 0 l 2,8,9
 109 0 109 0 94.5 15.5 c 128,-1,10
 80 31 80 31 80 68 c 256,11,12
 80 105 80 105 94.5 120.5 c 128,-1,13
 109 136 109 136 143 136 c 2,14,-1
 255 136 l 1,15,-1
 255 544 l 1,16,-1
 113 544 l 2,17,18
 79 544 79 544 64.5 559.5 c 128,-1,19
 50 575 50 575 50 612 c 256,20,21
 50 649 50 649 64.5 664.5 c 128,-1,22
 79 680 79 680 113 680 c 2,23,-1
 255 680 l 1,24,-1
 255 1051 l 1,25,-1
 143 1051 l 2,26,27
 109 1051 109 1051 94.5 1066.5 c 128,-1,28
 80 1082 80 1082 80 1119 c 256,29,30
 80 1156 80 1156 94.5 1171.5 c 128,-1,31
 109 1187 109 1187 143 1187 c 2,32,-1
 614 1187 l 2,33,0
 771 1187 771 1187 890 1115.5 c 128,-1,1
798 188.5 m 128,-1,35
 886 241 886 241 934 343.5 c 128,-1,36
 982 446 982 446 982 593 c 256,37,38
 982 740 982 740 934 842.5 c 128,-1,39
 886 945 886 945 798 998 c 128,-1,40
 710 1051 710 1051 591 1051 c 2,41,-1
 405 1051 l 1,42,-1
 405 680 l 1,43,-1
 595 680 l 2,44,45
 629 680 629 680 643.5 664.5 c 128,-1,46
 658 649 658 649 658 612 c 256,47,48
 658 575 658 575 643.5 559.5 c 128,-1,49
 629 544 629 544 595 544 c 2,50,-1
 405 544 l 1,51,-1
 405 136 l 1,52,-1
 591 136 l 2,53,34
 710 136 710 136 798 188.5 c 128,-1,35
EndSplineSet
Validated: 1
EndChar

StartChar: multiply
Encoding: 215 215 153
Width: 1228
GlyphClass: 1
Flags: W
LayerCount: 2
Fore
SplineSet
919 963 m 0,1,2
 941 963 941 963 968 936 c 256,3,4
 995 909 995 909 995 887 c 0,5,6
 995 867 995 867 971 843 c 2,7,-1
 710 582 l 1,8,-1
 971 321 l 2,9,10
 995 297 995 297 995 277 c 0,11,12
 995 255 995 255 968 228 c 256,13,14
 941 201 941 201 919 201 c 0,15,16
 899 201 899 201 875 225 c 2,17,-1
 614 486 l 1,18,-1
 353 225 l 2,19,20
 329 201 329 201 309 201 c 0,21,22
 287 201 287 201 260 228 c 256,23,24
 233 255 233 255 233 277 c 0,25,26
 233 297 233 297 257 321 c 2,27,-1
 518 582 l 1,28,-1
 257 843 l 2,29,30
 233 867 233 867 233 887 c 0,31,32
 233 909 233 909 260 936 c 256,33,34
 287 963 287 963 309 963 c 0,35,36
 329 963 329 963 353 939 c 2,37,-1
 614 678 l 1,38,-1
 875 939 l 2,39,0
 899 963 899 963 919 963 c 0,1,2
EndSplineSet
Validated: 1
EndChar

StartChar: Oslash
Encoding: 216 216 154
Width: 1228
GlyphClass: 1
Flags: W
LayerCount: 2
Fore
SplineSet
1106 1200 m 0,1,2
 1106 1182 1106 1182 1091 1159 c 2,3,-1
 1002 1031 l 1,4,5
 1069 950 1069 950 1104.5 838.5 c 128,-1,6
 1140 727 1140 727 1140 593 c 0,7,8
 1140 410 1140 410 1074.5 270.5 c 128,-1,9
 1009 131 1009 131 889.5 54.5 c 128,-1,10
 770 -22 770 -22 614 -22 c 0,11,12
 452 -22 452 -22 329 61 c 1,13,-1
 252 -50 l 2,14,15
 229 -82 229 -82 205 -82 c 0,16,17
 187 -82 187 -82 158 -63 c 0,18,19
 121 -38 121 -38 121 -11 c 0,20,21
 121 6 121 6 137 30 c 2,22,-1
 225 156 l 1,23,24
 159 237 159 237 123.5 348.5 c 128,-1,25
 88 460 88 460 88 593 c 0,26,27
 88 776 88 776 153.5 915.5 c 128,-1,28
 219 1055 219 1055 338.5 1132 c 128,-1,29
 458 1209 458 1209 614 1209 c 0,30,31
 776 1209 776 1209 898 1127 c 1,32,-1
 976 1239 l 2,33,34
 999 1271 999 1271 1024 1271 c 0,35,36
 1043 1271 1043 1271 1071 1252 c 0,37,0
 1106 1227 1106 1227 1106 1200 c 0,1,2
420.5 1004 m 128,-1,39
 337 947 337 947 291.5 841 c 128,-1,40
 246 735 246 735 246 593 c 0,41,42
 246 412 246 412 319 292 c 1,43,-1
 811 1002 l 1,44,45
 726 1061 726 1061 614 1061 c 0,46,38
 504 1061 504 1061 420.5 1004 c 128,-1,39
614 126 m 0,48,49
 724 126 724 126 807.5 183 c 128,-1,50
 891 240 891 240 936.5 345.5 c 128,-1,51
 982 451 982 451 982 593 c 0,52,53
 982 776 982 776 908 896 c 1,54,-1
 416 186 l 1,55,47
 501 126 501 126 614 126 c 0,48,49
EndSplineSet
Validated: 1
EndChar

StartChar: Thorn
Encoding: 222 222 160
Width: 1228
GlyphClass: 1
Flags: W
LayerCount: 2
Fore
SplineSet
743.5 1171.5 m 128,-1,1
 758 1156 758 1156 758 1119 c 256,2,3
 758 1082 758 1082 743.5 1066.5 c 128,-1,4
 729 1051 729 1051 695 1051 c 2,5,-1
 479 1051 l 1,6,-1
 479 927 l 1,7,-1
 710 927 l 2,8,9
 827 927 827 927 908.5 884.5 c 128,-1,10
 990 842 990 842 1031 767.5 c 128,-1,11
 1072 693 1072 693 1072 598 c 0,12,13
 1072 504 1072 504 1031 430.5 c 128,-1,14
 990 357 990 357 908.5 315 c 128,-1,15
 827 273 827 273 710 273 c 2,16,-1
 479 273 l 1,17,-1
 479 136 l 1,18,-1
 695 136 l 2,19,20
 729 136 729 136 743.5 120.5 c 128,-1,21
 758 105 758 105 758 68 c 256,22,23
 758 31 758 31 743.5 15.5 c 128,-1,24
 729 0 729 0 695 0 c 2,25,-1
 173 0 l 2,26,27
 139 0 139 0 124.5 15.5 c 128,-1,28
 110 31 110 31 110 68 c 256,29,30
 110 105 110 105 124.5 120.5 c 128,-1,31
 139 136 139 136 173 136 c 2,32,-1
 329 136 l 1,33,-1
 329 1051 l 1,34,-1
 173 1051 l 2,35,36
 139 1051 139 1051 124.5 1066.5 c 128,-1,37
 110 1082 110 1082 110 1119 c 256,38,39
 110 1156 110 1156 124.5 1171.5 c 128,-1,40
 139 1187 139 1187 173 1187 c 2,41,-1
 695 1187 l 2,42,0
 729 1187 729 1187 743.5 1171.5 c 128,-1,1
479 409 m 1,43,-1
 689 409 l 2,44,45
 798 409 798 409 856 458.5 c 128,-1,46
 914 508 914 508 914 598 c 0,47,48
 914 686 914 686 858 738.5 c 128,-1,49
 802 791 802 791 689 791 c 2,50,-1
 479 791 l 1,51,-1
 479 409 l 1,43,-1
EndSplineSet
Validated: 1
EndChar

StartChar: germandbls
Encoding: 223 223 161
Width: 1228
GlyphClass: 1
Flags: W
LayerCount: 2
Fore
SplineSet
822.5 1271.5 m 128,-1,1
 908 1226 908 1226 951 1147.5 c 128,-1,2
 994 1069 994 1069 994 971 c 0,3,4
 994 880 994 880 948 812.5 c 128,-1,5
 902 745 902 745 820 702 c 1,6,7
 928 661 928 661 989.5 571.5 c 128,-1,8
 1051 482 1051 482 1051 360 c 0,9,10
 1051 242 1051 242 1000 155.5 c 128,-1,11
 949 69 949 69 857 23.5 c 128,-1,12
 765 -22 765 -22 644 -22 c 0,13,14
 594 -22 594 -22 577.5 -5.5 c 128,-1,15
 561 11 561 11 561 55 c 0,16,17
 561 92 561 92 576 109 c 128,-1,18
 591 126 591 126 625 126 c 0,19,20
 751 126 751 126 822 187 c 128,-1,21
 893 248 893 248 893 362 c 0,22,23
 893 484 893 484 824 551.5 c 128,-1,24
 755 619 755 619 637 619 c 0,25,26
 603 619 603 619 588.5 635.5 c 128,-1,27
 574 652 574 652 574 688 c 256,28,29
 574 724 574 724 588.5 740 c 128,-1,30
 603 756 603 756 637 759 c 0,31,32
 735 769 735 769 786.5 825 c 128,-1,33
 838 881 838 881 838 971 c 0,34,35
 838 1065 838 1065 779.5 1118.5 c 128,-1,36
 721 1172 721 1172 612 1172 c 0,37,38
 510 1172 510 1172 452.5 1107.5 c 128,-1,39
 395 1043 395 1043 395 932 c 2,40,-1
 395 68 l 2,41,42
 395 31 395 31 380.5 15.5 c 128,-1,43
 366 0 366 0 332 0 c 2,44,-1
 103 0 l 2,45,46
 69 0 69 0 54.5 15.5 c 128,-1,47
 40 31 40 31 40 68 c 256,48,49
 40 105 40 105 54.5 120.5 c 128,-1,50
 69 136 69 136 103 136 c 2,51,-1
 245 136 l 1,52,-1
 245 943 l 2,53,54
 245 1053 245 1053 289.5 1137.5 c 128,-1,55
 334 1222 334 1222 418 1269.5 c 128,-1,56
 502 1317 502 1317 616 1317 c 0,57,0
 737 1317 737 1317 822.5 1271.5 c 128,-1,1
EndSplineSet
Validated: 1
EndChar

StartChar: ae
Encoding: 230 230 168
Width: 1228
GlyphClass: 1
Flags: W
LayerCount: 2
Fore
SplineSet
1075 830 m 128,-1,1
 1145 714 1145 714 1151 502 c 0,2,3
 1151 468 1151 468 1136.5 454 c 128,-1,4
 1122 440 1122 440 1088 440 c 2,5,-1
 689 440 l 1,6,7
 694 123 694 123 853 123 c 0,8,9
 901 123 901 123 941 141.5 c 128,-1,10
 981 160 981 160 1023 201 c 0,11,12
 1040 218 1040 218 1062 218 c 0,13,14
 1093 218 1093 218 1118 187 c 0,15,16
 1139 162 1139 162 1139 137 c 0,17,18
 1139 109 1139 109 1112 84 c 0,19,20
 1057 32 1057 32 991 5 c 128,-1,21
 925 -22 925 -22 853 -22 c 0,22,23
 690 -22 690 -22 609 122 c 1,24,25
 561 55 561 55 488.5 16.5 c 128,-1,26
 416 -22 416 -22 335 -22 c 0,27,28
 257 -22 257 -22 198 10 c 128,-1,29
 139 42 139 42 107 101 c 128,-1,30
 75 160 75 160 75 240 c 0,31,32
 75 407 75 407 199.5 493.5 c 128,-1,33
 324 580 324 580 539 580 c 1,34,-1
 539 602 l 2,35,36
 539 703 539 703 511 752 c 128,-1,37
 483 801 483 801 408 801 c 0,38,39
 363 801 363 801 320 784 c 128,-1,40
 277 767 277 767 231 732 c 0,41,42
 212 717 212 717 189 717 c 0,43,44
 161 717 161 717 137 742 c 0,45,46
 116 766 116 766 116 792 c 0,47,48
 116 820 116 820 139 840 c 0,49,50
 262 946 262 946 408 946 c 0,51,52
 561 946 561 946 629 830 c 1,53,54
 669 887 669 887 725.5 916.5 c 128,-1,55
 782 946 782 946 853 946 c 0,56,0
 1005 946 1005 946 1075 830 c 128,-1,1
745 749 m 128,-1,58
 706 697 706 697 694 580 c 1,59,-1
 994 580 l 1,60,61
 987 688 987 688 954 744.5 c 128,-1,62
 921 801 921 801 855 801 c 0,63,57
 784 801 784 801 745 749 c 128,-1,58
303.5 390 m 128,-1,65
 228 340 228 340 228 240 c 0,66,67
 228 183 228 183 258 151 c 128,-1,68
 288 119 288 119 339 119 c 0,69,70
 395 119 395 119 440.5 147.5 c 128,-1,71
 486 176 486 176 512.5 226.5 c 128,-1,72
 539 277 539 277 539 340 c 2,73,-1
 539 440 l 1,74,64
 379 440 379 440 303.5 390 c 128,-1,65
EndSplineSet
Validated: 1
EndChar

StartChar: ccedilla
Encoding: 231 231 169
Width: 1228
GlyphClass: 1
Flags: W
LayerCount: 2
Fore
SplineSet
1053 164 m 0,1,2
 1053 129 1053 129 1021 106 c 0,3,4
 951 53 951 53 857.5 20.5 c 128,-1,5
 764 -12 764 -12 663 -20 c 1,6,-1
 663 -113 l 1,7,8
 764 -112 764 -112 815 -159 c 128,-1,9
 866 -206 866 -206 866 -281 c 0,10,11
 866 -368 866 -368 804 -420 c 128,-1,12
 742 -472 742 -472 621 -472 c 0,13,14
 553 -472 553 -472 489 -460 c 128,-1,15
 425 -448 425 -448 374 -424 c 0,16,17
 351 -414 351 -414 351 -389 c 0,18,19
 351 -375 351 -375 359 -354 c 0,20,21
 376 -309 376 -309 405 -309 c 0,22,23
 413 -309 413 -309 418 -311 c 0,24,25
 461 -327 461 -327 512.5 -338 c 128,-1,26
 564 -349 564 -349 611 -349 c 0,27,28
 662 -349 662 -349 691 -332.5 c 128,-1,29
 720 -316 720 -316 720 -285 c 0,30,31
 720 -252 720 -252 693 -236 c 128,-1,32
 666 -220 666 -220 604 -220 c 2,33,-1
 565 -221 l 2,34,35
 550 -221 550 -221 540.5 -210.5 c 128,-1,36
 531 -200 531 -200 531 -177 c 2,37,-1
 531 -17 l 1,38,39
 409 0 409 0 317.5 65.5 c 128,-1,40
 226 131 226 131 176.5 234 c 128,-1,41
 127 337 127 337 127 462 c 0,42,43
 127 600 127 600 188 710 c 128,-1,44
 249 820 249 820 358.5 883 c 128,-1,45
 468 946 468 946 609 946 c 0,46,47
 698 946 698 946 772.5 913.5 c 128,-1,48
 847 881 847 881 899 821 c 1,49,-1
 899 881 l 2,50,51
 899 916 899 916 916 931 c 128,-1,52
 933 946 933 946 974 946 c 256,53,54
 1015 946 1015 946 1032 931 c 128,-1,55
 1049 916 1049 916 1049 881 c 2,56,-1
 1049 591 l 2,57,58
 1049 556 1049 556 1032 541 c 128,-1,59
 1015 526 1015 526 974 526 c 256,60,61
 933 526 933 526 916 541 c 128,-1,62
 899 556 899 556 899 591 c 0,63,64
 899 652 899 652 867 699 c 128,-1,65
 835 746 835 746 771.5 772 c 128,-1,66
 708 798 708 798 619 798 c 0,67,68
 523 798 523 798 447 755 c 128,-1,69
 371 712 371 712 328 635 c 128,-1,70
 285 558 285 558 285 462 c 0,71,72
 285 365 285 365 325.5 288.5 c 128,-1,73
 366 212 366 212 439.5 169 c 128,-1,74
 513 126 513 126 609 126 c 0,75,76
 701 126 701 126 787.5 154.5 c 128,-1,77
 874 183 874 183 945 237 c 0,78,79
 966 253 966 253 984 253 c 0,80,81
 1013 253 1013 253 1038 212 c 0,82,0
 1053 187 1053 187 1053 164 c 0,1,2
EndSplineSet
Validated: 33
EndChar

StartChar: eth
Encoding: 240 240 178
Width: 1228
GlyphClass: 1
Flags: W
LayerCount: 2
Fore
SplineSet
1088 432 m 0,1,2
 1088 298 1088 298 1026.5 195 c 128,-1,3
 965 92 965 92 857 35 c 128,-1,4
 749 -22 749 -22 614 -22 c 256,5,6
 479 -22 479 -22 371 35 c 128,-1,7
 263 92 263 92 201.5 195 c 128,-1,8
 140 298 140 298 140 432 c 256,9,10
 140 566 140 566 201.5 669 c 128,-1,11
 263 772 263 772 371 829 c 128,-1,12
 479 886 479 886 614 886 c 0,13,14
 735 886 735 886 853 809 c 1,15,16
 780 929 780 929 644 1036 c 1,17,-1
 404 946 l 2,18,19
 387 939 387 939 373 939 c 0,20,21
 355 939 355 939 343 950.5 c 128,-1,22
 331 962 331 962 321 988 c 0,23,24
 313 1007 313 1007 313 1025 c 0,25,26
 313 1058 313 1058 356 1074 c 2,27,-1
 505 1130 l 1,28,29
 460 1156 460 1156 383 1195 c 0,30,31
 346 1213 346 1213 346 1242 c 0,32,33
 346 1261 346 1261 360 1287 c 0,34,35
 384 1332 384 1332 418 1332 c 0,36,37
 435 1332 435 1332 453 1323 c 0,38,39
 578 1262 578 1262 674 1193 c 1,40,-1
 911 1282 l 2,41,42
 928 1289 928 1289 942 1289 c 0,43,44
 960 1289 960 1289 972 1277.5 c 128,-1,45
 984 1266 984 1266 994 1240 c 0,46,47
 1002 1221 1002 1221 1002 1203 c 0,48,49
 1002 1170 1002 1170 959 1154 c 2,50,-1
 798 1094 l 1,51,0
 1088 827 1088 827 1088 432 c 0,1,2
779.5 164 m 128,-1,53
 851 202 851 202 890.5 271 c 128,-1,54
 930 340 930 340 930 432 c 256,55,56
 930 524 930 524 890.5 593 c 128,-1,57
 851 662 851 662 779.5 700 c 128,-1,58
 708 738 708 738 614 738 c 256,59,60
 520 738 520 738 448.5 700 c 128,-1,61
 377 662 377 662 337.5 593 c 128,-1,62
 298 524 298 524 298 432 c 256,63,64
 298 340 298 340 337.5 271 c 128,-1,65
 377 202 377 202 448.5 164 c 128,-1,66
 520 126 520 126 614 126 c 256,67,52
 708 126 708 126 779.5 164 c 128,-1,53
EndSplineSet
Validated: 1
EndChar

StartChar: divide
Encoding: 247 247 185
Width: 1228
GlyphClass: 1
Flags: W
LayerCount: 2
Fore
SplineSet
694.5 1040.5 m 128,-1,1
 719 1026 719 1026 719 992 c 2,2,-1
 719 888 l 2,3,4
 719 854 719 854 694.5 839.5 c 128,-1,5
 670 825 670 825 614 825 c 256,6,7
 558 825 558 825 533.5 839.5 c 128,-1,8
 509 854 509 854 509 888 c 2,9,-1
 509 992 l 2,10,11
 509 1026 509 1026 533.5 1040.5 c 128,-1,12
 558 1055 558 1055 614 1055 c 256,13,0
 670 1055 670 1055 694.5 1040.5 c 128,-1,1
1043.5 634.5 m 128,-1,15
 1058 619 1058 619 1058 582 c 256,16,17
 1058 545 1058 545 1043.5 529.5 c 128,-1,18
 1029 514 1029 514 995 514 c 2,19,-1
 233 514 l 2,20,21
 199 514 199 514 184.5 529.5 c 128,-1,22
 170 545 170 545 170 582 c 256,23,24
 170 619 170 619 184.5 634.5 c 128,-1,25
 199 650 199 650 233 650 c 2,26,-1
 995 650 l 2,27,14
 1029 650 1029 650 1043.5 634.5 c 128,-1,15
694.5 325.5 m 128,-1,29
 719 311 719 311 719 277 c 2,30,-1
 719 173 l 2,31,32
 719 139 719 139 694.5 124.5 c 128,-1,33
 670 110 670 110 614 110 c 256,34,35
 558 110 558 110 533.5 124.5 c 128,-1,36
 509 139 509 139 509 173 c 2,37,-1
 509 277 l 2,38,39
 509 311 509 311 533.5 325.5 c 128,-1,40
 558 340 558 340 614 340 c 256,41,28
 670 340 670 340 694.5 325.5 c 128,-1,29
EndSplineSet
Validated: 1
EndChar

StartChar: oslash
Encoding: 248 248 186
Width: 1228
GlyphClass: 1
Flags: W
LayerCount: 2
Fore
SplineSet
1144 898 m 256,1,2
 1144 876 1144 876 1119 852 c 2,3,-1
 1011 747 l 1,4,5
 1096 624 1096 624 1096 462 c 0,6,7
 1096 323 1096 323 1033.5 212.5 c 128,-1,8
 971 102 971 102 861 40 c 128,-1,9
 751 -22 751 -22 614 -22 c 0,10,11
 528 -22 528 -22 452 3.5 c 128,-1,12
 376 29 376 29 314 76 c 1,13,-1
 205 -29 l 2,14,15
 180 -52 180 -52 160 -52 c 0,16,17
 138 -52 138 -52 110 -24 c 0,18,19
 84 4 84 4 84 26 c 0,20,21
 84 47 84 47 108 71 c 2,22,-1
 217 177 l 1,23,24
 132 300 132 300 132 462 c 0,25,26
 132 601 132 601 194.5 711.5 c 128,-1,27
 257 822 257 822 367 884 c 128,-1,28
 477 946 477 946 614 946 c 0,29,30
 700 946 700 946 776.5 921 c 128,-1,31
 853 896 853 896 914 849 c 1,32,-1
 1022 953 l 2,33,34
 1047 976 1047 976 1067 976 c 0,35,36
 1090 976 1090 976 1118 948 c 0,37,0
 1144 920 1144 920 1144 898 c 256,1,2
331 286 m 1,39,-1
 804 743 l 1,40,41
 724 798 724 798 614 798 c 0,42,43
 517 798 517 798 443.5 755.5 c 128,-1,44
 370 713 370 713 330 636.5 c 128,-1,45
 290 560 290 560 290 462 c 0,46,38
 290 362 290 362 331 286 c 1,39,-1
897 638 m 1,48,-1
 424 182 l 1,49,50
 503 126 503 126 614 126 c 0,51,52
 711 126 711 126 784.5 168.5 c 128,-1,53
 858 211 858 211 898 287.5 c 128,-1,54
 938 364 938 364 938 462 c 0,55,47
 938 562 938 562 897 638 c 1,48,-1
EndSplineSet
Validated: 1
EndChar

StartChar: thorn
Encoding: 254 254 192
Width: 1228
GlyphClass: 1
Flags: W
LayerCount: 2
Fore
SplineSet
337.5 1296.5 m 128,-1,1
 352 1281 352 1281 352 1244 c 2,2,-1
 352 781 l 1,3,4
 481 946 481 946 669 946 c 0,5,6
 793 946 793 946 891 887.5 c 128,-1,7
 989 829 989 829 1045 719.5 c 128,-1,8
 1101 610 1101 610 1101 462 c 256,9,10
 1101 314 1101 314 1045 204.5 c 128,-1,11
 989 95 989 95 891 36.5 c 128,-1,12
 793 -22 793 -22 669 -22 c 0,13,14
 481 -22 481 -22 352 143 c 1,15,-1
 352 -252 l 1,16,-1
 524 -252 l 2,17,18
 558 -252 558 -252 572.5 -267.5 c 128,-1,19
 587 -283 587 -283 587 -320 c 256,20,21
 587 -357 587 -357 572.5 -372.5 c 128,-1,22
 558 -388 558 -388 524 -388 c 2,23,-1
 100 -388 l 2,24,25
 66 -388 66 -388 51.5 -372.5 c 128,-1,26
 37 -357 37 -357 37 -320 c 256,27,28
 37 -283 37 -283 51.5 -267.5 c 128,-1,29
 66 -252 66 -252 100 -252 c 2,30,-1
 202 -252 l 1,31,-1
 202 1176 l 1,32,-1
 120 1176 l 2,33,34
 86 1176 86 1176 71.5 1191.5 c 128,-1,35
 57 1207 57 1207 57 1244 c 256,36,37
 57 1281 57 1281 71.5 1296.5 c 128,-1,38
 86 1312 86 1312 120 1312 c 2,39,-1
 289 1312 l 2,40,0
 323 1312 323 1312 337.5 1296.5 c 128,-1,1
500.5 758 m 128,-1,42
 431 718 431 718 391.5 642 c 128,-1,43
 352 566 352 566 352 462 c 256,44,45
 352 358 352 358 391.5 282 c 128,-1,46
 431 206 431 206 500.5 166 c 128,-1,47
 570 126 570 126 659 126 c 256,48,49
 748 126 748 126 812 168.5 c 128,-1,50
 876 211 876 211 909.5 287 c 128,-1,51
 943 363 943 363 943 462 c 256,52,53
 943 561 943 561 909.5 637 c 128,-1,54
 876 713 876 713 812 755.5 c 128,-1,55
 748 798 748 798 659 798 c 256,56,41
 570 798 570 798 500.5 758 c 128,-1,42
EndSplineSet
Validated: 1
EndChar

StartChar: Aogonek
Encoding: 260 260 198
Width: 1228
GlyphClass: 1
Flags: W
LayerCount: 2
Fore
SplineSet
965.5 -144 m 128,-1,1
 927 -205 927 -205 927 -260 c 0,2,3
 927 -295 927 -295 948 -314 c 128,-1,4
 969 -333 969 -333 1004 -333 c 0,5,6
 1056 -333 1056 -333 1117 -316 c 0,7,8
 1125 -314 1125 -314 1128 -314 c 0,9,10
 1158 -314 1158 -314 1167 -368 c 0,11,12
 1169 -386 1169 -386 1169 -393 c 0,13,14
 1169 -415 1169 -415 1160.5 -427.5 c 128,-1,15
 1152 -440 1152 -440 1135 -446 c 0,16,17
 1060 -472 1060 -472 971 -472 c 0,18,19
 878 -472 878 -472 824.5 -420 c 128,-1,20
 771 -368 771 -368 771 -281 c 0,21,22
 771 -208 771 -208 811 -139 c 128,-1,23
 851 -70 851 -70 927 0 c 1,24,-1
 801 0 l 2,25,26
 767 0 767 0 752.5 15.5 c 128,-1,27
 738 31 738 31 738 68 c 256,28,29
 738 105 738 105 752.5 120.5 c 128,-1,30
 767 136 767 136 801 136 c 2,31,-1
 936 136 l 1,32,-1
 854 374 l 1,33,-1
 369 374 l 1,34,-1
 286 136 l 1,35,-1
 407 136 l 2,36,37
 441 136 441 136 455.5 120.5 c 128,-1,38
 470 105 470 105 470 68 c 256,39,40
 470 31 470 31 455.5 15.5 c 128,-1,41
 441 0 441 0 407 0 c 2,42,-1
 73 0 l 2,43,44
 39 0 39 0 24.5 15.5 c 128,-1,45
 10 31 10 31 10 68 c 256,46,47
 10 105 10 105 24.5 120.5 c 128,-1,48
 39 136 39 136 73 136 c 2,49,-1
 129 136 l 1,50,-1
 460 1051 l 1,51,-1
 273 1051 l 2,52,53
 239 1051 239 1051 224.5 1066.5 c 128,-1,54
 210 1082 210 1082 210 1119 c 256,55,56
 210 1156 210 1156 224.5 1171.5 c 128,-1,57
 239 1187 239 1187 273 1187 c 2,58,-1
 640 1187 l 2,59,60
 680 1187 680 1187 704.5 1171.5 c 128,-1,61
 729 1156 729 1156 741 1122 c 2,62,-1
 1094 136 l 1,63,-1
 1155 136 l 2,64,65
 1189 136 1189 136 1203.5 120.5 c 128,-1,66
 1218 105 1218 105 1218 68 c 256,67,68
 1218 31 1218 31 1203.5 15.5 c 128,-1,69
 1189 0 1189 0 1155 0 c 2,70,-1
 1093 0 l 1,71,0
 1004 -83 1004 -83 965.5 -144 c 128,-1,1
416 510 m 1,72,-1
 808 510 l 1,73,-1
 622 1051 l 1,74,-1
 603 1051 l 1,75,-1
 416 510 l 1,72,-1
EndSplineSet
Validated: 1
EndChar

StartChar: aogonek
Encoding: 261 261 199
Width: 1228
GlyphClass: 1
Flags: W
LayerCount: 2
Fore
SplineSet
1108 -314 m 0,1,2
 1138 -314 1138 -314 1147 -368 c 0,3,4
 1149 -386 1149 -386 1149 -393 c 0,5,6
 1149 -415 1149 -415 1140.5 -427.5 c 128,-1,7
 1132 -440 1132 -440 1115 -446 c 0,8,9
 1040 -472 1040 -472 951 -472 c 0,10,11
 858 -472 858 -472 804.5 -420 c 128,-1,12
 751 -368 751 -368 751 -281 c 0,13,14
 751 -202 751 -202 798 -127.5 c 128,-1,15
 845 -53 845 -53 934 23 c 1,16,17
 875 57 875 57 859 128 c 1,18,19
 777 56 777 56 681.5 17 c 128,-1,20
 586 -22 586 -22 479 -22 c 0,21,22
 378 -22 378 -22 300.5 12.5 c 128,-1,23
 223 47 223 47 179 113 c 128,-1,24
 135 179 135 179 135 270 c 0,25,26
 135 428 135 428 248 503.5 c 128,-1,27
 361 579 361 579 540 579 c 0,28,29
 699 579 699 579 844 528 c 1,30,-1
 844 613 l 2,31,32
 844 710 844 710 789.5 755.5 c 128,-1,33
 735 801 735 801 614 801 c 0,34,35
 539 801 539 801 458 780 c 128,-1,36
 377 759 377 759 304 722 c 0,37,38
 287 713 287 713 273 713 c 0,39,40
 240 713 240 713 218 761 c 0,41,42
 207 785 207 785 207 801 c 0,43,44
 207 836 207 836 244 855 c 0,45,46
 328 899 328 899 424.5 922.5 c 128,-1,47
 521 946 521 946 618 946 c 0,48,49
 806 946 806 946 900 862 c 128,-1,50
 994 778 994 778 994 613 c 2,51,-1
 994 215 l 2,52,53
 994 136 994 136 1060 136 c 2,54,-1
 1095 136 l 2,55,56
 1129 136 1129 136 1143.5 120.5 c 128,-1,57
 1158 105 1158 105 1158 68 c 256,58,59
 1158 31 1158 31 1143.5 15.5 c 128,-1,60
 1129 0 1129 0 1095 0 c 2,61,-1
 1073 0 l 1,62,63
 984 -83 984 -83 945.5 -144 c 128,-1,64
 907 -205 907 -205 907 -260 c 0,65,66
 907 -295 907 -295 928 -314 c 128,-1,67
 949 -333 949 -333 984 -333 c 0,68,69
 1036 -333 1036 -333 1097 -316 c 0,70,0
 1105 -314 1105 -314 1108 -314 c 0,1,2
844 393 m 1,71,72
 776 415 776 415 698 426.5 c 128,-1,73
 620 438 620 438 541 438 c 0,74,75
 426 438 426 438 359.5 398.5 c 128,-1,76
 293 359 293 359 293 273 c 0,77,78
 293 200 293 200 343.5 159.5 c 128,-1,79
 394 119 394 119 485 119 c 0,80,81
 684 119 684 119 844 284 c 1,82,-1
 844 393 l 1,71,72
EndSplineSet
Validated: 1
EndChar

StartChar: dcaron
Encoding: 271 271 209
Width: 1228
GlyphClass: 1
Flags: W
LayerCount: 2
Fore
SplineSet
911.5 1296.5 m 128,-1,1
 926 1281 926 1281 926 1244 c 2,2,-1
 926 136 l 1,3,-1
 1008 136 l 2,4,5
 1042 136 1042 136 1056.5 120.5 c 128,-1,6
 1071 105 1071 105 1071 68 c 256,7,8
 1071 31 1071 31 1056.5 15.5 c 128,-1,9
 1042 0 1042 0 1008 0 c 2,10,-1
 849 0 l 2,11,12
 815 0 815 0 800.5 15.5 c 128,-1,13
 786 31 786 31 786 68 c 2,14,-1
 786 143 l 1,15,16
 684 -22 684 -22 509 -22 c 0,17,18
 400 -22 400 -22 313 36.5 c 128,-1,19
 226 95 226 95 176.5 204.5 c 128,-1,20
 127 314 127 314 127 462 c 256,21,22
 127 610 127 610 176.5 719.5 c 128,-1,23
 226 829 226 829 313 887.5 c 128,-1,24
 400 946 400 946 509 946 c 0,25,26
 678 946 678 946 776 785 c 1,27,-1
 776 1176 l 1,28,-1
 614 1176 l 2,29,30
 580 1176 580 1176 565.5 1191.5 c 128,-1,31
 551 1207 551 1207 551 1244 c 256,32,33
 551 1281 551 1281 565.5 1296.5 c 128,-1,34
 580 1312 580 1312 614 1312 c 2,35,-1
 863 1312 l 2,36,0
 897 1312 897 1312 911.5 1296.5 c 128,-1,1
1321 1304.5 m 128,-1,38
 1328 1297 1328 1297 1328 1285 c 0,39,40
 1328 1276 1328 1276 1323 1261 c 2,41,-1
 1189 898 l 2,42,43
 1176 862 1176 862 1115 862 c 0,44,45
 1087 862 1087 862 1072 873 c 128,-1,46
 1057 884 1057 884 1057 904 c 0,47,48
 1057 908 1057 908 1059 918 c 2,49,-1
 1141 1280 l 2,50,51
 1149 1312 1149 1312 1183 1312 c 2,52,-1
 1301 1312 l 2,53,37
 1314 1312 1314 1312 1321 1304.5 c 128,-1,38
392.5 755.5 m 128,-1,55
 340 713 340 713 312.5 637 c 128,-1,56
 285 561 285 561 285 462 c 256,57,58
 285 363 285 363 312.5 287 c 128,-1,59
 340 211 340 211 392.5 168.5 c 128,-1,60
 445 126 445 126 519 126 c 0,61,62
 597 126 597 126 655 166 c 128,-1,63
 713 206 713 206 744.5 281.5 c 128,-1,64
 776 357 776 357 776 462 c 256,65,66
 776 567 776 567 744.5 642.5 c 128,-1,67
 713 718 713 718 655 758 c 128,-1,68
 597 798 597 798 519 798 c 0,69,54
 445 798 445 798 392.5 755.5 c 128,-1,55
EndSplineSet
Validated: 1
EndChar

StartChar: Dcroat
Encoding: 272 272 210
Width: 1228
GlyphClass: 1
Flags: W
LayerCount: 2
Fore
SplineSet
890 1115.5 m 128,-1,1
 1009 1044 1009 1044 1074.5 909.5 c 128,-1,2
 1140 775 1140 775 1140 593 c 256,3,4
 1140 411 1140 411 1074.5 277 c 128,-1,5
 1009 143 1009 143 890 71.5 c 128,-1,6
 771 0 771 0 614 0 c 2,7,-1
 143 0 l 2,8,9
 109 0 109 0 94.5 15.5 c 128,-1,10
 80 31 80 31 80 68 c 256,11,12
 80 105 80 105 94.5 120.5 c 128,-1,13
 109 136 109 136 143 136 c 2,14,-1
 255 136 l 1,15,-1
 255 538 l 1,16,-1
 157 538 l 2,17,18
 123 538 123 538 108.5 554.5 c 128,-1,19
 94 571 94 571 94 610 c 256,20,21
 94 649 94 649 108.5 665.5 c 128,-1,22
 123 682 123 682 157 682 c 2,23,-1
 255 682 l 1,24,-1
 255 1051 l 1,25,-1
 143 1051 l 2,26,27
 109 1051 109 1051 94.5 1066.5 c 128,-1,28
 80 1082 80 1082 80 1119 c 256,29,30
 80 1156 80 1156 94.5 1171.5 c 128,-1,31
 109 1187 109 1187 143 1187 c 2,32,-1
 614 1187 l 2,33,0
 771 1187 771 1187 890 1115.5 c 128,-1,1
798 188.5 m 128,-1,35
 886 241 886 241 934 343.5 c 128,-1,36
 982 446 982 446 982 593 c 256,37,38
 982 740 982 740 934 842.5 c 128,-1,39
 886 945 886 945 798 998 c 128,-1,40
 710 1051 710 1051 591 1051 c 2,41,-1
 405 1051 l 1,42,-1
 405 682 l 1,43,-1
 679 682 l 2,44,45
 713 682 713 682 727.5 665.5 c 128,-1,46
 742 649 742 649 742 610 c 256,47,48
 742 571 742 571 727.5 554.5 c 128,-1,49
 713 538 713 538 679 538 c 2,50,-1
 405 538 l 1,51,-1
 405 136 l 1,52,-1
 591 136 l 2,53,34
 710 136 710 136 798 188.5 c 128,-1,35
EndSplineSet
Validated: 1
EndChar

StartChar: dcroat
Encoding: 273 273 211
Width: 1228
GlyphClass: 1
Flags: W
LayerCount: 2
Fore
SplineSet
1006 970 m 1,0,-1
 1006 136 l 1,1,-1
 1088 136 l 2,2,3
 1122 136 1122 136 1136.5 120.5 c 128,-1,4
 1151 105 1151 105 1151 68 c 256,5,6
 1151 31 1151 31 1136.5 15.5 c 128,-1,7
 1122 0 1122 0 1088 0 c 2,8,-1
 929 0 l 2,9,10
 895 0 895 0 880.5 15.5 c 128,-1,11
 866 31 866 31 866 68 c 2,12,-1
 866 138 l 1,13,14
 806 61 806 61 728.5 19.5 c 128,-1,15
 651 -22 651 -22 559 -22 c 0,16,17
 441 -22 441 -22 348 32.5 c 128,-1,18
 255 87 255 87 202 190 c 128,-1,19
 149 293 149 293 149 432 c 256,20,21
 149 571 149 571 202 674 c 128,-1,22
 255 777 255 777 348 831.5 c 128,-1,23
 441 886 441 886 559 886 c 0,24,25
 735 886 735 886 856 739 c 1,26,-1
 856 970 l 1,27,-1
 553 970 l 2,28,29
 519 970 519 970 504.5 985.5 c 128,-1,30
 490 1001 490 1001 490 1038 c 256,31,32
 490 1075 490 1075 504.5 1090.5 c 128,-1,33
 519 1106 519 1106 553 1106 c 2,34,-1
 856 1106 l 1,35,-1
 856 1176 l 1,36,-1
 694 1176 l 2,37,38
 660 1176 660 1176 645.5 1191.5 c 128,-1,39
 631 1207 631 1207 631 1244 c 256,40,41
 631 1281 631 1281 645.5 1296.5 c 128,-1,42
 660 1312 660 1312 694 1312 c 2,43,-1
 943 1312 l 2,44,45
 977 1312 977 1312 991.5 1296.5 c 128,-1,46
 1006 1281 1006 1281 1006 1244 c 2,47,-1
 1006 1106 l 1,48,-1
 1115 1106 l 2,49,50
 1149 1106 1149 1106 1163.5 1090.5 c 128,-1,51
 1178 1075 1178 1075 1178 1038 c 256,52,53
 1178 1001 1178 1001 1163.5 985.5 c 128,-1,54
 1149 970 1149 970 1115 970 c 2,55,-1
 1006 970 l 1,0,-1
717 162.5 m 128,-1,57
 782 199 782 199 819 268 c 128,-1,58
 856 337 856 337 856 432 c 256,59,60
 856 527 856 527 819 596 c 128,-1,61
 782 665 782 665 717 701.5 c 128,-1,62
 652 738 652 738 569 738 c 256,63,64
 486 738 486 738 426 699 c 128,-1,65
 366 660 366 660 334.5 590.5 c 128,-1,66
 303 521 303 521 303 432 c 256,67,68
 303 343 303 343 334.5 273.5 c 128,-1,69
 366 204 366 204 426 165 c 128,-1,70
 486 126 486 126 569 126 c 256,71,56
 652 126 652 126 717 162.5 c 128,-1,57
EndSplineSet
Validated: 1
EndChar

StartChar: Eogonek
Encoding: 280 280 218
Width: 1228
GlyphClass: 1
Flags: W
LayerCount: 2
Fore
SplineSet
885.5 -144 m 128,-1,1
 847 -205 847 -205 847 -260 c 0,2,3
 847 -295 847 -295 868 -314 c 128,-1,4
 889 -333 889 -333 924 -333 c 0,5,6
 976 -333 976 -333 1037 -316 c 0,7,8
 1045 -314 1045 -314 1048 -314 c 0,9,10
 1078 -314 1078 -314 1087 -368 c 0,11,12
 1089 -386 1089 -386 1089 -393 c 0,13,14
 1089 -415 1089 -415 1080.5 -427.5 c 128,-1,15
 1072 -440 1072 -440 1055 -446 c 0,16,17
 980 -472 980 -472 891 -472 c 0,18,19
 798 -472 798 -472 744.5 -420 c 128,-1,20
 691 -368 691 -368 691 -281 c 0,21,22
 691 -208 691 -208 731 -139 c 128,-1,23
 771 -70 771 -70 847 0 c 1,24,-1
 143 0 l 2,25,26
 109 0 109 0 94.5 15.5 c 128,-1,27
 80 31 80 31 80 68 c 256,28,29
 80 105 80 105 94.5 120.5 c 128,-1,30
 109 136 109 136 143 136 c 2,31,-1
 245 136 l 1,32,-1
 245 1051 l 1,33,-1
 143 1051 l 2,34,35
 109 1051 109 1051 94.5 1066.5 c 128,-1,36
 80 1082 80 1082 80 1119 c 256,37,38
 80 1156 80 1156 94.5 1171.5 c 128,-1,39
 109 1187 109 1187 143 1187 c 2,40,-1
 1017 1187 l 2,41,42
 1051 1187 1051 1187 1065.5 1171.5 c 128,-1,43
 1080 1156 1080 1156 1080 1119 c 2,44,-1
 1080 865 l 2,45,46
 1080 830 1080 830 1063 815 c 128,-1,47
 1046 800 1046 800 1005 800 c 256,48,49
 964 800 964 800 947 815 c 128,-1,50
 930 830 930 830 930 865 c 2,51,-1
 930 1051 l 1,52,-1
 395 1051 l 1,53,-1
 395 680 l 1,54,-1
 653 680 l 1,55,-1
 653 771 l 2,56,57
 653 806 653 806 668.5 821 c 128,-1,58
 684 836 684 836 724 836 c 256,59,60
 764 836 764 836 779.5 821 c 128,-1,61
 795 806 795 806 795 771 c 2,62,-1
 795 453 l 2,63,64
 795 418 795 418 779.5 403 c 128,-1,65
 764 388 764 388 724 388 c 256,66,67
 684 388 684 388 668.5 403 c 128,-1,68
 653 418 653 418 653 453 c 2,69,-1
 653 544 l 1,70,-1
 395 544 l 1,71,-1
 395 136 l 1,72,-1
 950 136 l 1,73,-1
 950 365 l 2,74,75
 950 400 950 400 967 415 c 128,-1,76
 984 430 984 430 1025 430 c 256,77,78
 1066 430 1066 430 1083 415 c 128,-1,79
 1100 400 1100 400 1100 365 c 2,80,-1
 1100 68 l 2,81,82
 1100 31 1100 31 1085.5 15.5 c 128,-1,83
 1071 0 1071 0 1037 0 c 2,84,-1
 1013 0 l 1,85,0
 924 -83 924 -83 885.5 -144 c 128,-1,1
EndSplineSet
Validated: 1
EndChar

StartChar: eogonek
Encoding: 281 281 219
Width: 1228
GlyphClass: 1
Flags: W
LayerCount: 2
Fore
SplineSet
870.5 887.5 m 128,-1,1
 973 829 973 829 1028 725.5 c 128,-1,2
 1083 622 1083 622 1091 487 c 0,3,4
 1091 453 1091 453 1076.5 439 c 128,-1,5
 1062 425 1062 425 1028 425 c 2,6,-1
 304 425 l 1,7,8
 311 276 311 276 392.5 199.5 c 128,-1,9
 474 123 474 123 623 123 c 0,10,11
 715 123 715 123 805 146.5 c 128,-1,12
 895 170 895 170 963 209 c 0,13,14
 980 218 980 218 994 218 c 0,15,16
 1029 218 1029 218 1051 165 c 0,17,18
 1060 144 1060 144 1060 127 c 0,19,20
 1060 87 1060 87 1016 65 c 0,21,22
 989 52 989 52 928 -5 c 0,23,24
 842 -86 842 -86 804.5 -147 c 128,-1,25
 767 -208 767 -208 767 -261 c 0,26,27
 767 -297 767 -297 788 -316.5 c 128,-1,28
 809 -336 809 -336 844 -336 c 0,29,30
 899 -336 899 -336 957 -326 c 0,31,32
 981 -322 981 -322 995 -339.5 c 128,-1,33
 1009 -357 1009 -357 1009 -396 c 0,34,35
 1009 -416 1009 -416 1000.5 -428 c 128,-1,36
 992 -440 992 -440 975 -446 c 0,37,38
 900 -472 900 -472 811 -472 c 0,39,40
 718 -472 718 -472 664.5 -420 c 128,-1,41
 611 -368 611 -368 611 -281 c 0,42,43
 611 -210 611 -210 650.5 -143.5 c 128,-1,44
 690 -77 690 -77 765 -9 c 1,45,46
 690 -22 690 -22 623 -22 c 0,47,48
 472 -22 472 -22 365 36 c 128,-1,49
 258 94 258 94 202 203 c 128,-1,50
 146 312 146 312 146 462 c 0,51,52
 146 605 146 605 207 715 c 128,-1,53
 268 825 268 825 376 885.5 c 128,-1,54
 484 946 484 946 623 946 c 0,55,0
 768 946 768 946 870.5 887.5 c 128,-1,1
419.5 738.5 m 128,-1,57
 339 676 339 676 314 565 c 1,58,-1
 925 565 l 1,59,60
 904 680 904 680 828.5 740.5 c 128,-1,61
 753 801 753 801 623 801 c 0,62,56
 500 801 500 801 419.5 738.5 c 128,-1,57
EndSplineSet
Validated: 1
EndChar

StartChar: uni0123
Encoding: 291 291 229
Width: 1228
GlyphClass: 1
Flags: W
LayerCount: 2
Fore
SplineSet
750 1432 m 128,-1,1
 767 1420 767 1420 767 1399 c 0,2,3
 767 1395 767 1395 765 1383 c 2,4,-1
 702 1096 l 2,5,6
 694 1064 694 1064 660 1064 c 2,7,-1
 544 1064 l 2,8,9
 516 1064 516 1064 516 1090 c 0,10,11
 516 1102 516 1102 522 1115 c 2,12,-1
 639 1406 l 2,13,14
 654 1444 654 1444 698 1444 c 0,15,0
 733 1444 733 1444 750 1432 c 128,-1,1
740 902 m 128,-1,17
 823 858 823 858 886 776 c 1,18,-1
 886 856 l 2,19,20
 886 893 886 893 900.5 908.5 c 128,-1,21
 915 924 915 924 949 924 c 2,22,-1
 1108 924 l 2,23,24
 1142 924 1142 924 1156.5 908.5 c 128,-1,25
 1171 893 1171 893 1171 856 c 256,26,27
 1171 819 1171 819 1156.5 803.5 c 128,-1,28
 1142 788 1142 788 1108 788 c 2,29,-1
 1026 788 l 1,30,-1
 1026 -30 l 2,31,32
 1026 -149 1026 -149 975.5 -234.5 c 128,-1,33
 925 -320 925 -320 829 -365 c 128,-1,34
 733 -410 733 -410 598 -410 c 0,35,36
 502 -410 502 -410 404 -393.5 c 128,-1,37
 306 -377 306 -377 221 -346 c 0,38,39
 182 -332 182 -332 182 -293 c 0,40,41
 182 -277 182 -277 190 -253 c 0,42,43
 208 -198 208 -198 247 -198 c 0,44,45
 258 -198 258 -198 269 -202 c 0,46,47
 347 -230 347 -230 433 -246 c 128,-1,48
 519 -262 519 -262 598 -262 c 0,49,50
 736 -262 736 -262 806 -196.5 c 128,-1,51
 876 -131 876 -131 876 -17 c 2,52,-1
 876 184 l 1,53,54
 752 28 752 28 559 28 c 0,55,56
 435 28 435 28 337 83.5 c 128,-1,57
 239 139 239 139 183 243 c 128,-1,58
 127 347 127 347 127 487 c 256,59,60
 127 627 127 627 183 731 c 128,-1,61
 239 835 239 835 337 890.5 c 128,-1,62
 435 946 435 946 559 946 c 0,63,16
 657 946 657 946 740 902 c 128,-1,17
416 758.5 m 128,-1,65
 352 719 352 719 318.5 648.5 c 128,-1,66
 285 578 285 578 285 487 c 256,67,68
 285 396 285 396 318.5 325.5 c 128,-1,69
 352 255 352 255 416 215.5 c 128,-1,70
 480 176 480 176 569 176 c 256,71,72
 658 176 658 176 727.5 213 c 128,-1,73
 797 250 797 250 836.5 320.5 c 128,-1,74
 876 391 876 391 876 487 c 256,75,76
 876 583 876 583 836.5 653.5 c 128,-1,77
 797 724 797 724 727.5 761 c 128,-1,78
 658 798 658 798 569 798 c 256,79,64
 480 798 480 798 416 758.5 c 128,-1,65
EndSplineSet
Validated: 1
EndChar

StartChar: Hbar
Encoding: 294 294 232
Width: 1228
GlyphClass: 1
Flags: W
LayerCount: 2
Fore
SplineSet
1133.5 1171.5 m 128,-1,1
 1148 1156 1148 1156 1148 1119 c 256,2,3
 1148 1082 1148 1082 1133.5 1066.5 c 128,-1,4
 1119 1051 1119 1051 1085 1051 c 2,5,-1
 1013 1051 l 1,6,-1
 1013 924 l 1,7,-1
 1135 924 l 2,8,9
 1169 924 1169 924 1183.5 908.5 c 128,-1,10
 1198 893 1198 893 1198 856 c 256,11,12
 1198 819 1198 819 1183.5 803.5 c 128,-1,13
 1169 788 1169 788 1135 788 c 2,14,-1
 1013 788 l 1,15,-1
 1013 136 l 1,16,-1
 1085 136 l 2,17,18
 1119 136 1119 136 1133.5 120.5 c 128,-1,19
 1148 105 1148 105 1148 68 c 256,20,21
 1148 31 1148 31 1133.5 15.5 c 128,-1,22
 1119 0 1119 0 1085 0 c 2,23,-1
 771 0 l 2,24,25
 737 0 737 0 722.5 15.5 c 128,-1,26
 708 31 708 31 708 68 c 256,27,28
 708 105 708 105 722.5 120.5 c 128,-1,29
 737 136 737 136 771 136 c 2,30,-1
 863 136 l 1,31,-1
 863 544 l 1,32,-1
 365 544 l 1,33,-1
 365 136 l 1,34,-1
 457 136 l 2,35,36
 491 136 491 136 505.5 120.5 c 128,-1,37
 520 105 520 105 520 68 c 256,38,39
 520 31 520 31 505.5 15.5 c 128,-1,40
 491 0 491 0 457 0 c 2,41,-1
 143 0 l 2,42,43
 109 0 109 0 94.5 15.5 c 128,-1,44
 80 31 80 31 80 68 c 256,45,46
 80 105 80 105 94.5 120.5 c 128,-1,47
 109 136 109 136 143 136 c 2,48,-1
 215 136 l 1,49,-1
 215 788 l 1,50,-1
 93 788 l 2,51,52
 59 788 59 788 44.5 803.5 c 128,-1,53
 30 819 30 819 30 856 c 256,54,55
 30 893 30 893 44.5 908.5 c 128,-1,56
 59 924 59 924 93 924 c 2,57,-1
 215 924 l 1,58,-1
 215 1051 l 1,59,-1
 143 1051 l 2,60,61
 109 1051 109 1051 94.5 1066.5 c 128,-1,62
 80 1082 80 1082 80 1119 c 256,63,64
 80 1156 80 1156 94.5 1171.5 c 128,-1,65
 109 1187 109 1187 143 1187 c 2,66,-1
 457 1187 l 2,67,68
 491 1187 491 1187 505.5 1171.5 c 128,-1,69
 520 1156 520 1156 520 1119 c 256,70,71
 520 1082 520 1082 505.5 1066.5 c 128,-1,72
 491 1051 491 1051 457 1051 c 2,73,-1
 365 1051 l 1,74,-1
 365 924 l 1,75,-1
 863 924 l 1,76,-1
 863 1051 l 1,77,-1
 771 1051 l 2,78,79
 737 1051 737 1051 722.5 1066.5 c 128,-1,80
 708 1082 708 1082 708 1119 c 256,81,82
 708 1156 708 1156 722.5 1171.5 c 128,-1,83
 737 1187 737 1187 771 1187 c 2,84,-1
 1085 1187 l 2,85,0
 1119 1187 1119 1187 1133.5 1171.5 c 128,-1,1
365 788 m 1,86,-1
 365 680 l 1,87,-1
 863 680 l 1,88,-1
 863 788 l 1,89,-1
 365 788 l 1,86,-1
EndSplineSet
Validated: 1
EndChar

